<?xml version="1.0" encoding="UTF-8" standalone="no"?>
<!-- Created with Inkscape (http://www.inkscape.org/) -->

<svg
   xmlns:dc="http://purl.org/dc/elements/1.1/"
   xmlns:cc="http://creativecommons.org/ns#"
   xmlns:rdf="http://www.w3.org/1999/02/22-rdf-syntax-ns#"
   xmlns:svg="http://www.w3.org/2000/svg"
   xmlns="http://www.w3.org/2000/svg"
   xmlns:xlink="http://www.w3.org/1999/xlink"
   xmlns:sodipodi="http://sodipodi.sourceforge.net/DTD/sodipodi-0.dtd"
   xmlns:inkscape="http://www.inkscape.org/namespaces/inkscape"
   width="600"
   height="600"
   viewBox="0 0 158.74999 158.75"
   version="1.1"
   id="svg8"
   inkscape:version="0.92.3 (2405546, 2018-03-11)"
   sodipodi:docname="logo.svg"
   inkscape:export-filename="/home/william/Development/Projects/PhpBR/reference/visual-identity/logo/youtube.png"
   inkscape:export-xdpi="128"
   inkscape:export-ydpi="128">
  <defs
     id="defs2">
    <linearGradient
       inkscape:collect="always"
       id="linearGradient4901">
      <stop
         style="stop-color:#ffffff;stop-opacity:0.01123596"
         offset="0"
         id="stop4897" />
      <stop
         style="stop-color:#ffffff;stop-opacity:0.83707863"
         offset="1"
         id="stop4899" />
    </linearGradient>
    <linearGradient
       inkscape:collect="always"
       id="linearGradient4889">
      <stop
         style="stop-color:#e6e6e6;stop-opacity:1;"
         offset="0"
         id="stop4885" />
      <stop
         style="stop-color:#ffffff;stop-opacity:0.51123595"
         offset="1"
         id="stop4887" />
    </linearGradient>
    <filter
       style="color-interpolation-filters:sRGB"
       inkscape:label="Drop Shadow"
       id="filter5112">
      <feFlood
         flood-opacity="0.498039"
         flood-color="rgb(0,0,0)"
         result="flood"
         id="feFlood5102" />
      <feComposite
         in="flood"
         in2="SourceGraphic"
         operator="in"
         result="composite1"
         id="feComposite5104" />
      <feGaussianBlur
         in="composite1"
         stdDeviation="10"
         result="blur"
         id="feGaussianBlur5106" />
      <feOffset
         dx="6"
         dy="10"
         result="offset"
         id="feOffset5108" />
      <feComposite
         in="SourceGraphic"
         in2="offset"
         operator="over"
         result="composite2"
         id="feComposite5110" />
    </filter>
    <filter
       style="color-interpolation-filters:sRGB"
       inkscape:label="Drop Shadow"
       id="filter4847">
      <feFlood
         flood-opacity="0.380392"
         flood-color="rgb(0,0,0)"
         result="flood"
         id="feFlood4837" />
      <feComposite
         in="flood"
         in2="SourceGraphic"
         operator="in"
         result="composite1"
         id="feComposite4839" />
      <feGaussianBlur
         in="composite1"
         stdDeviation="2"
         result="blur"
         id="feGaussianBlur4841" />
      <feOffset
         dx="3"
         dy="3"
         result="offset"
         id="feOffset4843" />
      <feComposite
         in="SourceGraphic"
         in2="offset"
         operator="over"
         result="composite2"
         id="feComposite4845" />
    </filter>
    <filter
       style="color-interpolation-filters:sRGB"
       inkscape:label="Drop Shadow"
       id="filter4847-5">
      <feFlood
         flood-opacity="0.380392"
         flood-color="rgb(0,0,0)"
         result="flood"
         id="feFlood4837-0" />
      <feComposite
         in="flood"
         in2="SourceGraphic"
         operator="in"
         result="composite1"
         id="feComposite4839-8" />
      <feGaussianBlur
         in="composite1"
         stdDeviation="2"
         result="blur"
         id="feGaussianBlur4841-0" />
      <feOffset
         dx="3"
         dy="3"
         result="offset"
         id="feOffset4843-4" />
      <feComposite
         in="SourceGraphic"
         in2="offset"
         operator="over"
         result="composite2"
         id="feComposite4845-1" />
    </filter>
    <linearGradient
       inkscape:collect="always"
       xlink:href="#linearGradient4889"
       id="linearGradient4891"
       x1="571.62158"
       y1="-224.43987"
       x2="981.90753"
       y2="179.56566"
       gradientUnits="userSpaceOnUse" />
    <linearGradient
       inkscape:collect="always"
       xlink:href="#linearGradient4901"
       id="linearGradient4903"
       x1="385.59775"
       y1="-887.1106"
       x2="982.90479"
       y2="-848.96362"
       gradientUnits="userSpaceOnUse"
       gradientTransform="matrix(0.2771034,0,0,0.2771034,103.78981,161.46533)" />
    <filter
       style="color-interpolation-filters:sRGB"
       inkscape:label="Drop Shadow"
       id="filter4847-59">
      <feFlood
         flood-opacity="0.380392"
         flood-color="rgb(0,0,0)"
         result="flood"
         id="feFlood4837-9" />
      <feComposite
         in="flood"
         in2="SourceGraphic"
         operator="in"
         result="composite1"
         id="feComposite4839-0" />
      <feGaussianBlur
         in="composite1"
         stdDeviation="2"
         result="blur"
         id="feGaussianBlur4841-7" />
      <feOffset
         dx="3"
         dy="3"
         result="offset"
         id="feOffset4843-6" />
      <feComposite
         in="SourceGraphic"
         in2="offset"
         operator="over"
         result="composite2"
         id="feComposite4845-3" />
    </filter>
    <filter
       style="color-interpolation-filters:sRGB"
       inkscape:label="Drop Shadow"
       id="filter4847-5-1">
      <feFlood
         flood-opacity="0.380392"
         flood-color="rgb(0,0,0)"
         result="flood"
         id="feFlood4837-0-5" />
      <feComposite
         in="flood"
         in2="SourceGraphic"
         operator="in"
         result="composite1"
         id="feComposite4839-8-0" />
      <feGaussianBlur
         in="composite1"
         stdDeviation="2"
         result="blur"
         id="feGaussianBlur4841-0-6" />
      <feOffset
         dx="3"
         dy="3"
         result="offset"
         id="feOffset4843-4-5" />
      <feComposite
         in="SourceGraphic"
         in2="offset"
         operator="over"
         result="composite2"
         id="feComposite4845-1-0" />
    </filter>
  </defs>
  <sodipodi:namedview
     id="base"
     pagecolor="#ffffff"
     bordercolor="#666666"
     borderopacity="1.0"
     inkscape:pageopacity="0.0"
     inkscape:pageshadow="2"
     inkscape:zoom="0.70000002"
     inkscape:cx="171.4286"
     inkscape:cy="232.38801"
     inkscape:document-units="mm"
     inkscape:current-layer="layer1"
     showgrid="false"
     inkscape:window-width="1340"
     inkscape:window-height="712"
     inkscape:window-x="26"
     inkscape:window-y="28"
     inkscape:window-maximized="1"
     units="px" />
  <metadata
     id="metadata5">
    <rdf:RDF>
      <cc:Work
         rdf:about="">
        <dc:format>image/svg+xml</dc:format>
        <dc:type
           rdf:resource="http://purl.org/dc/dcmitype/StillImage" />
        <dc:title />
      </cc:Work>
    </rdf:RDF>
  </metadata>
  <g
     inkscape:label="Layer 1"
     inkscape:groupmode="layer"
     id="layer1"
     transform="translate(0,-138.25)">
    <g
       id="g867">
      <circle
         transform="matrix(0.29648325,0,0,0.29648325,-123.88712,249.80838)"
         r="250"
         cy="-111.22358"
         cx="686.18384"
         id="path4656"
         style="opacity:1;fill:url(#linearGradient4891);fill-opacity:1;stroke:#000000;stroke-width:0.5705443;stroke-miterlimit:4;stroke-dasharray:none;stroke-opacity:0.15384616;filter:url(#filter5112)" />
      <path
         style="fill:#6082bb;fill-opacity:0.28921569;stroke:none;stroke-width:0.0902089"
         inkscape:connector-curvature="0"
         d="m 55.373276,187.01498 c 0.09021,0.18041 0.27063,0.27062 0.405942,0.40593 0.0902,0.13532 0.180413,0.31573 0.270621,0.49616 0.09021,0.18041 0.27063,0.31573 0.27063,0.49615 0,0.13531 -0.225523,0.22552 -0.27063,0.36082 0,0.0902 0,0.18043 0.0451,0.31574 l 0.135315,0.13531 c 0.180419,0 0.225523,-0.18042 0.360835,-0.27062 h 0.225526 c 0.09021,0.0451 0.09021,0.22552 0.180416,0.22552 0.0451,0.0451 0.135315,-0.13532 0.225526,-0.0902 0.09021,0 0.180416,0.0451 0.225514,0.13531 0.135315,0.18042 0.09021,0.40595 0.225523,0.58636 0.09021,0.13532 0.27063,0.18042 0.451049,0.22553 0.135312,0 0.315731,-0.0451 0.405942,-0.13532 0.135312,-0.13531 0.135312,-0.31573 0.22552,-0.40594 0.09021,-0.0902 0.225526,-0.0451 0.315728,-0.0902 0.09021,-0.0451 0.180419,-0.13531 0.315734,-0.18042 0.0451,-0.0451 0.180419,-0.18042 0.22552,-0.13531 0.135315,0.18042 0.09021,0.40594 0.09021,0.58636 0.0451,0.54125 -0.135312,1.12761 0.0451,1.62376 0.0451,0.18042 0.315731,0.13531 0.496153,0.0902 0.180416,-0.0451 0.315731,-0.22552 0.496141,-0.22552 0.225523,-0.0451 0.451048,0 0.631464,0 0.270627,0.0451 0.586361,0.0451 0.856982,0.0451 0.315734,0.0451 0.631468,0.0902 0.947199,0 0.135312,0 0.270627,-0.18041 0.315731,-0.31573 0.09021,-0.0902 0,-0.27063 0.09021,-0.36084 0.0451,-0.0451 0.22552,-0.0451 0.315728,-0.0451 0.09021,0 0.135312,0.13532 0.180419,0.0902 0.180416,-0.0451 0.315734,-0.18042 0.405942,-0.27063 0.135315,-0.13531 0.180419,-0.36083 0.315734,-0.45104 0.09021,-0.0451 0.180416,0.13531 0.22552,0.0902 0.135315,-0.0902 0.180422,-0.27063 0.27063,-0.40595 0.135306,-0.13531 0.315725,-0.27062 0.45104,-0.31573 0.225523,-0.0902 0.496149,-0.13531 0.721672,-0.18042 0.135312,0 0.225523,-0.0451 0.360838,-0.0451 0.135315,0 0.270621,0.0451 0.405936,0.0451 0.09021,0 0.180419,-0.0902 0.270627,-0.0902 0.0451,-0.0451 0.135312,-0.13532 0.180419,-0.0451 0.135315,0.13531 0.180416,0.40594 0.180416,0.58636 0,0.18042 -0.180416,0.27063 -0.180416,0.40594 -0.0451,0.18042 0,0.36084 0.04509,0.49614 0.0451,0.13532 0.180419,0.18042 0.225526,0.31574 0.0451,0.13531 0.0451,0.27062 0,0.40594 -0.0451,0.0902 -0.225526,0.0451 -0.225526,0.13531 0,0.18042 0.09021,0.31573 0.135315,0.45105 0.09021,0.18041 0.09021,0.36083 0.225526,0.54125 0.135312,0.22552 0.315728,0.45104 0.541248,0.58635 0.180416,0.13532 0.405942,0.13532 0.586358,0.22553 0.09021,0.0902 0.0451,0.31573 0.180419,0.40594 0.135315,0.0902 0.315734,0.0902 0.451049,0.0451 0.180419,0 0.315731,-0.0451 0.45104,-0.0902 0.0451,0 0.09021,-0.0902 0.180416,-0.0902 0.180419,0.0451 0.405942,0.18041 0.586361,0.27062 0.135315,0.0902 0.180419,0.27063 0.315734,0.36084 0.135312,0.0451 0.270627,-0.0451 0.360835,0.0451 0.180413,0.0451 0.270621,0.27063 0.451039,0.31574 0.135315,0.0902 0.315734,0.13531 0.451049,0.13531 0.09021,0.0451 0.22552,-0.0451 0.315731,0.0451 0.180419,0.13531 0.270627,0.40594 0.496144,0.54125 0.135315,0.0902 0.360838,0.13531 0.586358,0.0902 0.09021,-0.0451 0.09021,-0.27062 0.225526,-0.27062 0.180416,-0.0451 0.315731,0.0902 0.49615,0.13531 0.135315,0.0902 0.270621,0.18041 0.405936,0.27062 0.180419,0.0902 0.451046,0.13531 0.541254,0.31573 0.09021,0.13532 -0.09021,0.36084 -0.0451,0.54126 0.0451,0.22552 0.225523,0.40594 0.315731,0.63146 0.0451,0.13531 0,0.36083 0,0.54125 0,0.0451 0.0451,0.0902 0,0.13532 -0.135315,0.0451 -0.270627,-0.0451 -0.360838,0 -0.0451,0.0451 0,0.18041 0.0451,0.22552 0.0451,0.0902 0.180416,0.13531 0.22552,0.27062 0.09021,0.18043 0.135315,0.40594 0.135315,0.63147 0.0451,0.18041 0,0.36083 0.0451,0.49615 0.04509,0.18042 0.180416,0.36083 0.315731,0.40594 0.360832,0.0902 0.766774,0 1.172716,0 0.360834,0.0451 0.721666,0.0451 1.082504,0.0451 0.09021,0.0451 0.315731,-0.0902 0.315731,0.0451 0.0451,0.13532 -0.225523,0.22553 -0.270627,0.40594 0,0.13531 0.135315,0.22552 0.180416,0.31573 0.09021,0.18042 0.09021,0.40594 0.180422,0.54126 0.09021,0.13531 0.22552,0.18041 0.360835,0.27062 0.135315,0.13532 0.225526,0.27063 0.360838,0.40594 0.135309,0.13531 0.270621,0.31573 0.360829,0.49615 0.09021,0.18042 0.09021,0.36084 0.09021,0.58636 0,0.18042 -0.0451,0.36084 -0.135315,0.54125 -0.0451,0.22552 -0.180416,0.45105 -0.270621,0.67657 -0.0451,0.27063 -0.135315,0.49615 -0.225523,0.72167 -0.0451,0.13531 -0.180419,0.31573 -0.135312,0.45104 0.0451,0.13532 0.22552,0.13532 0.315731,0.18042 0.0451,0.0902 0.0902,0.18042 0.0451,0.22552 -0.0451,0.0902 -0.180419,0 -0.27063,0.0902 -0.09021,0.0902 -0.135312,0.27063 -0.09021,0.40595 0,0.18041 0.135315,0.31573 0.180419,0.49614 0.0451,0.0902 0.09021,0.18042 0.135315,0.31573 0.04509,0.0902 0.135315,0.18042 0.135315,0.31574 0.0451,0.18041 0.0451,0.36083 0,0.58636 0,0.0902 -0.0451,0.18042 -0.09021,0.31572 0,0.0902 0.0451,0.22552 0.0451,0.31574 0,0.13531 -0.09021,0.27062 -0.09021,0.40594 0,0.13531 0,0.31573 0.135312,0.40594 0.135306,0.0451 0.270621,-0.13532 0.405936,-0.13532 0.135312,0 0.315734,0.0451 0.49615,0.0451 0.135315,0.0451 0.315734,0 0.451046,0.0451 0.135315,0 0.225523,0.0902 0.315728,0.0902 0.09021,0.0451 0.22552,0.0902 0.315731,0.0902 0.09021,-0.0451 0.09021,-0.31573 0.225523,-0.27063 0.135315,0 0.135315,0.22552 0.27063,0.31573 0.180416,0.0902 0.451046,0 0.631462,0.0902 0.135309,0.13531 0.22552,0.40594 0.270621,0.58636 0.135315,0.36083 0.135315,0.67656 0.225526,1.0374 0.0451,0.18041 0.0451,0.45104 0.225523,0.58635 0.09021,0.0902 0.31573,0.0902 0.496149,0.13532 0.225523,0 0.45104,-0.0902 0.631459,-0.0451 0.180416,0.0451 0.451046,0.13532 0.49615,0.31574 0.09021,0.22552 -0.180419,0.45104 -0.180419,0.67656 0,0.18041 0.135315,0.31573 0.09021,0.49615 0,0.13531 -0.135315,0.27063 -0.135315,0.45104 -0.0451,0.0902 0.135315,0.13532 0.09021,0.22553 -0.0451,0.0902 -0.180419,0.0451 -0.22552,0.13531 -0.0451,0.0902 -0.0451,0.22553 0,0.36083 0,0.13532 0,0.27063 0.135312,0.31574 0.180419,0.0451 0.451049,-0.18042 0.631465,-0.0902 0.225526,0.13532 0.315734,0.45105 0.405942,0.67658 0.09021,0.13531 0.135306,0.31573 0.135306,0.45104 -0.0451,0.0902 -0.18041,0.13531 -0.18041,0.22552 -0.0451,0.13531 0.0451,0.27063 0.0451,0.45104 0,0.13532 -0.0451,0.27063 -0.09021,0.40595 -0.09021,0.18042 -0.135312,0.31573 -0.270627,0.45104 -0.09021,0.0902 -0.180419,0.13532 -0.315734,0.18042 -0.135312,0.0451 -0.315731,0 -0.49615,0.0451 -0.180419,0.0902 -0.315734,0.27062 -0.45104,0.36083 -0.135315,0.0902 -0.225523,0.22552 -0.360835,0.31573 -0.180418,0.13531 -0.405941,0.22553 -0.631467,0.36084 -0.09021,0.0902 -0.135315,0.22552 -0.270627,0.36084 -0.09021,0.13531 -0.225517,0.27062 -0.315725,0.40593 -0.09021,0.0902 -0.135312,0.18042 -0.225523,0.27063 -0.135315,0.13531 -0.27063,0.18042 -0.405942,0.27063 -0.09021,0.13531 -0.135315,0.31573 -0.225523,0.40594 -0.09021,0.13531 -0.225526,0.18042 -0.315734,0.31573 -0.09021,0.13531 -0.09021,0.36083 -0.225523,0.49614 -0.135306,0.13532 -0.360832,0.0902 -0.45104,0.22553 -0.135312,0.0902 -0.135312,0.27062 -0.180419,0.40594 -0.0451,0.0902 -0.135315,0.22552 -0.0451,0.27063 0.09021,0.0902 0.225523,-0.0902 0.315731,-0.0451 0.09021,0 0.135312,0.13531 0.180419,0.13531 0.09021,0 0.135306,-0.0902 0.180413,-0.13531 0.0451,-0.0451 0.0451,-0.13531 0.09021,-0.18042 0.09021,-0.0451 0.225523,-0.0902 0.315734,-0.0902 0.09021,0 0.09021,0.13532 0.180416,0.18042 0.0451,0.0451 0.135315,0.0451 0.180419,0.0902 0.09021,0.0902 0.0451,0.22552 0.135315,0.31573 0.09021,0.0902 0.270627,0.0902 0.315731,0.13531 0.09021,0.0902 0.09021,0.22552 0.135315,0.31573 0.0451,0.13531 0.09021,0.27063 0.135315,0.31573 0.0451,0.0451 0.135306,0.0451 0.225514,0 0.0451,0 0.135315,-0.0451 0.225526,-0.0902 0.0451,-0.0451 0.09021,-0.0451 0.09021,-0.0902 0.0451,-0.0451 0,-0.13531 0,-0.18041 0.0451,-0.0451 0.09021,-0.0451 0.135315,-0.0451 0.09021,0 0.270626,0 0.270626,0.0902 0.0451,0.0902 -0.135315,0.18042 -0.180419,0.27063 0,0.0902 0.0451,0.18041 0.09021,0.22552 0.135312,0.18042 0.315731,0.36084 0.541254,0.45105 0.135315,0.0902 0.360829,0.0902 0.496144,0.18041 0.135315,0.0902 0.270627,0.22552 0.360838,0.31573 0.09021,0.13531 0.135315,0.27063 0.27063,0.36084 0.135312,0.13531 0.360835,0.13531 0.49615,0.31573 0.180419,0.13531 0.180419,0.40594 0.315725,0.58636 0.360838,0.49614 0.856988,0.22552 0.49615,0.81188 0,0.0451 -0.09021,0.0902 -0.135312,0.13531 -0.09021,0.0451 -0.135315,0.0451 -0.180422,0.0902 -0.0451,0.0902 -0.09021,0.13531 -0.09021,0.22552 0,0.0902 -0.0451,0.22553 0,0.36084 0,0.0902 0.09021,0.18041 0.135315,0.22552 0.09021,0.0451 0.135315,0.0451 0.225523,0 0.0451,0 0.09021,-0.0902 0.135312,-0.13531 0.135315,-0.0451 0.27063,-0.0902 0.360841,-0.13531 0.135312,-0.0902 0.315731,-0.18042 0.405942,-0.31574 0.09021,-0.0902 0.09021,-0.22552 0.09021,-0.36083 0.0451,-0.0902 0.0451,-0.18042 0.0451,-0.27063 0.0451,-0.0902 0.09021,-0.18042 0.09021,-0.27063 0.0902,-0.18042 0.225517,-0.36083 0.225517,-0.54125 0.0451,-0.0902 -0.09021,-0.18042 -0.09021,-0.31573 0,-0.0902 0.09021,-0.13532 0.09021,-0.18042 0.0451,-0.13531 0.0451,-0.27063 0.135315,-0.40594 0.09021,-0.18042 0.270627,-0.40594 0.405942,-0.58636 0.09021,-0.0902 0.225523,-0.0902 0.270627,-0.13531 0.09021,-0.0451 0.135315,-0.0902 0.180416,-0.18042 0.0451,-0.0902 0,-0.22552 0.0451,-0.36084 0.0451,-0.13531 0.180419,-0.22552 0.22552,-0.36083 0.0451,-0.0902 0.135315,-0.13532 0.135315,-0.27063 0,-0.0451 -0.09021,-0.0902 -0.09021,-0.13531 -0.09021,-0.0902 -0.135315,-0.18041 -0.180419,-0.31573 0,-0.0451 -0.0451,-0.0902 0,-0.13531 0.135312,0 0.270627,0 0.360832,0.0902 0.135312,0.13531 0.09021,0.31573 0.180416,0.45104 0.09021,0.0902 0.180418,0.13531 0.225525,0.13531 0.09021,0 0.0451,-0.0902 0.0451,-0.13531 0.0451,-0.0451 0,-0.18042 0.0451,-0.13531 0.09021,0 0.09021,0.13531 0.180419,0.18041 0.0451,0 0.09021,-0.13531 0.135315,-0.0902 0.0451,0.0451 0.0451,0.13531 0,0.22552 -0.0451,0.0451 -0.225523,0 -0.27063,0.0902 -0.0451,0.0451 0.0451,0.18042 0,0.27063 -0.0451,0.0902 -0.135312,0.13531 -0.22552,0.27063 -0.0451,0.0451 0,0.13531 -0.09021,0.18042 -0.135309,0.0902 -0.360829,0 -0.45104,0.13531 -0.09021,0.13532 0.09021,0.36084 0.0451,0.49615 -0.0451,0.0902 -0.225523,0.0451 -0.315734,0.0902 -0.09021,0.0451 -0.135315,0.13532 -0.180416,0.18042 -0.135315,0.13532 -0.360841,0.22553 -0.496153,0.36084 -0.0451,0.0902 -0.0451,0.22552 0,0.31573 0.09021,0.0902 0.270627,0.13532 0.360838,0.0451 0.09021,0 0.09021,-0.18042 0.180416,-0.27063 0.09021,-0.0902 0.225526,-0.18042 0.315734,-0.27062 0.180419,-0.0902 0.315734,-0.18042 0.451046,-0.31574 0.135309,-0.0902 0.180413,-0.22551 0.270621,-0.31572 0.135315,-0.13532 0.27063,-0.13532 0.360838,-0.22553 0.135312,-0.18041 0.225523,-0.36083 0.315734,-0.58636 0.09021,-0.0902 0.180419,-0.22552 0.180419,-0.36083 0.09021,-0.18042 0.09021,-0.36083 0.135311,-0.54125 0,-0.0451 -0.0451,-0.13532 0,-0.18042 0.0451,-0.0902 0.180419,-0.0902 0.225523,-0.18042 0.0451,-0.0451 0.0451,-0.13531 0.09021,-0.18042 0.09021,-0.13531 0.22552,-0.13531 0.270621,-0.27063 0.0451,-0.0902 -0.09021,-0.22552 -0.09021,-0.31573 0,-0.0451 0,-0.13531 0.0451,-0.13531 0.09021,0 0.180418,0.0902 0.31573,0.0902 0.09021,-0.0451 0.135315,-0.18042 0.180419,-0.22552 0.09021,-0.13531 0.180419,-0.22552 0.27063,-0.31573 0.180419,-0.0902 0.360838,-0.0902 0.541254,-0.18042 0.09021,-0.0902 0.180419,-0.22552 0.270621,-0.36084 0.0451,-0.0902 0.135315,-0.18041 0.180419,-0.27063 0.0451,-0.18041 0,-0.36083 0.0451,-0.49614 0.0451,-0.22552 0.180419,-0.40594 0.180419,-0.63146 0.0451,-0.13532 -0.09021,-0.18042 -0.09021,-0.31574 0.0451,-0.13531 0.225523,-0.27063 0.225523,-0.45104 0,-0.0902 -0.135312,-0.18041 -0.135312,-0.27062 -0.0451,-0.18042 -0.0451,-0.36084 -0.0451,-0.54126 0,-0.18042 0,-0.31573 0.0451,-0.49615 0,-0.22553 0.0451,-0.40594 0.135312,-0.63146 0.0451,-0.13531 0.27063,-0.18042 0.27063,-0.36084 0,-0.0902 -0.180419,-0.13531 -0.27063,-0.22552 v -0.13531 c 0.0451,-0.0451 0.09021,-0.0902 0.135315,-0.13532 0.180419,0 0.360838,0.31573 0.541257,0.27063 0.270627,-0.0451 0.225523,-0.45104 0.360829,-0.63146 0.180422,-0.18042 0.360838,-0.27062 0.586361,-0.40594 0.225523,-0.18042 0.496153,-0.31573 0.76678,-0.49615 0.135315,-0.0902 0.270621,-0.22552 0.405933,-0.31573 0.09021,-0.0902 0.180422,-0.18042 0.315734,-0.22553 0.135315,-0.0902 0.315731,-0.13531 0.496149,-0.22552 0.135315,-0.0902 0.27063,-0.27062 0.451049,-0.27062 0.18041,-0.0451 0.405933,0.0902 0.586352,0.0902 0.180419,0 0.405942,0 0.541257,-0.0902 0.180416,-0.0902 0.225523,-0.31573 0.360835,-0.40594 0.135315,-0.13531 0.360832,-0.13531 0.496144,-0.27063 0.09021,-0.0902 0.0451,-0.22552 0.135315,-0.36084 0.0451,-0.0902 0.09021,-0.18042 0.180417,-0.22552 0.13531,0 0.27063,0.0902 0.40594,0.13531 0.0902,0 0.22552,0.0902 0.36084,0.0902 0.0902,0 0.18042,-0.18042 0.31572,-0.22552 0.0902,0 0.22553,0 0.31574,0.0451 0.0902,0.0451 0.0902,0.18042 0.18042,0.27062 0.0451,0.0451 0.13531,0.0902 0.22552,0.0902 0.22552,-0.0451 0.49615,-0.0451 0.67657,-0.18042 0.0902,-0.0451 0.0451,-0.22553 0.13531,-0.27063 0.0902,0 0.13531,0.18042 0.22552,0.22552 0.13531,0.0451 0.36084,0.0451 0.49615,0.0902 0.13531,0.0451 0.18042,0.22552 0.27063,0.18042 0.22552,-0.0451 0.45104,-0.18042 0.58636,-0.36084 0.0902,-0.13531 0,-0.36083 0.0902,-0.45104 0.0902,-0.13531 0.27063,-0.13531 0.36084,-0.22552 0.31573,-0.13532 0.63146,-0.22552 0.85699,-0.45105 0.0902,-0.0451 0.0451,-0.18042 0.0451,-0.27062 0,-0.0902 -0.13531,-0.0902 -0.13531,-0.13532 0,-0.0902 0.0902,-0.22552 0.18042,-0.22552 0.0902,0 0.18042,0.22552 0.22552,0.13531 0.0902,-0.0902 -0.0451,-0.27062 0,-0.45104 0,-0.0451 0.0451,-0.13531 0.0902,-0.22552 0.13532,-0.18042 0.27063,-0.36084 0.45105,-0.54126 0.13531,-0.18042 0.36084,-0.36083 0.49615,-0.54125 0.0451,-0.0902 0.0451,-0.22552 0.13531,-0.31573 0.18042,-0.22552 0.40594,-0.49615 0.58636,-0.72167 0.22552,-0.22553 0.45105,-0.40595 0.58636,-0.63146 0.13531,-0.22552 0.13531,-0.49615 0.18042,-0.76678 0.0451,-0.18042 0,-0.40594 0.0451,-0.63147 0.0451,-0.22551 0.0902,-0.45103 0.22553,-0.63145 0.0902,-0.27063 0.27063,-0.49615 0.40594,-0.72168 0.13531,-0.13531 0.31572,-0.27063 0.36083,-0.45104 0.0902,-0.18042 0,-0.40594 0.0451,-0.58636 0.0451,-0.40594 0.18042,-0.76678 0.31573,-1.0825 0.0902,-0.31573 0.27063,-0.58636 0.36084,-0.85699 0.0451,-0.0902 0.13531,-0.18042 0.13531,-0.27063 0,-0.18042 -0.0902,-0.31573 -0.0902,-0.49614 0,-0.13532 0.13531,-0.27063 0.13531,-0.40595 -0.0451,-0.22552 -0.22552,-0.40593 -0.22552,-0.63146 0,-0.18042 0.0902,-0.40594 0.18042,-0.58635 0.0451,-0.31574 0.22553,-0.58636 0.22553,-0.85699 0,-0.27063 -0.27063,-0.45105 -0.27063,-0.72167 0,-0.22552 0.18042,-0.45104 0.27063,-0.67657 0.0451,-0.13531 0.0451,-0.27062 0.0902,-0.36083 0.0902,-0.0902 0.27063,-0.13532 0.27063,-0.22553 0,-0.13531 -0.18041,-0.22551 -0.18041,-0.36083 0,-0.0902 0.1353,-0.22552 0.22551,-0.18042 0.18042,0.0902 0.0902,0.40594 0.27063,0.49615 0.13531,0.0902 0.36084,-0.0451 0.49615,-0.13532 0.13531,-0.0902 0.22552,-0.27062 0.36084,-0.36083 0.22552,-0.22552 0.49614,-0.31573 0.67656,-0.54125 0.18042,-0.18042 0.27063,-0.45105 0.40594,-0.67657 v -0.0451 c 0,-0.13531 0.0451,-0.31573 0.0902,-0.45105 0.0451,-0.13531 0.18042,-0.27062 0.22552,-0.45104 0.0451,-0.0902 -0.0451,-0.18042 0,-0.22553 0.0902,-0.0451 0.18042,0.13532 0.22553,0.0902 0.13531,-0.0902 0.13531,-0.31573 0.22552,-0.45104 0.13531,-0.13531 0.31572,-0.27062 0.49614,-0.40594 0.27063,-0.27062 0.54126,-0.54125 0.85699,-0.76678 0.13532,-0.0902 0.27063,-0.18041 0.40594,-0.31573 0.0902,-0.0902 0.0451,-0.27062 0.13531,-0.36083 0.0902,-0.0451 0.22552,0 0.31574,-0.0451 0.0902,-0.0902 0.18041,-0.18041 0.22552,-0.31573 0.0451,-0.0451 -0.0451,-0.18042 0,-0.27063 0.18042,-0.22552 0.45104,-0.36084 0.63146,-0.58636 0.18042,-0.18042 0.36083,-0.40593 0.45104,-0.63146 0.18042,-0.27062 0.22552,-0.54125 0.36084,-0.85698 0.13531,-0.31574 0.31573,-0.63146 0.40594,-0.9923 0.0451,-0.36084 0.0451,-0.72167 0,-1.0374 0,-0.45104 0,-0.85699 -0.0451,-1.30804 -0.0451,-0.22551 -0.0902,-0.49614 -0.13531,-0.76677 -0.0451,-0.18042 -0.0451,-0.36083 -0.0902,-0.58636 -0.13532,-0.36083 -0.27063,-0.72166 -0.45105,-1.0374 -0.0902,-0.13531 -0.22552,-0.22552 -0.36083,-0.27062 -0.36083,-0.13532 -0.72167,-0.18042 -1.08251,-0.22553 -0.27063,-0.0451 -0.54125,0.0902 -0.81187,0.0451 -0.31574,-0.0902 -0.58637,-0.31573 -0.857,-0.45105 -0.31573,-0.22551 -0.54124,-0.45104 -0.81187,-0.63145 -0.31573,-0.22553 -0.58636,-0.45105 -0.85699,-0.72168 -0.27063,-0.22552 -0.49614,-0.49614 -0.76677,-0.76677 -0.22552,-0.18042 -0.45105,-0.40594 -0.72167,-0.54126 -0.27063,-0.18041 -0.63146,-0.18041 -0.94719,-0.31573 -0.18043,-0.13531 -0.36084,-0.31572 -0.58637,-0.40593 -0.27063,-0.0902 -0.54125,-0.0902 -0.81187,-0.13532 -0.27063,0 -0.58636,0.0451 -0.85699,0.0902 -0.18042,0.0451 -0.36084,0.22552 -0.58635,0.22552 -0.22553,-0.0451 -0.40595,-0.27062 -0.63147,-0.36083 -0.13531,-0.0451 -0.31573,-0.13532 -0.49615,-0.13532 -0.18042,-0.0451 -0.40593,0.0902 -0.58636,0.0451 -0.0902,-0.0451 -0.13531,-0.22552 -0.22552,-0.22552 -0.18041,-0.0902 -0.40594,0 -0.58636,-0.0451 -0.0902,-0.0451 -0.0902,-0.22552 -0.18042,-0.27063 -0.22552,-0.0902 -0.49614,-0.0902 -0.72166,-0.18041 -0.0451,0 -0.0902,-0.13532 -0.18042,-0.13532 -0.0902,0.0451 -0.0451,0.27063 -0.13532,0.31573 -0.13531,0.0451 -0.27062,-0.0451 -0.36083,-0.13531 -0.0902,-0.0451 -0.0451,-0.27063 -0.13532,-0.22553 -0.13531,0.0902 -0.0902,0.31574 -0.18042,0.45105 -0.0902,0.0451 -0.18041,0.0451 -0.27062,0 -0.0902,0 -0.18042,-0.0902 -0.22552,-0.13531 -0.0902,-0.0451 -0.18042,-0.0902 -0.27063,-0.0451 -0.0902,0.13531 -0.0902,0.36084 -0.13531,0.54126 -0.0902,0.13531 -0.13532,0.27062 -0.27063,0.40594 -0.0902,0.0902 -0.27063,0.1353 -0.36084,0.27062 -0.0902,0.18042 -0.0451,0.76678 -0.13531,0.58636 -0.0902,-0.22552 0,-0.49615 0.0902,-0.72168 0,-0.0902 0.0902,-0.22551 0.13531,-0.36082 0.0451,-0.0902 0,-0.18042 0.0451,-0.27063 0.0451,-0.13532 0.13531,-0.27063 0.22552,-0.40594 0.0451,-0.0902 0.13531,-0.18043 0.22553,-0.27063 0.0451,-0.0451 0.18041,-0.0902 0.18041,-0.13532 -0.0451,-0.0902 -0.13531,-0.18041 -0.22552,-0.18041 -0.0902,0.0451 -0.18042,0.27062 -0.27063,0.18041 -0.0902,-0.0451 0.0451,-0.18041 0.0902,-0.27062 0.0451,-0.0902 0.18042,-0.13531 0.18042,-0.22552 0,-0.13532 -0.0902,-0.22553 -0.18042,-0.31573 -0.0451,-0.0451 -0.18042,0 -0.22552,-0.0451 -0.0902,-0.13532 -0.13532,-0.31574 -0.22552,-0.40594 -0.0451,-0.0451 -0.13531,0 -0.18042,-0.0451 -0.0902,0 -0.13531,-0.13532 -0.22552,-0.0902 -0.13531,0 -0.22552,0.0902 -0.27063,0.22552 -0.0451,0.13532 0.18042,0.36084 0.0451,0.40595 -0.18042,0.0451 -0.27063,-0.22553 -0.31573,-0.36084 -0.0451,-0.13532 0.18042,-0.22553 0.18042,-0.36084 -0.0451,-0.0902 -0.13532,-0.13531 -0.27063,-0.13531 -0.0451,-0.0451 -0.0451,0.0902 -0.0902,0.0902 -0.0902,-0.0451 0,-0.22553 -0.0902,-0.22553 -0.13531,-0.0451 -0.270624,0.0902 -0.405939,0.0902 -0.135306,0 -0.270621,-0.18041 -0.405936,-0.18041 -0.0451,0 -0.09021,0.18041 -0.135315,0.13531 -0.09021,-0.0902 0,-0.31573 -0.09021,-0.36083 -0.135312,-0.0451 -0.270626,0.22552 -0.405941,0.18042 -0.135312,-0.0451 -0.135312,-0.36084 -0.315731,-0.45105 -0.225523,-0.13531 -0.45104,-0.13531 -0.721667,-0.18042 -0.225526,-0.0902 -0.451046,-0.22552 -0.676569,-0.27063 -0.09021,0 0.135312,0.22552 0.0451,0.18042 -0.180416,0 -0.360835,-0.22552 -0.541254,-0.27063 -0.135309,0 -0.180413,0.18042 -0.225517,0.18042 -0.135315,0.0902 -0.270627,0.0451 -0.360838,0.13531 -0.135315,0.0451 -0.180419,0.18042 -0.270627,0.27063 -0.135315,0.13532 -0.27063,0.27063 -0.405942,0.40595 -0.09021,0.0902 -0.27063,0.18041 -0.27063,0.27062 0,0.22552 0.405942,0.36083 0.27063,0.49615 -0.09021,0.13531 -0.315731,-0.18042 -0.45104,-0.18042 -0.180419,0.0451 -0.270627,0.27063 -0.405942,0.36084 -0.09021,0.0451 -0.135312,0 -0.180419,0 -0.180418,0 -0.360834,-0.0451 -0.541253,0.0451 -0.180419,0.0451 -0.315734,0.27063 -0.496147,0.36084 -0.135312,0.0451 -0.270627,0 -0.405942,0 -0.180416,0 -0.360835,-0.13531 -0.541254,-0.0902 -0.135315,0.0902 -0.09021,0.45104 -0.27063,0.40594 -0.270627,0 -0.315722,-0.45104 -0.541248,-0.49615 -0.135312,-0.0451 -0.135312,0.31573 -0.270627,0.36084 -0.135315,0.0451 -0.225523,-0.13531 -0.225523,-0.27063 0.0451,-0.13531 0.315734,-0.13531 0.405942,-0.31573 0.0451,-0.13531 0.0451,-0.36084 0,-0.49615 -0.0451,-0.13532 -0.09021,-0.31573 -0.225523,-0.31573 -0.360838,0 -0.676572,0.22552 -1.037401,0.36083 -0.315734,0.0902 -0.676569,0.27063 -0.992303,0.31574 -0.225522,0.0451 -0.451045,0.13531 -0.631455,0 -0.09021,-0.0451 0.135306,-0.22553 0.225514,-0.27063 0.225525,-0.0902 0.541256,0.0451 0.766779,-0.0902 0.180419,-0.18042 0.180419,-0.45104 0.27063,-0.72167 0,-0.0451 0,-0.13531 0.0451,-0.18042 0.180419,-0.31573 0.360832,-0.67657 0.586355,-0.94719 0.270627,-0.36084 0.541254,-0.63146 0.856988,-0.94719 0.135315,-0.13532 0.360835,-0.22553 0.496144,-0.40595 0.270627,-0.22552 0.451046,-0.49614 0.631465,-0.76677 0.180419,-0.22552 0.405942,-0.49615 0.451046,-0.81188 0,-0.18042 -0.135315,-0.36084 -0.270627,-0.45104 -0.27063,-0.13532 -0.586361,0.0451 -0.811884,-0.0902 -0.18041,-0.0902 -0.225517,-0.31574 -0.270621,-0.49615 -0.0451,-0.0902 0.0451,-0.18042 0.0451,-0.31574 -0.0451,-0.18041 -0.135315,-0.36083 -0.225523,-0.54125 -0.135315,-0.27062 -0.270627,-0.49615 -0.360838,-0.81188 -0.0451,-0.27062 -0.0451,-0.54125 -0.09021,-0.81188 -0.0451,-0.18041 0,-0.40594 -0.09021,-0.58636 -0.135312,-0.27062 -0.315731,-0.67656 -0.631459,-0.72167 -0.180419,0 0.225517,0.45105 0.135309,0.63147 -0.09021,0.13531 -0.225517,-0.31574 -0.360829,-0.27063 -0.315733,0.22552 -0.496152,0.63146 -0.721675,0.94719 -0.225523,0.40594 -0.451049,0.81188 -0.676563,1.21782 -0.09021,0.22553 -0.180419,0.40594 -0.270627,0.58636 -0.09021,0.18042 -0.09021,0.40594 -0.225523,0.49615 -0.180419,0.13531 -0.451049,0.22552 -0.676572,0.18042 -0.225523,-0.0451 -0.270627,-0.31574 -0.451037,-0.36084 -0.09021,-0.0451 -0.180422,0.13531 -0.27063,0.13531 -0.09021,0 -0.180419,-0.18041 -0.270627,-0.18041 -0.270627,0.0451 -0.405942,0.36083 -0.631468,0.36083 -0.22552,0.0451 -0.360829,-0.18042 -0.586349,-0.27063 -0.0451,0 -0.135318,0.13532 -0.180422,0.0902 -0.225523,-0.13531 -0.360837,-0.54125 -0.631464,-0.54125 -0.360838,-0.0451 -0.721667,0.36084 -1.082505,0.40594 -0.180416,0 -0.315731,-0.31573 -0.451046,-0.27063 -0.225523,0.0451 -0.405939,0.22553 -0.451046,0.45105 0,0.22552 0.315734,0.40594 0.315734,0.63146 0,0.0902 -0.180419,0.18042 -0.270627,0.13532 -0.22552,-0.0902 -0.360832,-0.40595 -0.586355,-0.45105 -0.09021,-0.0451 0.09021,0.22552 0,0.31573 -0.09021,0.0902 -0.315734,0.18042 -0.496153,0.18042 -0.135315,0 -0.270627,-0.18042 -0.451046,-0.18042 -0.225523,-0.0451 -0.541248,-0.0902 -0.766771,0.0451 -0.09021,0.0451 0.135312,0.27062 0,0.31573 -0.225523,0.13531 -0.586364,0 -0.85699,0.0902 -0.09021,0 0.09021,0.18041 0,0.22552 -0.135312,0.0451 -0.270621,-0.13532 -0.360829,-0.0902 -0.270627,0.13531 -0.315734,0.49615 -0.586361,0.58636 -0.180416,0.0902 -0.451046,-0.0451 -0.631465,-0.13531 -0.270621,-0.13532 -0.541248,-0.31574 -0.721667,-0.54126 -0.135315,-0.13531 -0.180419,-0.31573 -0.225523,-0.49614 0,-0.18042 0.180419,-0.36084 0.135315,-0.54126 -0.0451,-0.13531 -0.315734,-0.18042 -0.360838,-0.31573 -0.09021,-0.22553 -0.135315,-0.54125 -0.135315,-0.76677 0.0451,-0.13532 0.225523,-0.18043 0.270627,-0.27063 0.09021,-0.13532 -0.04509,-0.27063 0.0451,-0.40594 0.135315,-0.18042 0.451049,-0.18042 0.496153,-0.36084 0.09021,-0.27063 -0.09021,-0.49615 -0.135312,-0.76677 -0.0451,-0.18042 -0.135315,-0.36084 -0.180422,-0.49615 -0.09021,-0.0902 -0.135312,-0.22553 -0.22552,-0.27063 -0.09021,-0.0451 -0.270633,0.0451 -0.360841,-0.0451 -0.180419,-0.18042 -0.270627,-0.40593 -0.270627,-0.63146 -0.0451,-0.18042 0.180419,-0.31573 0.135315,-0.49615 -0.0451,-0.0902 -0.225523,-0.18042 -0.360829,-0.18042 -0.135315,0.0451 -0.180422,0.22553 -0.315734,0.31573 -0.09021,0.0451 -0.180419,0.0451 -0.270627,0 -0.135315,-0.0451 -0.225523,-0.31573 -0.27063,-0.22552 -0.09021,0.13532 0.135315,0.27063 0.135315,0.40594 0.0451,0.13532 0.0451,0.27063 -0.0451,0.36084 -0.135315,0.18041 -0.315731,0.31573 -0.541257,0.40593 -0.225514,0.13532 -0.541248,0.13532 -0.76677,0.27063 -0.135312,0.0902 -0.135312,0.31574 -0.270627,0.40595 -0.180419,0.0902 -0.451049,0.0902 -0.631468,0.13531 -0.270621,0.0451 -0.496141,-0.0902 -0.721664,0 -0.225526,0.0902 -0.405942,0.22552 -0.541257,0.40594 -0.0451,0.13531 0.09021,0.27062 0.0451,0.40594 -0.0451,0.0902 -0.180419,0.0451 -0.225523,0 -0.135315,-0.0902 -0.180419,-0.31573 -0.315728,-0.36084 -0.135312,-0.0902 -0.315731,0 -0.451046,-0.0451 -0.270627,-0.0451 -0.541257,-0.13532 -0.766777,-0.27063 -0.180422,-0.0902 -0.225523,-0.45105 -0.451043,-0.45105 -0.22552,0 -0.451042,0.27063 -0.586357,0.49616 -0.09021,0.13531 -0.0451,0.40593 0.09021,0.49614 0.180421,0.13531 0.496149,-0.0902 0.676562,0.0902 0.135315,0.0902 0.09021,0.31573 0.0451,0.49615 -0.0451,0.13531 -0.135307,0.22552 -0.225517,0.36084 -0.0451,0.13531 -0.135315,0.27063 -0.135315,0.45104 0,0.22552 0.0451,0.40594 0.09021,0.63146 0.0451,0.13532 0.09021,0.22552 0.180418,0.31573 0.0451,0.0902 0.180411,0.0902 0.270621,0.0902 0.09021,0.0451 0.225523,0.18042 0.360838,0.13532 0.09021,0 0.180416,-0.18042 0.270627,-0.18042 0.180419,0.0451 0.405942,0.27063 0.270627,0.36084 -0.225523,0.22552 -0.631465,0 -0.856988,0.22552 -0.315725,0.22551 -0.225522,0.81187 -0.541247,1.0374 -0.135315,0.13531 -0.135315,-0.36084 -0.315734,-0.36084 -0.180416,0 -0.225523,0.31573 -0.360835,0.45105 -0.315734,0.27063 -0.631459,0.45104 -0.902089,0.67656 -0.135312,0.13532 -0.180416,0.49615 -0.360835,0.45105 -0.225523,0 -0.09021,-0.40594 -0.27063,-0.54126 -0.135312,-0.0902 -0.315731,-0.13531 -0.451046,0 -0.135315,0.13532 0,0.58636 -0.225514,0.58636 -0.315734,0.0451 -0.49615,-0.31573 -0.76678,-0.49615 -0.225523,-0.13531 -0.496153,-0.22552 -0.631465,-0.45104 -0.09021,-0.0902 0.0451,-0.27063 0,-0.40594 -0.180419,-0.36084 -0.315728,-0.85699 -0.676563,-0.9923 -0.270626,-0.0902 -0.315733,0.54125 -0.58636,0.58636 -0.180419,0.0451 -0.225523,-0.31574 -0.405942,-0.40594 -0.135306,-0.0451 -0.315725,-0.0451 -0.360829,0.0902 -0.0451,0.13532 0.315725,0.40595 0.135312,0.45105 -0.586361,0.22553 -1.217823,0.0902 -1.849285,0.0902 -0.22552,0 -0.586358,-0.18042 -0.676569,0.0451 -0.135312,0.36083 -0.0451,0.81187 0.135315,1.21782 0.0451,0.13531 0.315734,0 0.451046,0 0.135315,-0.0451 0.27063,-0.13532 0.360838,-0.0451 0.135306,0.0902 0.09021,0.31573 0.09021,0.45105 -0.0451,0.13531 -0.135315,0.31573 -0.27063,0.31573 -0.135312,0 -0.225523,-0.31573 -0.405942,-0.31573 -0.225523,0.0451 -0.541254,0.18041 -0.631465,0.40594 -0.135315,0.36084 -0.0451,0.76677 0,1.12761 0.0451,0.13531 0.135315,0.22552 0.270627,0.36083 0.09021,0.0451 0.27063,0.0451 0.315734,0.18042 0.135315,0.13532 0.09021,0.31573 0.180419,0.49615 0.0451,0.13531 0.180416,0.22552 0.180416,0.36083 0,0.22553 -0.135312,0.40594 -0.135312,0.63147 0,0.18042 0.09021,0.40594 0.0451,0.58635 -0.135315,0.9923 -0.315734,2.0297 -0.541257,3.022 -0.09021,0.40594 -0.09021,0.90209 -0.360835,1.17272 -0.135306,0.13532 -0.360832,-0.36084 -0.541251,-0.31573 -0.270627,0.0451 -0.360837,0.40594 -0.631464,0.45105 -0.135315,0.0451 -0.270627,-0.22553 -0.405942,-0.18042 -0.135306,0 -0.180413,0.18042 -0.315725,0.22552 -0.135315,0.0902 -0.315731,-0.0451 -0.451046,0 -0.270627,0.13531 -0.451046,0.36083 -0.676569,0.54125 -0.225526,0.18042 -0.496147,0.27063 -0.676566,0.49615 -0.225523,0.22552 -0.360835,0.54125 -0.451043,0.81188 -0.09021,0.22552 -0.135315,0.45104 -0.180419,0.67656 0,0.18042 0.0451,0.36084 0,0.54126 -0.0451,0.22552 -0.0451,0.49614 -0.225523,0.67656 -0.09021,0.18042 -0.405936,0.0902 -0.496147,0.27063 -0.135312,0.22552 -0.09021,0.49615 -0.09021,0.72168 0,0.13531 0.09021,0.31572 0,0.40593 -0.09021,0.13532 -0.315734,0.0451 -0.360835,0.18042 -0.0451,0.0902 0.04509,0.22552 0.09021,0.31573 0.09021,0.0902 0.225523,0.0902 0.315734,0.18042 0.09021,0.0902 0.0451,0.27063 0.09021,0.36084 0.0451,0.13531 0.09021,0.27062 0.18041,0.36084 z m 34.730428,-13.21561 c 0.135312,-0.22552 0.270627,-0.49615 0.451043,-0.72167 0.135315,-0.13532 0.360832,-0.54125 0.496147,-0.40594 0.180416,0.22552 -0.0451,0.58636 -0.135315,0.81188 -0.0902,0.27063 -0.270621,0.54126 -0.496144,0.72167 -0.180419,0.18041 -0.496153,0.63146 -0.676572,0.40594 -0.225523,-0.22553 0.225526,-0.54125 0.360841,-0.81188 z m 1.488444,-0.63146 c -0.0451,0.18042 0.135314,0.36084 0.135314,0.54125 -0.0451,0.18042 -0.270626,0.27063 -0.270626,0.40594 -0.0451,0.22552 0,0.49615 0.135312,0.67657 0.09021,0.0902 0.31573,0 0.405941,0.0902 0.09021,0.0902 -0.09021,0.27063 0,0.31573 0.225523,0.0902 0.451049,0 0.631459,0.0451 0.135312,0 0.225523,0.13531 0.360838,0.0902 0.09021,0 0.0451,-0.18042 0.135312,-0.27063 0.180419,-0.0902 0.360838,-0.0451 0.496153,-0.13531 0.180419,-0.0451 0.270627,-0.22553 0.451046,-0.22553 0.0902,0 0.135306,0.18042 0.270621,0.18042 0.09021,0 0.225523,-0.0902 0.270627,-0.22552 0,-0.13532 -0.225523,-0.36083 -0.135312,-0.49615 0.135312,-0.22552 0.49615,-0.22552 0.676569,-0.45104 0.180419,-0.22553 0.586352,-0.54126 0.405942,-0.81189 -0.225523,-0.31572 -0.811884,-0.40593 -1.172722,-0.22551 -0.27063,0.18041 0,0.72166 -0.225523,0.99229 -0.0902,0.13532 -0.180413,-0.31573 -0.180413,-0.49615 0,-0.0902 0.225517,-0.0451 0.225517,-0.13531 0,-0.13532 -0.09021,-0.27063 -0.18041,-0.31573 -0.315734,-0.13531 -0.631465,-0.0902 -0.947199,-0.0902 -0.270627,-0.0451 -0.586355,-0.0451 -0.856982,0 -0.135315,0.0451 -0.225523,0.18041 -0.360835,0.27062 -0.09021,0.0902 -0.270629,0.13532 -0.270629,0.27063 z m 0.85699,-0.81188 c 0.270621,-0.0451 0.541248,0.0451 0.721664,-0.0902 0.135315,-0.0902 0.270627,-0.36083 0.180419,-0.45104 -0.225523,-0.18042 -0.586361,0.0451 -0.811884,-0.0902 -0.0902,-0.0902 0.27063,-0.40594 0.135315,-0.40594 -0.270621,0 -0.496144,0.18041 -0.676563,0.36083 -0.135312,0.0902 -0.270627,0.22553 -0.270627,0.40594 -0.0451,0.13532 0,0.31574 0.135315,0.36084 0.09021,0.0451 0.09021,-0.18042 0.135312,-0.27063 0.09021,-0.0902 0.09021,-0.22552 0.225523,-0.27062 0.0451,-0.0451 0.180419,0.0451 0.135315,0.13531 0,0.13531 -0.27063,0.22552 -0.225523,0.31573 0,0.13531 0.225523,0 0.315734,0 z m -1.217828,-0.0451 c -0.180416,0.0451 -0.09021,0.45104 0,0.58636 0.09021,0.13531 0.360838,0.0451 0.360838,-0.0451 0,-0.22552 -0.135312,-0.58635 -0.360838,-0.54125 z"
         id="path4646" />
      <text
         transform="matrix(0.32893535,0,0.0345725,0.32893535,-139.75929,259.81267)"
         id="text5140"
         y="-57.089619"
         x="493.23587"
         style="font-style:italic;font-variant:normal;font-weight:normal;font-stretch:normal;font-size:123.47222137px;line-height:1.25;font-family:'Handel Gothic Italic';-inkscape-font-specification:'Handel Gothic Italic, Italic';font-variant-ligatures:normal;font-variant-caps:normal;font-variant-numeric:normal;font-feature-settings:normal;text-align:start;letter-spacing:0px;word-spacing:0px;writing-mode:lr-tb;text-anchor:start;fill:#24314a;fill-opacity:1;stroke:none;stroke-width:0.26458332;stroke-opacity:1;filter:url(#filter4847)"
         xml:space="preserve"><tspan
           style="font-style:italic;font-variant:normal;font-weight:normal;font-stretch:normal;font-size:123.47222137px;font-family:'Handel Gothic Italic';-inkscape-font-specification:'Handel Gothic Italic, Italic';font-variant-ligatures:normal;font-variant-caps:normal;font-variant-numeric:normal;font-feature-settings:normal;text-align:start;writing-mode:lr-tb;text-anchor:start;fill:#24314a;fill-opacity:1;stroke:none;stroke-width:0.26458332;stroke-opacity:1"
           y="-57.089619"
           x="493.23587"
           id="tspan5138"
           sodipodi:role="line">php</tspan></text>
      <text
         transform="matrix(0.36533741,0,0.03839851,0.36533741,-85.355436,261.50965)"
         id="text5140-1"
         y="-57.089619"
         x="493.23587"
         style="font-style:italic;font-variant:normal;font-weight:normal;font-stretch:normal;font-size:123.47222137px;line-height:1.25;font-family:'Handel Gothic Italic';-inkscape-font-specification:'Handel Gothic Italic, Italic';font-variant-ligatures:normal;font-variant-caps:normal;font-variant-numeric:normal;font-feature-settings:normal;text-align:start;letter-spacing:0px;word-spacing:0px;writing-mode:lr-tb;text-anchor:start;fill:#415f92;fill-opacity:1;stroke:none;stroke-width:0.26458332;stroke-opacity:1;filter:url(#filter4847-5)"
         xml:space="preserve"><tspan
           style="font-style:italic;font-variant:normal;font-weight:normal;font-stretch:normal;font-size:123.47222137px;font-family:'Handel Gothic Italic';-inkscape-font-specification:'Handel Gothic Italic, Italic';font-variant-ligatures:normal;font-variant-caps:normal;font-variant-numeric:normal;font-feature-settings:normal;text-align:start;writing-mode:lr-tb;text-anchor:start;fill:#415f92;fill-opacity:1;stroke:none;stroke-width:0.26458332;stroke-opacity:1"
           y="-57.089619"
           x="493.23587"
           id="tspan5138-3"
           sodipodi:role="line">br</tspan></text>
      <ellipse
         transform="matrix(0.23619081,0.97170669,-0.87335362,0.48708671,0,0)"
         ry="56.215935"
         rx="41.480354"
         cy="-9.0616722"
         cx="202.3521"
         id="path4895"
         style="opacity:1;fill:url(#linearGradient4903);fill-opacity:1;stroke:none;stroke-width:0.34888759;stroke-miterlimit:4;stroke-dasharray:none;stroke-opacity:1" />
    </g>
  </g>
</svg>
