<?xml version="1.0" encoding="UTF-8" standalone="no"?>
<!-- Created with Inkscape (http://www.inkscape.org/) -->

<svg
   xmlns:dc="http://purl.org/dc/elements/1.1/"
   xmlns:cc="http://creativecommons.org/ns#"
   xmlns:rdf="http://www.w3.org/1999/02/22-rdf-syntax-ns#"
   xmlns:svg="http://www.w3.org/2000/svg"
   xmlns="http://www.w3.org/2000/svg"
   xmlns:xlink="http://www.w3.org/1999/xlink"
   xmlns:sodipodi="http://sodipodi.sourceforge.net/DTD/sodipodi-0.dtd"
   xmlns:inkscape="http://www.inkscape.org/namespaces/inkscape"
   width="600"
   height="600"
   viewBox="0 0 158.74999 158.75"
   version="1.1"
   id="svg8"
   inkscape:version="0.92.3 (2405546, 2018-03-11)"
   sodipodi:docname="logo.svg"
   inkscape:export-filename="/home/william/Development/Projects/PhpBR/reference/visual-identity/background/test.png"
   inkscape:export-xdpi="32"
   inkscape:export-ydpi="32">
  <defs
     id="defs2">
    <linearGradient
       inkscape:collect="always"
       id="linearGradient4901">
      <stop
         style="stop-color:#ffffff;stop-opacity:0.01123596"
         offset="0"
         id="stop4897" />
      <stop
         style="stop-color:#ffffff;stop-opacity:0.83707863"
         offset="1"
         id="stop4899" />
    </linearGradient>
    <linearGradient
       inkscape:collect="always"
       id="linearGradient4889">
      <stop
         style="stop-color:#e6e6e6;stop-opacity:1;"
         offset="0"
         id="stop4885" />
      <stop
         style="stop-color:#ffffff;stop-opacity:0.51123595"
         offset="1"
         id="stop4887" />
    </linearGradient>
    <filter
       style="color-interpolation-filters:sRGB"
       inkscape:label="Drop Shadow"
       id="filter5112">
      <feFlood
         flood-opacity="0.498039"
         flood-color="rgb(0,0,0)"
         result="flood"
         id="feFlood5102" />
      <feComposite
         in="flood"
         in2="SourceGraphic"
         operator="in"
         result="composite1"
         id="feComposite5104" />
      <feGaussianBlur
         in="composite1"
         stdDeviation="10"
         result="blur"
         id="feGaussianBlur5106" />
      <feOffset
         dx="6"
         dy="10"
         result="offset"
         id="feOffset5108" />
      <feComposite
         in="SourceGraphic"
         in2="offset"
         operator="over"
         result="composite2"
         id="feComposite5110" />
    </filter>
    <filter
       style="color-interpolation-filters:sRGB"
       inkscape:label="Drop Shadow"
       id="filter4847">
      <feFlood
         flood-opacity="0.380392"
         flood-color="rgb(0,0,0)"
         result="flood"
         id="feFlood4837" />
      <feComposite
         in="flood"
         in2="SourceGraphic"
         operator="in"
         result="composite1"
         id="feComposite4839" />
      <feGaussianBlur
         in="composite1"
         stdDeviation="2"
         result="blur"
         id="feGaussianBlur4841" />
      <feOffset
         dx="3"
         dy="3"
         result="offset"
         id="feOffset4843" />
      <feComposite
         in="SourceGraphic"
         in2="offset"
         operator="over"
         result="composite2"
         id="feComposite4845" />
    </filter>
    <filter
       style="color-interpolation-filters:sRGB"
       inkscape:label="Drop Shadow"
       id="filter4847-5">
      <feFlood
         flood-opacity="0.380392"
         flood-color="rgb(0,0,0)"
         result="flood"
         id="feFlood4837-0" />
      <feComposite
         in="flood"
         in2="SourceGraphic"
         operator="in"
         result="composite1"
         id="feComposite4839-8" />
      <feGaussianBlur
         in="composite1"
         stdDeviation="2"
         result="blur"
         id="feGaussianBlur4841-0" />
      <feOffset
         dx="3"
         dy="3"
         result="offset"
         id="feOffset4843-4" />
      <feComposite
         in="SourceGraphic"
         in2="offset"
         operator="over"
         result="composite2"
         id="feComposite4845-1" />
    </filter>
    <linearGradient
       inkscape:collect="always"
       xlink:href="#linearGradient4889"
       id="linearGradient4891"
       x1="571.62158"
       y1="-224.43987"
       x2="981.90753"
       y2="179.56566"
       gradientUnits="userSpaceOnUse" />
    <linearGradient
       inkscape:collect="always"
       xlink:href="#linearGradient4901"
       id="linearGradient4903"
       x1="385.59775"
       y1="-887.1106"
       x2="982.90479"
       y2="-848.96362"
       gradientUnits="userSpaceOnUse"
       gradientTransform="matrix(0.93463424,0,0,0.93463424,-202.3193,-83.236127)" />
    <filter
       style="color-interpolation-filters:sRGB"
       inkscape:label="Drop Shadow"
       id="filter4847-59">
      <feFlood
         flood-opacity="0.380392"
         flood-color="rgb(0,0,0)"
         result="flood"
         id="feFlood4837-9" />
      <feComposite
         in="flood"
         in2="SourceGraphic"
         operator="in"
         result="composite1"
         id="feComposite4839-0" />
      <feGaussianBlur
         in="composite1"
         stdDeviation="2"
         result="blur"
         id="feGaussianBlur4841-7" />
      <feOffset
         dx="3"
         dy="3"
         result="offset"
         id="feOffset4843-6" />
      <feComposite
         in="SourceGraphic"
         in2="offset"
         operator="over"
         result="composite2"
         id="feComposite4845-3" />
    </filter>
    <filter
       style="color-interpolation-filters:sRGB"
       inkscape:label="Drop Shadow"
       id="filter4847-5-1">
      <feFlood
         flood-opacity="0.380392"
         flood-color="rgb(0,0,0)"
         result="flood"
         id="feFlood4837-0-5" />
      <feComposite
         in="flood"
         in2="SourceGraphic"
         operator="in"
         result="composite1"
         id="feComposite4839-8-0" />
      <feGaussianBlur
         in="composite1"
         stdDeviation="2"
         result="blur"
         id="feGaussianBlur4841-0-6" />
      <feOffset
         dx="3"
         dy="3"
         result="offset"
         id="feOffset4843-4-5" />
      <feComposite
         in="SourceGraphic"
         in2="offset"
         operator="over"
         result="composite2"
         id="feComposite4845-1-0" />
    </filter>
  </defs>
  <sodipodi:namedview
     id="base"
     pagecolor="#ffffff"
     bordercolor="#666666"
     borderopacity="1.0"
     inkscape:pageopacity="0.0"
     inkscape:pageshadow="2"
     inkscape:zoom="0.35000001"
     inkscape:cx="784.78577"
     inkscape:cy="245.83457"
     inkscape:document-units="mm"
     inkscape:current-layer="layer1"
     showgrid="false"
     inkscape:window-width="1340"
     inkscape:window-height="712"
     inkscape:window-x="26"
     inkscape:window-y="28"
     inkscape:window-maximized="1"
     units="px" />
  <metadata
     id="metadata5">
    <rdf:RDF>
      <cc:Work
         rdf:about="">
        <dc:format>image/svg+xml</dc:format>
        <dc:type
           rdf:resource="http://purl.org/dc/dcmitype/StillImage" />
        <dc:title></dc:title>
      </cc:Work>
    </rdf:RDF>
  </metadata>
  <g
     inkscape:label="Layer 1"
     inkscape:groupmode="layer"
     id="layer1"
     transform="translate(0,-138.25)">
    <g
       id="g881"
       inkscape:export-xdpi="8.4666662"
       inkscape:export-ydpi="8.4666662"
       transform="matrix(0.24860627,0,0,0.24860627,-91.790651,245.23929)">
      <circle
         r="250"
         cy="-111.22358"
         cx="686.18384"
         id="path4656"
         style="opacity:1;fill:url(#linearGradient4891);fill-opacity:1;stroke:none;stroke-width:0.5705443;stroke-miterlimit:4;stroke-dasharray:none;stroke-opacity:1;filter:url(#filter5112)" />
      <path
         style="fill:#6082bb;fill-opacity:0.28921569;stroke:none;stroke-width:0.30426306"
         inkscape:connector-curvature="0"
         d="m 604.62234,-211.79409 c 0.30427,0.6085 0.9128,0.91277 1.36919,1.36916 0.30424,0.4564 0.60851,1.06492 0.91277,1.67346 0.30426,0.60853 0.9128,1.06492 0.9128,1.67345 0,0.4564 -0.76066,0.76066 -0.9128,1.21703 0,0.30427 0,0.60854 0.15211,1.06493 l 0.4564,0.4564 c 0.60853,0 0.76066,-0.60853 1.21705,-0.91279 h 0.76067 c 0.30426,0.1521 0.30426,0.76065 0.60852,0.76065 0.15211,0.15212 0.4564,-0.45639 0.76067,-0.30426 0.30426,0 0.60852,0.15211 0.76063,0.4564 0.4564,0.60852 0.30427,1.36919 0.76066,1.97771 0.30427,0.4564 0.9128,0.60853 1.52133,0.76067 0.45639,0 1.06492,-0.15211 1.36919,-0.4564 0.45639,-0.4564 0.45639,-1.06493 0.76065,-1.36919 0.30427,-0.30427 0.76067,-0.15211 1.06491,-0.30427 0.30427,-0.1521 0.60853,-0.45639 1.06493,-0.60852 0.15211,-0.15211 0.60853,-0.60853 0.76065,-0.4564 0.4564,0.60853 0.30427,1.36919 0.30427,1.97772 0.15211,1.82558 -0.45639,3.80328 0.15211,5.47674 0.15211,0.60852 1.06492,0.45639 1.67346,0.30426 0.60852,-0.15211 1.06492,-0.76066 1.67342,-0.76066 0.76066,-0.15211 1.52133,0 2.12985,0 0.91279,0.1521 1.97772,0.1521 2.89049,0.1521 1.06493,0.15211 2.12986,0.30427 3.19478,0 0.45639,0 0.91279,-0.60852 1.06492,-1.06492 0.30426,-0.30427 0,-0.9128 0.30426,-1.21706 0.15212,-0.15211 0.76065,-0.15211 1.06491,-0.15211 0.30426,0 0.45639,0.4564 0.60853,0.30427 0.60852,-0.15211 1.06493,-0.60853 1.36919,-0.91279 0.4564,-0.45638 0.60853,-1.21704 1.06493,-1.5213 0.30426,-0.15211 0.60852,0.45639 0.76065,0.30426 0.4564,-0.30426 0.60854,-0.91279 0.9128,-1.36919 0.45637,-0.4564 1.0649,-0.91279 1.5213,-1.06492 0.76066,-0.30427 1.67345,-0.4564 2.43411,-0.60853 0.45639,0 0.76066,-0.15211 1.21706,-0.15211 0.4564,0 0.91277,0.15211 1.36917,0.15211 0.30426,0 0.60853,-0.30426 0.91279,-0.30426 0.15211,-0.15211 0.45639,-0.4564 0.60853,-0.15211 0.4564,0.45639 0.60852,1.36918 0.60852,1.97772 0,0.60852 -0.60852,0.91279 -0.60852,1.36919 -0.15211,0.60852 0,1.21705 0.1521,1.67342 0.15211,0.4564 0.60853,0.60853 0.76067,1.06493 0.1521,0.4564 0.1521,0.91279 0,1.36919 -0.15211,0.30426 -0.76067,0.15211 -0.76067,0.4564 0,0.60853 0.30427,1.06492 0.4564,1.52132 0.30427,0.6085 0.30427,1.21703 0.76067,1.82556 0.45639,0.76066 1.06491,1.52132 1.82556,1.97771 0.60852,0.4564 1.36919,0.4564 1.97771,0.76067 0.30427,0.30426 0.15211,1.06492 0.60853,1.36919 0.4564,0.30424 1.06493,0.30424 1.52133,0.1521 0.60853,0 1.06492,-0.1521 1.5213,-0.30423 0.1521,0 0.30426,-0.30427 0.60852,-0.30427 0.60853,0.15211 1.36919,0.6085 1.97772,0.91277 0.4564,0.30426 0.60853,0.9128 1.06493,1.21706 0.45639,0.15211 0.91279,-0.15211 1.21705,0.15211 0.60851,0.15211 0.91277,0.91279 1.5213,1.06493 0.4564,0.30426 1.06493,0.45639 1.52133,0.45639 0.30426,0.15211 0.76065,-0.15211 1.06492,0.15211 0.60853,0.45639 0.91279,1.36919 1.67343,1.82558 0.4564,0.30425 1.21706,0.45637 1.97771,0.30425 0.30427,-0.15211 0.30427,-0.91277 0.76067,-0.91277 0.60852,-0.15211 1.06492,0.30426 1.67345,0.45639 0.4564,0.30424 0.91277,0.6085 1.36917,0.91277 0.60853,0.30427 1.52132,0.4564 1.82558,1.06492 0.30427,0.4564 -0.30426,1.21707 -0.1521,1.82559 0.1521,0.76067 0.76066,1.3692 1.06492,2.12983 0.15211,0.4564 0,1.21706 0,1.82559 0,0.15211 0.15211,0.30426 0,0.45639 -0.4564,0.15211 -0.91279,-0.15211 -1.21706,0 -0.15211,0.15211 0,0.60853 0.15212,0.76066 0.1521,0.30427 0.60852,0.4564 0.76065,0.91279 0.30427,0.60854 0.4564,1.36917 0.4564,2.12984 0.15211,0.60852 0,1.21705 0.15211,1.67345 0.1521,0.60853 0.60852,1.21706 1.06492,1.36919 1.21704,0.30427 2.58623,0 3.95542,0 1.21705,0.15211 2.43409,0.15211 3.65115,0.15211 0.30426,0.15211 1.06492,-0.30426 1.06492,0.15211 0.15211,0.4564 -0.76066,0.76066 -0.91279,1.36916 0,0.4564 0.4564,0.76066 0.60852,1.06492 0.30427,0.60854 0.30427,1.36919 0.60854,1.82559 0.30426,0.4564 0.76065,0.60853 1.21705,0.91279 0.4564,0.4564 0.76067,0.9128 1.21706,1.36918 0.45638,0.45639 0.91277,1.06492 1.21703,1.67345 0.30427,0.60853 0.30427,1.21705 0.30427,1.97772 0,0.60852 -0.15211,1.21705 -0.4564,1.82556 -0.1521,0.76066 -0.60852,1.52132 -0.91277,2.28198 -0.1521,0.9128 -0.4564,1.67345 -0.76066,2.43412 -0.15211,0.45637 -0.60853,1.0649 -0.45639,1.52129 0.15211,0.4564 0.76065,0.4564 1.06492,0.60853 0.15211,0.30426 0.30424,0.60853 0.15211,0.76066 -0.15211,0.30427 -0.60853,0 -0.9128,0.30427 -0.30426,0.30426 -0.45639,0.91279 -0.30426,1.36919 0,0.60852 0.4564,1.06492 0.60853,1.67343 0.15211,0.30426 0.30426,0.60853 0.4564,1.06493 0.1521,0.30426 0.4564,0.60852 0.4564,1.06492 0.1521,0.60853 0.1521,1.21706 0,1.97772 0,0.30426 -0.15212,0.60853 -0.30427,1.0649 0,0.30426 0.15211,0.76066 0.15211,1.06493 0,0.45639 -0.30426,0.91279 -0.30426,1.36919 0,0.45639 0,1.06492 0.45639,1.36919 0.45637,0.1521 0.91277,-0.4564 1.36917,-0.4564 0.45639,0 1.06493,0.1521 1.67345,0.1521 0.4564,0.15211 1.06493,0 1.52132,0.15211 0.4564,0 0.76066,0.30427 1.06491,0.30427 0.30426,0.15211 0.76065,0.30426 1.06492,0.30426 0.30427,-0.15211 0.30427,-1.06492 0.76066,-0.91279 0.4564,0 0.4564,0.76066 0.9128,1.06492 0.60852,0.30427 1.52132,0 2.12984,0.30427 0.45638,0.45637 0.76065,1.36917 0.91277,1.9777 0.4564,1.21705 0.4564,2.28198 0.76067,3.49904 0.1521,0.6085 0.1521,1.5213 0.76066,1.97769 0.30426,0.30427 1.06492,0.30427 1.67345,0.4564 0.76066,0 1.5213,-0.30427 2.12983,-0.15211 0.60852,0.15211 1.52132,0.4564 1.67345,1.06493 0.30427,0.76066 -0.60853,1.52132 -0.60853,2.28198 0,0.6085 0.4564,1.0649 0.30427,1.67343 0,0.4564 -0.4564,0.91279 -0.4564,1.52132 -0.15211,0.30427 0.4564,0.4564 0.30426,0.76066 -0.15211,0.30427 -0.60853,0.15211 -0.76065,0.4564 -0.15212,0.30426 -0.15212,0.76066 0,1.21703 0,0.4564 0,0.9128 0.45639,1.06493 0.60853,0.15211 1.52133,-0.60853 2.12985,-0.30427 0.76067,0.4564 1.06493,1.52132 1.36919,2.28199 0.30427,0.45639 0.45637,1.06492 0.45637,1.52132 -0.1521,0.30426 -0.6085,0.45639 -0.6085,0.76064 -0.15211,0.45639 0.1521,0.91279 0.1521,1.52132 0,0.45639 -0.1521,0.91279 -0.30426,1.36919 -0.30426,0.60853 -0.45639,1.06492 -0.91279,1.52132 -0.30426,0.30426 -0.60853,0.4564 -1.06493,0.60853 -0.45639,0.15211 -1.06492,0 -1.67345,0.15211 -0.60853,0.30424 -1.06493,0.91277 -1.5213,1.21703 -0.4564,0.30426 -0.76066,0.76066 -1.21705,1.06493 -0.60853,0.45639 -1.36919,0.76066 -2.12986,1.21705 -0.30426,0.30427 -0.4564,0.76066 -0.91279,1.21706 -0.30426,0.4564 -0.76064,0.91277 -1.0649,1.36917 -0.30427,0.30426 -0.45639,0.60853 -0.76066,0.91279 -0.4564,0.4564 -0.9128,0.60853 -1.36919,0.91279 -0.30426,0.4564 -0.4564,1.06493 -0.76066,1.36919 -0.30427,0.456397 -0.76067,0.608527 -1.06493,1.064927 -0.30426,0.45639 -0.30426,1.21703 -0.76066,1.67343 -0.45637,0.45639 -1.21704,0.30426 -1.5213,0.76066 -0.45639,0.30426 -0.45639,0.91279 -0.60853,1.36919 -0.1521,0.30426 -0.4564,0.76066 -0.1521,0.91279 0.30426,0.30427 0.76066,-0.30426 1.06492,-0.15211 0.30427,0 0.45639,0.4564 0.60853,0.4564 0.30426,0 0.45637,-0.30426 0.60851,-0.4564 0.1521,-0.15211 0.1521,-0.45639 0.30426,-0.60853 0.30426,-0.1521 0.76066,-0.30426 1.06493,-0.30426 0.30426,0 0.30426,0.4564 0.60852,0.60853 0.15211,0.15211 0.4564,0.15211 0.60853,0.30426 0.30426,0.30427 0.15211,0.76066 0.4564,1.06493 0.30426,0.30424 0.91279,0.30424 1.06492,0.45637 0.30427,0.30427 0.30427,0.760663 0.4564,1.064927 0.15211,0.456397 0.30426,0.912794 0.4564,1.064925 0.15211,0.152109 0.45637,0.152109 0.76063,0 0.15211,0 0.4564,-0.152108 0.76067,-0.304264 0.1521,-0.152108 0.30426,-0.152108 0.30426,-0.304264 0.15211,-0.152109 0,-0.456397 0,-0.608529 0.15211,-0.152108 0.30426,-0.152108 0.4564,-0.152108 0.30426,0 0.91279,0 0.91279,0.304264 0.15211,0.304264 -0.4564,0.608529 -0.60853,0.912793 0,0.304264 0.15211,0.608528 0.30427,0.760661 0.45639,0.608529 1.06492,1.217058 1.82558,1.521322 0.4564,0.304265 1.21703,0.304265 1.67343,0.608529 0.4564,0.304264 0.91279,0.760637 1.21706,1.064901 0.30426,0.456397 0.4564,0.912794 0.9128,1.217058 0.45639,0.456396 1.21705,0.456396 1.67345,1.064925 0.60853,0.456397 0.60853,1.36919 1.0649,1.977718 1.21706,1.673431 2.89051,0.760638 1.67345,2.738357 0,0.152109 -0.30426,0.304264 -0.45639,0.456396 -0.30427,0.152109 -0.4564,0.152109 -0.60854,0.304265 -0.1521,0.304264 -0.30426,0.456397 -0.30426,0.760661 0,0.304264 -0.15211,0.760661 0,1.217058 0,0.304264 0.30426,0.608505 0.4564,0.760637 0.30426,0.152109 0.4564,0.152109 0.76066,0 0.15211,0 0.30427,-0.304265 0.45639,-0.456373 0.4564,-0.152109 0.9128,-0.304264 1.21707,-0.456397 0.45639,-0.304264 1.06492,-0.608529 1.36919,-1.064925 0.30426,-0.304264 0.30426,-0.760661 0.30426,-1.217058 0.15211,-0.304264 0.15211,-0.608529 0.15211,-0.912793 0.15211,-0.304265 0.30426,-0.608529 0.30426,-0.912794 0.30425,-0.608528 0.76064,-1.217034 0.76064,-1.825562 0.15211,-0.304264 -0.30427,-0.608529 -0.30427,-1.064926 0,-0.304264 0.30427,-0.456396 0.30427,-0.608528 0.15211,-0.456397 0.15211,-0.912794 0.4564,-1.36919 0.30426,-0.608529 0.91279,-1.369166 1.36919,-1.977694 0.30426,-0.304265 0.76066,-0.304265 0.91279,-0.456398 0.30426,-0.152108 0.4564,-0.304264 0.60852,-0.608528 0.15212,-0.304265 0,-0.760661 0.15212,-1.217058 0.15211,-0.456396 0.60853,-0.760661 0.76065,-1.217057 0.15211,-0.304264 0.4564,-0.456397 0.4564,-0.912791 0,-0.15211 -0.30426,-0.30427 -0.30426,-0.45638 -0.30426,-0.30426 -0.4564,-0.60852 -0.60853,-1.06492 0,-0.15211 -0.15211,-0.30427 0,-0.4564 0.45639,0 0.91279,0 1.21704,0.30427 0.45639,0.45639 0.30426,1.06492 0.60852,1.5213 0.30427,0.30426 0.60853,0.45639 0.76067,0.45639 0.30426,0 0.1521,-0.30426 0.1521,-0.45639 0.15211,-0.15211 0,-0.60851 0.15211,-0.45638 0.30427,0 0.30427,0.45638 0.60853,0.60851 0.15211,0 0.30426,-0.45638 0.4564,-0.30427 0.15211,0.15211 0.15211,0.4564 0,0.760664 -0.15211,0.152109 -0.76066,0 -0.9128,0.304264 -0.15211,0.152109 0.15211,0.608529 0,0.912794 -0.15211,0.304264 -0.45639,0.456396 -0.76065,0.912793 -0.15212,0.152108 0,0.456396 -0.30427,0.608529 -0.45638,0.304264 -1.21703,0 -1.5213,0.456396 -0.30427,0.456397 0.30427,1.217058 0.15211,1.673431 -0.15211,0.304264 -0.76066,0.152108 -1.06493,0.304264 -0.30426,0.152109 -0.4564,0.456397 -0.60852,0.608529 -0.4564,0.456397 -1.21707,0.760661 -1.67346,1.217057 -0.15211,0.304265 -0.15211,0.760662 0,1.064926 0.30427,0.304264 0.91279,0.456396 1.21706,0.152108 0.30426,0 0.30426,-0.608529 0.60852,-0.912793 0.30427,-0.304264 0.76067,-0.608529 1.06493,-0.912793 0.60853,-0.304264 1.06493,-0.608528 1.52132,-1.064925 0.45638,-0.304265 0.60851,-0.760637 0.91277,-1.064902 0.4564,-0.456397 0.9128,-0.456397 1.21706,-0.760661 0.45639,-0.608529 0.76066,-1.217058 1.06493,-1.977719 0.30426,-0.304264 0.60853,-0.76066 0.60853,-1.217057 0.30426,-0.608525 0.30426,-1.217035 0.45639,-1.825565 0,-0.15211 -0.15211,-0.45639 0,-0.60853 0.15211,-0.30426 0.60853,-0.30426 0.76066,-0.60853 0.15211,-0.1521 0.15211,-0.45639 0.30426,-0.60852 0.30427,-0.4564 0.76065,-0.4564 0.91277,-0.9128 0.15211,-0.30426 -0.30426,-0.76066 -0.30426,-1.06492 0,-0.15211 0,-0.4564 0.15211,-0.4564 0.30426,0 0.60853,0.30427 1.06492,0.30427 0.30427,-0.15211 0.4564,-0.60853 0.60853,-0.76064 0.30426,-0.4564 0.60853,-0.76066 0.9128,-1.06493 0.60853,-0.30426 1.21706,-0.30426 1.82558,-0.608527 0.30427,-0.30426 0.60853,-0.76066 0.91277,-1.21705 0.15211,-0.30427 0.4564,-0.60853 0.60853,-0.9128 0.15211,-0.60853 0,-1.21705 0.15211,-1.67343 0.15211,-0.76066 0.60853,-1.36919 0.60853,-2.12985 0.15211,-0.45639 -0.30427,-0.60853 -0.30427,-1.06492 0.15212,-0.4564 0.76066,-0.9128 0.76066,-1.52133 0,-0.30426 -0.45639,-0.6085 -0.45639,-0.91276 -0.15211,-0.60853 -0.15211,-1.21706 -0.15211,-1.82559 0,-0.60853 0,-1.06493 0.15211,-1.67346 0,-0.76066 0.15211,-1.36918 0.45639,-2.12982 0.15211,-0.4564 0.9128,-0.60853 0.9128,-1.21706 0,-0.30426 -0.60853,-0.4564 -0.9128,-0.76066 v -0.4564 c 0.15211,-0.15211 0.30427,-0.30426 0.4564,-0.45639 0.60853,0 1.21706,1.06492 1.82559,0.91279 0.91279,-0.15211 0.76066,-1.52132 1.21703,-2.12985 0.60854,-0.60851 1.21706,-0.91277 1.97772,-1.36917 0.76066,-0.60853 1.67346,-1.06492 2.58625,-1.67345 0.4564,-0.30427 0.91277,-0.76066 1.36916,-1.06493 0.30427,-0.30426 0.60854,-0.60853 1.06493,-0.76066 0.4564,-0.30426 1.06492,-0.45639 1.67345,-0.76066 0.4564,-0.30426 0.9128,-0.91277 1.52133,-0.91277 0.6085,-0.15211 1.36916,0.30427 1.97769,0.30427 0.60853,0 1.36919,0 1.82559,-0.30427 0.60852,-0.30426 0.76066,-1.06492 1.21705,-1.36919 0.4564,-0.45639 1.21704,-0.45639 1.67343,-0.91279 0.30427,-0.30427 0.15211,-0.76066 0.4564,-1.21706 0.15211,-0.30426 0.30427,-0.60853 0.60853,-0.76066 0.4564,0 0.91279,0.30426 1.36919,0.4564 0.30427,0 0.76066,0.30426 1.21706,0.30426 0.30426,0 0.60852,-0.60853 1.0649,-0.76066 0.30427,0 0.76066,0 1.06492,0.15211 0.30427,0.15211 0.30427,0.60853 0.60854,0.91279 0.1521,0.15211 0.45639,0.30427 0.76065,0.30427 0.76066,-0.15211 1.67346,-0.15211 2.28199,-0.60853 0.30426,-0.15211 0.15211,-0.76066 0.45637,-0.9128 0.30426,0 0.4564,0.60853 0.76066,0.76067 0.4564,0.1521 1.21706,0.1521 1.67346,0.30426 0.45639,0.15211 0.60853,0.76066 0.91279,0.60853 0.76066,-0.15211 1.52132,-0.60853 1.97772,-1.21706 0.30424,-0.4564 0,-1.21703 0.30424,-1.5213 0.30426,-0.45639 0.91279,-0.45639 1.21705,-0.76066 1.06493,-0.4564 2.12986,-0.76066 2.89052,-1.52132 0.30426,-0.15211 0.15211,-0.60853 0.15211,-0.91279 0,-0.30426 -0.4564,-0.30426 -0.4564,-0.45641 0,-0.30426 0.30426,-0.76065 0.60853,-0.76065 0.30426,0 0.60853,0.76065 0.76064,0.45639 0.30426,-0.30426 -0.15211,-0.91277 0,-1.5213 0,-0.1521 0.15211,-0.45639 0.30426,-0.76066 0.45639,-0.60853 0.91279,-1.21705 1.52132,-1.82558 0.4564,-0.60853 1.21706,-1.21706 1.67345,-1.82559 0.15211,-0.30424 0.15211,-0.76063 0.4564,-1.0649 0.60853,-0.76066 1.36916,-1.67345 1.9777,-2.43412 0.76065,-0.76066 1.52132,-1.36919 1.97772,-2.12982 0.45639,-0.76066 0.45639,-1.67345 0.60853,-2.58625 0.1521,-0.60853 0,-1.36919 0.1521,-2.12985 0.15211,-0.76064 0.30427,-1.52129 0.76067,-2.12983 0.30426,-0.91279 0.91279,-1.67345 1.36919,-2.43411 0.45637,-0.4564 1.06489,-0.9128 1.21703,-1.5213 0.30426,-0.60853 0,-1.36919 0.15211,-1.97772 0.1521,-1.36919 0.60852,-2.58625 1.06492,-3.65114 0.30427,-1.06493 0.91279,-1.97772 1.21706,-2.89052 0.1521,-0.30427 0.4564,-0.60853 0.4564,-0.91279 0,-0.60853 -0.30427,-1.06493 -0.30427,-1.67344 0,-0.45639 0.45639,-0.91279 0.45639,-1.36919 -0.1521,-0.76065 -0.76065,-1.36918 -0.76065,-2.12984 0,-0.60853 0.30426,-1.36919 0.60853,-1.9777 0.1521,-1.06493 0.76066,-1.97772 0.76066,-2.89051 0,-0.9128 -0.9128,-1.52132 -0.9128,-2.43409 0,-0.76066 0.60853,-1.52132 0.9128,-2.28198 0.15211,-0.4564 0.15211,-0.91279 0.30426,-1.21706 0.30427,-0.30426 0.91277,-0.4564 0.91277,-0.76066 0,-0.4564 -0.6085,-0.76064 -0.6085,-1.21704 0,-0.30426 0.45637,-0.76066 0.76063,-0.60852 0.60853,0.30426 0.30427,1.36916 0.91279,1.67342 0.4564,0.30427 1.21707,-0.15211 1.67346,-0.45639 0.4564,-0.30424 0.76066,-0.91277 1.21706,-1.21703 0.76066,-0.76067 1.67342,-1.06493 2.28196,-1.82559 0.60853,-0.60853 0.91279,-1.52132 1.36919,-2.28198 v -0.15211 c 0,-0.4564 0.15211,-1.06493 0.30426,-1.52133 0.15211,-0.45639 0.60853,-0.91279 0.76066,-1.52132 0.15211,-0.30426 -0.15211,-0.60852 0,-0.76066 0.30426,-0.15211 0.60853,0.4564 0.76066,0.30426 0.4564,-0.30426 0.4564,-1.06492 0.76067,-1.52131 0.45637,-0.45638 1.06489,-0.91277 1.67342,-1.36917 0.9128,-0.91279 1.82559,-1.82558 2.89052,-2.58625 0.45639,-0.30426 0.91279,-0.60852 1.36916,-1.06492 0.30427,-0.30427 0.15211,-0.91277 0.4564,-1.21704 0.30426,-0.15211 0.76066,0 1.06493,-0.15211 0.30426,-0.30426 0.60852,-0.60852 0.76066,-1.06492 0.15211,-0.15211 -0.15212,-0.60853 0,-0.91279 0.60853,-0.76067 1.52132,-1.21707 2.12984,-1.97772 0.60853,-0.60854 1.21704,-1.36917 1.5213,-2.12983 0.60854,-0.91279 0.76066,-1.82558 1.21706,-2.89051 0.45639,-1.06493 1.06493,-2.12983 1.36919,-3.34689 0.15211,-1.21705 0.15211,-2.43411 0,-3.49901 0,-1.52132 0,-2.89051 -0.15211,-4.41184 -0.15211,-0.76063 -0.30426,-1.67343 -0.45639,-2.58622 -0.15211,-0.60853 -0.15211,-1.21706 -0.30427,-1.97772 -0.4564,-1.21705 -0.91279,-2.43409 -1.52132,-3.49902 -0.30427,-0.4564 -0.76066,-0.76066 -1.21704,-0.91279 -1.21705,-0.4564 -2.43411,-0.60853 -3.65117,-0.76066 -0.91279,-0.15211 -1.82556,0.30426 -2.73835,0.15211 -1.06493,-0.30427 -1.97772,-1.06493 -2.89052,-1.52132 -1.06492,-0.76064 -1.82556,-1.5213 -2.73835,-2.12983 -1.06493,-0.76066 -1.97772,-1.52132 -2.89052,-2.43412 -0.91279,-0.76065 -1.67342,-1.67343 -2.58622,-2.58622 -0.76065,-0.60853 -1.52132,-1.36919 -2.43411,-1.82559 -0.9128,-0.60852 -2.12983,-0.60852 -3.19475,-1.06492 -0.60854,-0.4564 -1.21706,-1.0649 -1.97772,-1.36916 -0.9128,-0.30427 -1.82557,-0.30427 -2.73836,-0.4564 -0.91279,0 -1.97771,0.1521 -2.89051,0.30426 -0.60853,0.15211 -1.21706,0.76064 -1.97769,0.76064 -0.76067,-0.15211 -1.36919,-0.91277 -2.12986,-1.21704 -0.45639,-0.15211 -1.06492,-0.45639 -1.67345,-0.45639 -0.60853,-0.15211 -1.36916,0.30426 -1.9777,0.15211 -0.30426,-0.15211 -0.45639,-0.76067 -0.76065,-0.76067 -0.60853,-0.30426 -1.36919,0 -1.97772,-0.1521 -0.30427,-0.15211 -0.30427,-0.76067 -0.60854,-0.91279 -0.76065,-0.30427 -1.67342,-0.30427 -2.43408,-0.60853 -0.15211,0 -0.30427,-0.4564 -0.60853,-0.4564 -0.30426,0.15211 -0.15211,0.91279 -0.4564,1.06493 -0.45639,0.1521 -0.91279,-0.15211 -1.21705,-0.4564 -0.30427,-0.15211 -0.15211,-0.91279 -0.4564,-0.76067 -0.4564,0.30427 -0.30427,1.06493 -0.60853,1.52133 -0.30426,0.15211 -0.60851,0.15211 -0.91277,0 -0.30427,0 -0.60853,-0.30426 -0.76067,-0.4564 -0.30426,-0.15211 -0.60852,-0.30426 -0.91279,-0.15211 -0.30426,0.4564 -0.30426,1.21706 -0.4564,1.82559 -0.30426,0.45639 -0.45639,0.91279 -0.91279,1.36919 -0.30426,0.30424 -0.91279,0.45637 -1.21705,0.91277 -0.30426,0.60853 -0.15211,2.58625 -0.4564,1.97772 -0.30426,-0.76066 0,-1.67345 0.30426,-2.43412 0,-0.30424 0.30427,-0.76064 0.4564,-1.21703 0.15211,-0.30426 0,-0.60853 0.15211,-0.91279 0.15211,-0.4564 0.4564,-0.9128 0.76066,-1.36919 0.15211,-0.30427 0.45639,-0.60854 0.76066,-0.9128 0.15211,-0.15211 0.60853,-0.30427 0.60853,-0.45639 -0.15211,-0.30427 -0.4564,-0.60853 -0.76066,-0.60853 -0.30426,0.15211 -0.60853,0.91279 -0.91279,0.60853 -0.30427,-0.15211 0.15211,-0.60853 0.30426,-0.91277 0.15211,-0.30427 0.60853,-0.4564 0.60853,-0.76067 0,-0.4564 -0.30426,-0.76066 -0.60853,-1.06492 -0.1521,-0.15211 -0.60853,0 -0.76066,-0.15211 -0.30426,-0.4564 -0.4564,-1.06493 -0.76066,-1.36919 -0.15211,-0.15211 -0.45639,0 -0.60851,-0.15211 -0.30426,0 -0.45639,-0.4564 -0.76065,-0.30426 -0.4564,0 -0.76067,0.30426 -0.9128,0.76066 -0.15211,0.45639 0.60853,1.21706 0.15211,1.36919 -0.60853,0.15211 -0.9128,-0.76066 -1.06492,-1.21706 -0.15211,-0.4564 0.60852,-0.76066 0.60852,-1.21705 -0.1521,-0.30427 -0.4564,-0.4564 -0.91279,-0.4564 -0.15211,-0.15211 -0.15211,0.30426 -0.30426,0.30426 -0.30427,-0.15211 0,-0.76066 -0.30427,-0.76066 -0.45639,-0.15211 -0.91279,0.30427 -1.36919,0.30427 -0.45637,0 -0.91277,-0.60851 -1.36917,-0.60851 -0.1521,0 -0.30426,0.60851 -0.4564,0.45637 -0.30426,-0.30426 0,-1.0649 -0.30426,-1.21703 -0.45639,-0.15211 -0.91279,0.76066 -1.36919,0.60853 -0.45639,-0.15211 -0.45639,-1.21706 -1.06492,-1.52132 -0.76066,-0.4564 -1.5213,-0.4564 -2.43409,-0.60853 -0.76067,-0.30427 -1.52132,-0.76066 -2.28198,-0.9128 -0.30427,0 0.45639,0.76066 0.1521,0.60853 -0.60852,0 -1.21705,-0.76066 -1.82558,-0.91279 -0.45638,0 -0.60851,0.60852 -0.76064,0.60852 -0.4564,0.30427 -0.91279,0.15212 -1.21706,0.4564 -0.4564,0.15211 -0.60853,0.60853 -0.91279,0.91279 -0.4564,0.4564 -0.9128,0.9128 -1.36919,1.3692 -0.30427,0.30424 -0.9128,0.6085 -0.9128,0.91277 0,0.76066 1.36919,1.21705 0.9128,1.67345 -0.30427,0.4564 -1.06492,-0.60853 -1.5213,-0.60853 -0.60853,0.15211 -0.91279,0.91279 -1.36919,1.21706 -0.30427,0.15211 -0.45639,0 -0.60853,0 -0.60853,0 -1.21705,-0.15211 -1.82558,0.15211 -0.60853,0.15211 -1.06493,0.91279 -1.67344,1.21706 -0.45639,0.1521 -0.91279,0 -1.36919,0 -0.60852,0 -1.21705,-0.4564 -1.82558,-0.30427 -0.4564,0.30427 -0.30427,1.5213 -0.9128,1.36919 -0.91279,0 -1.06489,-1.52132 -1.82556,-1.67345 -0.45639,-0.15211 -0.45639,1.06492 -0.91279,1.21705 -0.4564,0.15211 -0.76066,-0.45639 -0.76066,-0.91279 0.15211,-0.4564 1.06493,-0.4564 1.36919,-1.06492 0.15211,-0.4564 0.15211,-1.21706 0,-1.67346 -0.15211,-0.4564 -0.30426,-1.06492 -0.76066,-1.06492 -1.21706,0 -2.28199,0.76066 -3.49902,1.21705 -1.06493,0.30427 -2.28198,0.9128 -3.34691,1.06493 -0.76066,0.15211 -1.52132,0.4564 -2.12982,0 -0.30426,-0.15211 0.45637,-0.76066 0.76063,-0.91279 0.76067,-0.30427 1.82559,0.1521 2.58625,-0.30427 0.60853,-0.60852 0.60853,-1.52129 0.9128,-2.43409 0,-0.15211 0,-0.4564 0.1521,-0.60853 0.60853,-1.06492 1.21704,-2.28198 1.9777,-3.19477 0.91279,-1.21704 1.82558,-2.12983 2.89051,-3.19475 0.4564,-0.4564 1.21705,-0.76067 1.67343,-1.36919 0.91279,-0.76067 1.52132,-1.67344 2.12985,-2.58623 0.60853,-0.76066 1.36919,-1.67345 1.52132,-2.73838 0,-0.60853 -0.4564,-1.21705 -0.91279,-1.5213 -0.9128,-0.4564 -1.97772,0.15211 -2.73838,-0.30426 -0.6085,-0.30426 -0.76064,-1.06493 -0.91277,-1.67345 -0.15211,-0.30427 0.15211,-0.60853 0.15211,-1.06493 -0.15211,-0.60853 -0.4564,-1.21706 -0.76066,-1.82559 -0.4564,-0.91277 -0.91279,-1.67343 -1.21706,-2.73835 -0.1521,-0.91279 -0.1521,-1.82559 -0.30426,-2.73838 -0.15211,-0.60851 0,-1.36917 -0.30427,-1.9777 -0.45639,-0.91279 -1.06492,-2.28198 -2.12983,-2.43411 -0.60853,0 0.76064,1.52132 0.45638,2.12985 -0.30427,0.4564 -0.76064,-1.06493 -1.21703,-0.9128 -1.06493,0.76067 -1.67346,2.12986 -2.43412,3.19476 -0.76066,1.36919 -1.52133,2.73838 -2.28196,4.10757 -0.30426,0.76066 -0.60853,1.36916 -0.91279,1.97769 -0.30427,0.60853 -0.30427,1.36919 -0.76066,1.67346 -0.60853,0.45639 -1.52133,0.76065 -2.28199,0.60853 -0.76066,-0.15211 -0.91279,-1.06493 -1.52129,-1.21707 -0.30427,-0.15211 -0.60854,0.4564 -0.9128,0.4564 -0.30427,0 -0.60853,-0.60852 -0.91279,-0.60852 -0.91279,0.1521 -1.36919,1.21705 -2.12986,1.21705 -0.76065,0.15211 -1.21703,-0.60853 -1.97768,-0.91279 -0.15212,0 -0.45641,0.4564 -0.60854,0.30426 -0.76066,-0.4564 -1.21706,-1.82558 -2.12985,-1.82558 -1.21706,-0.15212 -2.43409,1.21706 -3.65115,1.36918 -0.60852,0 -1.06492,-1.06492 -1.52132,-0.91279 -0.76066,0.15211 -1.36918,0.76067 -1.52132,1.52133 0,0.76065 1.06493,1.36919 1.06493,2.12984 0,0.30427 -0.60853,0.60853 -0.91279,0.4564 -0.76065,-0.30426 -1.21704,-1.36919 -1.9777,-1.52132 -0.30427,-0.15211 0.30426,0.76066 0,1.06492 -0.30427,0.30427 -1.06493,0.60853 -1.67346,0.60853 -0.4564,0 -0.91279,-0.60853 -1.52132,-0.60853 -0.76066,-0.1521 -1.82556,-0.30426 -2.58622,0.15211 -0.30427,0.15212 0.45639,0.91277 0,1.06491 -0.76066,0.45639 -1.97773,0 -2.89052,0.30426 -0.30426,0 0.30427,0.60853 0,0.76066 -0.45639,0.15211 -0.91277,-0.4564 -1.21703,-0.30426 -0.91279,0.45639 -1.06493,1.67345 -1.97772,1.97772 -0.60852,0.30426 -1.52132,-0.15211 -2.12985,-0.4564 -0.91277,-0.4564 -1.82556,-1.06493 -2.43409,-1.82559 -0.4564,-0.45639 -0.60853,-1.0649 -0.76066,-1.67343 0,-0.60852 0.60853,-1.21705 0.4564,-1.82559 -0.15211,-0.45639 -1.06493,-0.60852 -1.21706,-1.06492 -0.30427,-0.76066 -0.4564,-1.82557 -0.4564,-2.58622 0.15211,-0.4564 0.76066,-0.60854 0.91279,-0.9128 0.30427,-0.45639 -0.1521,-0.91279 0.15211,-1.36919 0.4564,-0.60853 1.52133,-0.60853 1.67346,-1.21705 0.30426,-0.91279 -0.30427,-1.67344 -0.45639,-2.58623 -0.15212,-0.60852 -0.4564,-1.21705 -0.60854,-1.67345 -0.30426,-0.30427 -0.45639,-0.76067 -0.76065,-0.91279 -0.30427,-0.15211 -0.91281,0.15211 -1.21707,-0.15211 -0.60853,-0.60854 -0.91279,-1.36917 -0.91279,-2.12983 -0.15211,-0.60853 0.60853,-1.06493 0.4564,-1.67346 -0.15211,-0.30426 -0.76066,-0.60852 -1.21703,-0.60852 -0.4564,0.1521 -0.60854,0.76066 -1.06493,1.06492 -0.30426,0.15211 -0.60853,0.15211 -0.91279,0 -0.4564,-0.1521 -0.76066,-1.06492 -0.9128,-0.76066 -0.30426,0.4564 0.4564,0.91279 0.4564,1.36919 0.15211,0.4564 0.15211,0.91279 -0.15211,1.21706 -0.4564,0.6085 -1.06492,1.0649 -1.82559,1.36916 -0.76063,0.4564 -1.82556,0.4564 -2.58622,0.91279 -0.45639,0.30427 -0.45639,1.06493 -0.91279,1.3692 -0.60853,0.30426 -1.52133,0.30426 -2.12986,0.4564 -0.91277,0.1521 -1.67342,-0.30427 -2.43408,0 -0.76067,0.30426 -1.36919,0.76066 -1.82559,1.36919 -0.15211,0.45637 0.30426,0.91277 0.15211,1.36916 -0.15211,0.30426 -0.60853,0.15211 -0.76066,0 -0.4564,-0.30427 -0.60853,-1.06492 -1.06491,-1.21704 -0.45639,-0.30426 -1.06492,0 -1.52132,-0.1521 -0.91279,-0.15211 -1.82559,-0.4564 -2.58624,-0.91279 -0.60854,-0.30427 -0.76066,-1.52133 -1.52131,-1.52133 -0.76065,0 -1.52131,0.9128 -1.97771,1.67346 -0.30427,0.45639 -0.15211,1.36916 0.30426,1.67343 0.60854,0.4564 1.67345,-0.30427 2.28196,0.30426 0.4564,0.30426 0.30426,1.06493 0.15211,1.67345 -0.15211,0.4564 -0.45637,0.76067 -0.76064,1.21707 -0.1521,0.45639 -0.4564,0.91279 -0.4564,1.52131 0,0.76064 0.15212,1.36917 0.30427,2.12983 0.15211,0.4564 0.30427,0.76066 0.60853,1.06493 0.15211,0.30426 0.6085,0.30426 0.91277,0.30426 0.30427,0.15211 0.76066,0.60853 1.21706,0.4564 0.30426,0 0.60852,-0.60853 0.91279,-0.60853 0.60853,0.15211 1.36919,0.91279 0.91279,1.21706 -0.76066,0.76066 -2.12985,0 -2.89051,0.76066 -1.0649,0.76063 -0.76066,2.73835 -1.82556,3.49901 -0.4564,0.4564 -0.4564,-1.21705 -1.06493,-1.21705 -0.60852,0 -0.76066,1.06492 -1.21705,1.52132 -1.06493,0.91279 -2.12983,1.52132 -3.04263,2.28196 -0.45639,0.4564 -0.60852,1.67345 -1.21705,1.52132 -0.76066,0 -0.30426,-1.36919 -0.9128,-1.82558 -0.45639,-0.30427 -1.06492,-0.45638 -1.52132,0 -0.4564,0.45639 0,1.97771 -0.76063,1.97771 -1.06493,0.15211 -1.67345,-1.06492 -2.58625,-1.67345 -0.76066,-0.4564 -1.67346,-0.76064 -2.12985,-1.5213 -0.30426,-0.30426 0.15211,-0.91279 0,-1.36919 -0.60853,-1.21705 -1.06491,-2.89051 -2.28196,-3.34689 -0.91279,-0.30426 -1.06493,1.82557 -1.97772,1.9777 -0.60853,0.15211 -0.76066,-1.06493 -1.36919,-1.36919 -0.45637,-0.15211 -1.0649,-0.15211 -1.21703,0.30426 -0.15211,0.4564 1.0649,1.36919 0.45639,1.52133 -1.97772,0.76066 -4.10756,0.30426 -6.2374,0.30426 -0.76065,0 -1.97771,-0.60852 -2.28198,0.15211 -0.45639,1.21705 -0.1521,2.73835 0.4564,4.10754 0.15211,0.4564 1.06493,0 1.52132,0 0.4564,-0.1521 0.9128,-0.45639 1.21706,-0.1521 0.45637,0.30426 0.30427,1.06492 0.30427,1.52132 -0.15211,0.45639 -0.4564,1.06492 -0.9128,1.06492 -0.45639,0 -0.76066,-1.06492 -1.36919,-1.06492 -0.76066,0.15211 -1.82558,0.60853 -2.12985,1.36919 -0.4564,1.21706 -0.1521,2.58622 0,3.80328 0.15211,0.4564 0.4564,0.76066 0.91279,1.21705 0.30427,0.15211 0.9128,0.15211 1.06493,0.60854 0.4564,0.45639 0.30426,1.0649 0.60853,1.67343 0.1521,0.4564 0.60852,0.76066 0.60852,1.21705 0,0.76066 -0.45639,1.36919 -0.45639,2.12985 0,0.60853 0.30427,1.36919 0.15211,1.9777 -0.4564,3.34691 -1.06493,6.84592 -1.82559,10.19281 -0.30426,1.36919 -0.30426,3.04265 -1.21705,3.95544 -0.45637,0.4564 -1.21704,-1.21706 -1.82557,-1.06493 -0.91279,0.15211 -1.21706,1.36919 -2.12985,1.52133 -0.4564,0.1521 -0.91279,-0.76067 -1.36919,-0.60853 -0.45637,0 -0.60851,0.60853 -1.0649,0.76065 -0.4564,0.30427 -1.06492,-0.1521 -1.52132,0 -0.91279,0.4564 -1.52132,1.21704 -2.28198,1.82557 -0.76067,0.60853 -1.67344,0.91279 -2.28197,1.67345 -0.76066,0.76066 -1.21705,1.82559 -1.52131,2.73836 -0.30427,0.76066 -0.4564,1.52132 -0.60853,2.28198 0,0.60853 0.15211,1.21706 0,1.82559 -0.15212,0.76066 -0.15212,1.67342 -0.76066,2.28196 -0.30427,0.60853 -1.36917,0.30426 -1.67344,0.91279 -0.45639,0.76066 -0.30426,1.67345 -0.30426,2.43412 0,0.45639 0.30426,1.0649 0,1.36916 -0.30426,0.4564 -1.06493,0.15211 -1.21705,0.60853 -0.15212,0.30426 0.1521,0.76066 0.30426,1.06492 0.30426,0.30427 0.76066,0.30427 1.06493,0.60853 0.30426,0.30427 0.1521,0.9128 0.30426,1.21706 0.15211,0.45639 0.30426,0.91279 0.6085,1.21706 z m 117.14128,-44.57455 c 0.45639,-0.76066 0.91279,-1.67345 1.52131,-2.43411 0.4564,-0.4564 1.21704,-1.82556 1.67344,-1.36917 0.60852,0.76064 -0.15211,1.9777 -0.4564,2.73836 -0.30425,0.91279 -0.91277,1.82558 -1.67343,2.43411 -0.60853,0.6085 -1.67346,2.12983 -2.28199,1.36917 -0.76066,-0.76067 0.76067,-1.82556 1.21707,-2.73836 z m 5.02033,-2.12985 c -0.15211,0.60853 0.4564,1.21706 0.4564,1.82559 -0.15211,0.60853 -0.91279,0.91279 -0.91279,1.36918 -0.15211,0.76065 0,1.67344 0.45639,2.28197 0.30426,0.30426 1.06492,0 1.36919,0.30426 0.30426,0.30426 -0.30427,0.9128 0,1.06493 0.76066,0.30426 1.52133,0 2.12983,0.1521 0.45639,0 0.76066,0.4564 1.21706,0.30427 0.30426,0 0.1521,-0.60853 0.45639,-0.91279 0.60853,-0.30427 1.21706,-0.15211 1.67346,-0.4564 0.60853,-0.15211 0.91279,-0.76066 1.52132,-0.76066 0.30424,0 0.45637,0.60853 0.91277,0.60853 0.30426,0 0.76066,-0.30426 0.91279,-0.76066 0,-0.4564 -0.76066,-1.21704 -0.45639,-1.67343 0.45639,-0.76066 1.67345,-0.76066 2.28198,-1.52133 0.60853,-0.76066 1.97769,-1.82558 1.36919,-2.73838 -0.76066,-1.06489 -2.73838,-1.36916 -3.95544,-0.76063 -0.9128,0.60851 0,2.43409 -0.76066,3.34688 -0.30424,0.4564 -0.60851,-1.06492 -0.60851,-1.67345 0,-0.30427 0.76064,-0.15211 0.76064,-0.4564 0,-0.4564 -0.30427,-0.91279 -0.6085,-1.0649 -1.06493,-0.45639 -2.12985,-0.30427 -3.19478,-0.30427 -0.91279,-0.1521 -1.9777,-0.1521 -2.89049,0 -0.4564,0.15211 -0.76066,0.60851 -1.21705,0.91277 -0.30427,0.30427 -0.9128,0.4564 -0.9128,0.9128 z m 2.89052,-2.73836 c 0.91277,-0.1521 1.82556,0.15212 2.43408,-0.30426 0.4564,-0.30426 0.91279,-1.21705 0.60853,-1.52132 -0.76066,-0.60853 -1.97772,0.15211 -2.73838,-0.30426 -0.30423,-0.30427 0.9128,-1.36919 0.4564,-1.36919 -0.91277,0 -1.67343,0.60852 -2.28196,1.21705 -0.45639,0.30427 -0.91279,0.76067 -0.91279,1.36919 -0.15211,0.4564 0,1.06493 0.4564,1.21706 0.30426,0.15211 0.30426,-0.60853 0.45639,-0.91279 0.30426,-0.30427 0.30426,-0.76067 0.76066,-0.91279 0.15211,-0.15211 0.60853,0.1521 0.4564,0.45639 0,0.4564 -0.9128,0.76066 -0.76066,1.06492 0,0.4564 0.76066,0 1.06493,0 z m -4.10758,-0.1521 c -0.60852,0.1521 -0.30426,1.52129 0,1.97769 0.30427,0.4564 1.21706,0.15211 1.21706,-0.1521 0,-0.76065 -0.45639,-1.9777 -1.21706,-1.82557 z"
         id="path4646" />
      <text
         transform="matrix(1,0,0.10510424,1,12.828938,42.763124)"
         id="text5140"
         y="-57.089619"
         x="493.23587"
         style="font-style:italic;font-variant:normal;font-weight:normal;font-stretch:normal;font-size:123.47222137px;line-height:1.25;font-family:'Handel Gothic Italic';-inkscape-font-specification:'Handel Gothic Italic, Italic';font-variant-ligatures:normal;font-variant-caps:normal;font-variant-numeric:normal;font-feature-settings:normal;text-align:start;letter-spacing:0px;word-spacing:0px;writing-mode:lr-tb;text-anchor:start;fill:#415f92;fill-opacity:1;stroke:none;stroke-width:0.26458332;stroke-opacity:1;filter:url(#filter4847)"
         xml:space="preserve"><tspan
           style="font-style:italic;font-variant:normal;font-weight:normal;font-stretch:normal;font-size:123.47222137px;font-family:'Handel Gothic Italic';-inkscape-font-specification:'Handel Gothic Italic, Italic';font-variant-ligatures:normal;font-variant-caps:normal;font-variant-numeric:normal;font-feature-settings:normal;text-align:start;writing-mode:lr-tb;text-anchor:start;fill:#415f92;fill-opacity:1;stroke:none;stroke-width:0.26458332;stroke-opacity:1"
           y="-57.089619"
           x="493.23587"
           id="tspan5138"
           sodipodi:role="line">php</tspan></text>
      <text
         transform="matrix(1.1592131,0,0.1218382,1.1592131,163.07422,52.51864)"
         id="text5140-1"
         y="-57.089619"
         x="493.23587"
         style="font-style:italic;font-variant:normal;font-weight:normal;font-stretch:normal;font-size:123.47222137px;line-height:1.25;font-family:'Handel Gothic Italic';-inkscape-font-specification:'Handel Gothic Italic, Italic';font-variant-ligatures:normal;font-variant-caps:normal;font-variant-numeric:normal;font-feature-settings:normal;text-align:start;letter-spacing:0px;word-spacing:0px;writing-mode:lr-tb;text-anchor:start;fill:#415f92;fill-opacity:1;stroke:none;stroke-width:0.26458332;stroke-opacity:1;filter:url(#filter4847-5)"
         xml:space="preserve"><tspan
           style="font-style:italic;font-variant:normal;font-weight:normal;font-stretch:normal;font-size:123.47222137px;font-family:'Handel Gothic Italic';-inkscape-font-specification:'Handel Gothic Italic, Italic';font-variant-ligatures:normal;font-variant-caps:normal;font-variant-numeric:normal;font-feature-settings:normal;text-align:start;writing-mode:lr-tb;text-anchor:start;fill:#415f92;fill-opacity:1;stroke:none;stroke-width:0.26458332;stroke-opacity:1"
           y="-57.089619"
           x="493.23587"
           id="tspan5138-3"
           sodipodi:role="line">br</tspan></text>
      <ellipse
         transform="matrix(0.23619083,0.97170669,-0.87335362,0.4870867,0,0)"
         ry="189.60915"
         rx="139.90791"
         cy="-658.40186"
         cx="130.11867"
         id="path4895"
         style="opacity:1;fill:url(#linearGradient4903);fill-opacity:1;stroke:none;stroke-width:1.17675316;stroke-miterlimit:4;stroke-dasharray:none;stroke-opacity:1" />
    </g>
  </g>
</svg>
