<?xml version="1.0" encoding="UTF-8" standalone="no"?>
<!-- Created with Inkscape (http://www.inkscape.org/) -->

<svg
   xmlns:dc="http://purl.org/dc/elements/1.1/"
   xmlns:cc="http://creativecommons.org/ns#"
   xmlns:rdf="http://www.w3.org/1999/02/22-rdf-syntax-ns#"
   xmlns:svg="http://www.w3.org/2000/svg"
   xmlns="http://www.w3.org/2000/svg"
   xmlns:xlink="http://www.w3.org/1999/xlink"
   xmlns:sodipodi="http://sodipodi.sourceforge.net/DTD/sodipodi-0.dtd"
   xmlns:inkscape="http://www.inkscape.org/namespaces/inkscape"
   width="1360mm"
   height="780mm"
   viewBox="0 0 1360 780"
   version="1.1"
   id="svg8"
   inkscape:version="0.92.3 (2405546, 2018-03-11)"
   sodipodi:docname="background.svg"
   inkscape:export-filename="/home/william/Development/Projects/PhpBR/reference/visual-identity/background/background.png"
   inkscape:export-xdpi="64"
   inkscape:export-ydpi="64">
  <defs
     id="defs2">
    <filter
       style="color-interpolation-filters:sRGB;"
       inkscape:label="Drop Shadow"
       id="filter5112">
      <feFlood
         flood-opacity="0.498039"
         flood-color="rgb(0,0,0)"
         result="flood"
         id="feFlood5102" />
      <feComposite
         in="flood"
         in2="SourceGraphic"
         operator="in"
         result="composite1"
         id="feComposite5104" />
      <feGaussianBlur
         in="composite1"
         stdDeviation="10"
         result="blur"
         id="feGaussianBlur5106" />
      <feOffset
         dx="6"
         dy="10"
         result="offset"
         id="feOffset5108" />
      <feComposite
         in="SourceGraphic"
         in2="offset"
         operator="over"
         result="composite2"
         id="feComposite5110" />
    </filter>
    <filter
       style="color-interpolation-filters:sRGB;"
       inkscape:label="Drop Shadow"
       id="filter4847">
      <feFlood
         flood-opacity="0.380392"
         flood-color="rgb(0,0,0)"
         result="flood"
         id="feFlood4837" />
      <feComposite
         in="flood"
         in2="SourceGraphic"
         operator="in"
         result="composite1"
         id="feComposite4839" />
      <feGaussianBlur
         in="composite1"
         stdDeviation="2"
         result="blur"
         id="feGaussianBlur4841" />
      <feOffset
         dx="3"
         dy="3"
         result="offset"
         id="feOffset4843" />
      <feComposite
         in="SourceGraphic"
         in2="offset"
         operator="over"
         result="composite2"
         id="feComposite4845" />
    </filter>
    <filter
       style="color-interpolation-filters:sRGB"
       inkscape:label="Drop Shadow"
       id="filter4847-5">
      <feFlood
         flood-opacity="0.380392"
         flood-color="rgb(0,0,0)"
         result="flood"
         id="feFlood4837-0" />
      <feComposite
         in="flood"
         in2="SourceGraphic"
         operator="in"
         result="composite1"
         id="feComposite4839-8" />
      <feGaussianBlur
         in="composite1"
         stdDeviation="2"
         result="blur"
         id="feGaussianBlur4841-0" />
      <feOffset
         dx="3"
         dy="3"
         result="offset"
         id="feOffset4843-4" />
      <feComposite
         in="SourceGraphic"
         in2="offset"
         operator="over"
         result="composite2"
         id="feComposite4845-1" />
    </filter>
    <filter
       style="color-interpolation-filters:sRGB"
       inkscape:label="Drop Shadow"
       id="filter4847-59">
      <feFlood
         flood-opacity="0.380392"
         flood-color="rgb(0,0,0)"
         result="flood"
         id="feFlood4837-9" />
      <feComposite
         in="flood"
         in2="SourceGraphic"
         operator="in"
         result="composite1"
         id="feComposite4839-0" />
      <feGaussianBlur
         in="composite1"
         stdDeviation="2"
         result="blur"
         id="feGaussianBlur4841-7" />
      <feOffset
         dx="3"
         dy="3"
         result="offset"
         id="feOffset4843-6" />
      <feComposite
         in="SourceGraphic"
         in2="offset"
         operator="over"
         result="composite2"
         id="feComposite4845-3" />
    </filter>
    <filter
       style="color-interpolation-filters:sRGB"
       inkscape:label="Drop Shadow"
       id="filter4847-5-1">
      <feFlood
         flood-opacity="0.380392"
         flood-color="rgb(0,0,0)"
         result="flood"
         id="feFlood4837-0-5" />
      <feComposite
         in="flood"
         in2="SourceGraphic"
         operator="in"
         result="composite1"
         id="feComposite4839-8-0" />
      <feGaussianBlur
         in="composite1"
         stdDeviation="2"
         result="blur"
         id="feGaussianBlur4841-0-6" />
      <feOffset
         dx="3"
         dy="3"
         result="offset"
         id="feOffset4843-4-5" />
      <feComposite
         in="SourceGraphic"
         in2="offset"
         operator="over"
         result="composite2"
         id="feComposite4845-1-0" />
    </filter>
    <linearGradient
       inkscape:collect="always"
       xlink:href="#linearGradient4889"
       id="linearGradient4891"
       x1="571.62158"
       y1="-224.43987"
       x2="981.90753"
       y2="179.56566"
       gradientUnits="userSpaceOnUse" />
    <linearGradient
       inkscape:collect="always"
       id="linearGradient4889">
      <stop
         style="stop-color:#e6e6e6;stop-opacity:1;"
         offset="0"
         id="stop4885" />
      <stop
         style="stop-color:#ffffff;stop-opacity:0.51123595"
         offset="1"
         id="stop4887" />
    </linearGradient>
    <filter
       style="color-interpolation-filters:sRGB"
       inkscape:label="Drop Shadow"
       id="filter5112-3">
      <feFlood
         flood-opacity="0.498039"
         flood-color="rgb(0,0,0)"
         result="flood"
         id="feFlood5102-6" />
      <feComposite
         in="flood"
         in2="SourceGraphic"
         operator="in"
         result="composite1"
         id="feComposite5104-7" />
      <feGaussianBlur
         in="composite1"
         stdDeviation="10"
         result="blur"
         id="feGaussianBlur5106-5" />
      <feOffset
         dx="6"
         dy="10"
         result="offset"
         id="feOffset5108-3" />
      <feComposite
         in="SourceGraphic"
         in2="offset"
         operator="over"
         result="composite2"
         id="feComposite5110-5" />
    </filter>
    <filter
       style="color-interpolation-filters:sRGB"
       inkscape:label="Drop Shadow"
       id="filter4847-6">
      <feFlood
         flood-opacity="0.380392"
         flood-color="rgb(0,0,0)"
         result="flood"
         id="feFlood4837-2" />
      <feComposite
         in="flood"
         in2="SourceGraphic"
         operator="in"
         result="composite1"
         id="feComposite4839-9" />
      <feGaussianBlur
         in="composite1"
         stdDeviation="2"
         result="blur"
         id="feGaussianBlur4841-1" />
      <feOffset
         dx="3"
         dy="3"
         result="offset"
         id="feOffset4843-2" />
      <feComposite
         in="SourceGraphic"
         in2="offset"
         operator="over"
         result="composite2"
         id="feComposite4845-7" />
    </filter>
    <filter
       style="color-interpolation-filters:sRGB"
       inkscape:label="Drop Shadow"
       id="filter4847-5-0">
      <feFlood
         flood-opacity="0.380392"
         flood-color="rgb(0,0,0)"
         result="flood"
         id="feFlood4837-0-9" />
      <feComposite
         in="flood"
         in2="SourceGraphic"
         operator="in"
         result="composite1"
         id="feComposite4839-8-3" />
      <feGaussianBlur
         in="composite1"
         stdDeviation="2"
         result="blur"
         id="feGaussianBlur4841-0-60" />
      <feOffset
         dx="3"
         dy="3"
         result="offset"
         id="feOffset4843-4-6" />
      <feComposite
         in="SourceGraphic"
         in2="offset"
         operator="over"
         result="composite2"
         id="feComposite4845-1-2" />
    </filter>
    <linearGradient
       inkscape:collect="always"
       xlink:href="#linearGradient4901"
       id="linearGradient4903"
       x1="385.59775"
       y1="-887.1106"
       x2="982.90479"
       y2="-848.96362"
       gradientUnits="userSpaceOnUse"
       gradientTransform="matrix(0.2771034,0,0,0.2771034,103.78981,161.46533)" />
    <linearGradient
       inkscape:collect="always"
       id="linearGradient4901">
      <stop
         style="stop-color:#ffffff;stop-opacity:0.01123596"
         offset="0"
         id="stop4897" />
      <stop
         style="stop-color:#ffffff;stop-opacity:0.83707863"
         offset="1"
         id="stop4899" />
    </linearGradient>
    <filter
       style="color-interpolation-filters:sRGB;"
       inkscape:label="Drop Shadow"
       id="filter910">
      <feFlood
         flood-opacity="0.498039"
         flood-color="rgb(0,0,0)"
         result="flood"
         id="feFlood900" />
      <feComposite
         in="flood"
         in2="SourceGraphic"
         operator="in"
         result="composite1"
         id="feComposite902" />
      <feGaussianBlur
         in="composite1"
         stdDeviation="2"
         result="blur"
         id="feGaussianBlur904" />
      <feOffset
         dx="3"
         dy="3"
         result="offset"
         id="feOffset906" />
      <feComposite
         in="SourceGraphic"
         in2="offset"
         operator="over"
         result="composite2"
         id="feComposite908" />
    </filter>
  </defs>
  <sodipodi:namedview
     id="base"
     pagecolor="#ffffff"
     bordercolor="#666666"
     borderopacity="1.0"
     inkscape:pageopacity="0.0"
     inkscape:pageshadow="2"
     inkscape:zoom="0.12374369"
     inkscape:cx="2371.6527"
     inkscape:cy="1067.34"
     inkscape:document-units="mm"
     inkscape:current-layer="layer1"
     showgrid="false"
     inkscape:window-width="1310"
     inkscape:window-height="712"
     inkscape:window-x="26"
     inkscape:window-y="28"
     inkscape:window-maximized="1" />
  <metadata
     id="metadata5">
    <rdf:RDF>
      <cc:Work
         rdf:about="">
        <dc:format>image/svg+xml</dc:format>
        <dc:type
           rdf:resource="http://purl.org/dc/dcmitype/StillImage" />
        <dc:title />
      </cc:Work>
    </rdf:RDF>
  </metadata>
  <g
     inkscape:label="Layer 1"
     inkscape:groupmode="layer"
     id="layer1"
     transform="translate(0,483)">
    <rect
       style="opacity:1;fill:#6082bb;fill-opacity:1;stroke:none;stroke-width:1.05833328;stroke-miterlimit:4;stroke-dasharray:none;stroke-opacity:1"
       id="rect4650"
       width="1364.1436"
       height="784.70331"
       x="0"
       y="-483.42703" />
    <text
       xml:space="preserve"
       style="font-style:italic;font-variant:normal;font-weight:normal;font-stretch:normal;font-size:188.51673889px;line-height:1.25;font-family:'Handel Gothic Italic';-inkscape-font-specification:'Handel Gothic Italic, Italic';font-variant-ligatures:normal;font-variant-caps:normal;font-variant-numeric:normal;font-feature-settings:normal;text-align:start;letter-spacing:0px;word-spacing:0px;writing-mode:lr-tb;text-anchor:start;fill:#6888be;fill-opacity:1;stroke:none;stroke-width:0.40396443;stroke-opacity:1"
       x="958.46771"
       y="-78.320663"
       id="text5140-7"
       transform="skewX(6.0000003)"><tspan
         sodipodi:role="line"
         id="tspan5138-6"
         x="958.46771"
         y="-78.320663"
         style="font-style:italic;font-variant:normal;font-weight:normal;font-stretch:normal;font-size:188.51673889px;font-family:'Handel Gothic Italic';-inkscape-font-specification:'Handel Gothic Italic, Italic';font-variant-ligatures:normal;font-variant-caps:normal;font-variant-numeric:normal;font-feature-settings:normal;text-align:start;writing-mode:lr-tb;text-anchor:start;fill:#6888be;fill-opacity:1;stroke:none;stroke-width:0.40396443;stroke-opacity:1">php</tspan></text>
    <path
       id="path4646-6"
       d="m 92.223118,-67.209652 c 0.669581,1.339071 2.008719,2.008652 3.013062,3.012989 0.669512,1.004358 1.339093,2.343475 2.008651,3.682635 0.669558,1.339137 2.008719,2.343474 2.008719,3.682613 0,1.004359 -1.673912,1.673917 -2.008719,2.67821 0,0.66958 0,1.33916 0.334739,2.343503 l 1.004354,1.00436 c 1.339139,0 1.673926,-1.339139 2.678256,-2.008703 h 1.67395 c 0.66956,0.334713 0.66956,1.673901 1.33911,1.673901 0.33473,0.334758 1.00436,-1.004337 1.67394,-0.669558 0.66956,0 1.33911,0.334735 1.67385,1.00436 1.00436,1.339116 0.66958,3.013055 1.67392,4.35217 0.66958,1.00436 2.00871,1.339139 3.34785,1.673939 1.00435,0 2.34348,-0.334734 3.01306,-1.004358 1.00434,-1.00436 1.00434,-2.343497 1.67389,-3.013055 0.66958,-0.66958 1.67394,-0.334736 2.34346,-0.66958 0.66958,-0.334714 1.33914,-1.004337 2.3435,-1.339116 0.33474,-0.334735 1.33914,-1.339139 1.6739,-1.00436 1.00435,1.339139 0.66958,3.013056 0.66958,4.352193 0.33473,4.017393 -1.00434,8.369542 0.33473,12.052177 0.33474,1.339116 2.34348,1.004337 3.68264,0.669558 1.33912,-0.334734 2.34347,-1.673917 3.68254,-1.673917 1.67392,-0.334735 3.34786,0 4.68697,0 2.0087,0.334713 4.35219,0.334713 6.36085,0.334713 2.3435,0.334736 4.68697,0.669581 7.03047,0 1.00433,0 2.0087,-1.339116 2.34347,-2.343475 0.66956,-0.66958 0,-2.008718 0.66956,-2.678276 0.33474,-0.334735 1.6739,-0.334735 2.34346,-0.334735 0.66955,0 1.00433,1.004359 1.33911,0.66958 1.33914,-0.334735 2.34352,-1.339139 3.01305,-2.008697 1.00439,-1.004314 1.33916,-2.678231 2.34353,-3.347789 0.66956,-0.334735 1.33911,1.004337 1.67386,0.669558 1.00439,-0.669558 1.33919,-2.008697 2.00875,-3.013055 1.00429,-1.004359 2.34343,-2.008696 3.34776,-2.343475 1.67395,-0.669581 3.68262,-1.00436 5.35656,-1.339139 1.00434,0 1.6739,-0.334741 2.67827,-0.334741 1.00437,0 2.00865,0.334741 3.01302,0.334741 0.66956,0 1.33914,-0.669564 2.0087,-0.669564 0.33472,-0.334735 1.00433,-1.004359 1.33913,-0.334735 1.00434,1.004344 1.33912,3.01304 1.33912,4.3522 0,1.339116 -1.33912,2.008695 -1.33912,3.013055 -0.33476,1.339115 0,2.678254 0.33469,3.682547 0.33476,1.004359 1.33916,1.339138 1.67397,2.343497 0.3347,1.004359 0.3347,2.008697 0,3.013055 -0.33474,0.669558 -1.67397,0.334735 -1.67397,1.00436 0,1.339137 0.6696,2.343475 1.00438,3.347833 0.66959,1.339073 0.66959,2.678211 1.67392,4.017349 1.00436,1.673917 2.34348,3.347834 4.01737,4.352171 1.33911,1.004359 3.01306,1.004359 4.35217,1.673939 0.66956,0.669558 0.33473,2.343475 1.33914,3.013055 1.00436,0.669514 2.34349,0.669514 3.34785,0.334713 1.33914,0 2.34348,-0.334713 3.3478,-0.669492 0.3347,0 0.66956,-0.66958 1.33911,-0.66958 1.33914,0.334735 3.01306,1.339072 4.35219,2.008652 1.00436,0.669558 1.33914,2.008718 2.34347,2.678276 1.00435,0.334735 2.00872,-0.334735 2.67828,0.334735 1.33909,0.334736 2.00865,2.008696 3.34777,2.343498 1.00438,0.669558 2.34352,1.004337 3.34788,1.004337 0.66955,0.334734 1.6739,-0.334736 2.34348,0.334734 1.33914,1.004337 2.00869,3.0130548 3.68256,4.0173918 1.00437,0.669536 2.67825,1.004293 4.35218,0.669536 0.66958,-0.334735 0.66958,-2.008652 1.67393,-2.008652 1.33912,-0.334735 2.34348,0.669558 3.68262,1.004337 1.00436,0.669514 2.00865,1.339072 3.01301,2.008652 1.33914,0.66958 3.34783,1.004359 4.01739,2.343475 0.66958,1.004359 -0.66956,2.67829799 -0.33472,4.01741439 0.33472,1.67393901 1.67393,3.01307701 2.34348,4.68692801 0.33474,1.004359 0,2.678277 0,4.017414 0,0.334735 0.33474,0.669558 0,1.0043368 -1.00436,0.334736 -2.00872,-0.3347348 -2.67827,0 -0.33477,0.334736 0,1.339138 0.33476,1.673917 0.3347,0.669581 1.33911,1.00436 1.67389,2.008697 0.66956,1.33916 1.00436,3.01301 1.00436,4.686949 0.33473,1.339117 0,2.678255 0.33473,3.682614 0.33472,1.339139 1.33912,2.678276 2.34348,3.013055 2.67823,0.66958 5.69128,0 8.70435,0 2.67825,0.334735 5.35648,0.334735 8.03476,0.334735 0.66956,0.334735 2.34347,-0.669558 2.34347,0.334735 0.33474,1.004359 -1.67391,1.673917 -2.0087,3.012989 0,1.004359 1.00437,1.673918 1.33912,2.343476 0.66958,1.33916 0.66958,3.013054 1.33914,4.017414 0.66958,1.004358 1.67392,1.339137 2.67827,2.008695 1.00436,1.00436 1.67394,2.008718 2.67828,3.013033 1.00431,1.004337 2.00865,2.343476 2.67821,3.682614 0.66958,1.339137 0.66958,2.678254 0.66958,4.352193 0,1.339116 -0.33474,2.678253 -1.00437,4.017348 -0.3347,1.673917 -1.33911,3.347834 -2.00865,5.021751 -0.3347,2.008719 -1.00435,3.682613 -1.67393,5.356552 -0.33472,1.004293 -1.33912,2.343431 -1.00432,3.347768 0.33474,1.00436 1.6739,1.00436 2.34348,1.339139 0.33472,0.669558 0.66951,1.339137 0.33472,1.673916 -0.33472,0.669581 -1.33912,0 -2.0087,0.669581 -0.66956,0.669557 -1.00434,2.008696 -0.66956,3.013054 0,1.339117 1.00436,2.343476 1.33914,3.68257 0.33473,0.669558 0.66956,1.339138 1.00435,2.343497 0.33472,0.669558 1.00436,1.339115 1.00436,2.343475 0.33471,1.339138 0.33471,2.678276 0,4.352198 0,0.669558 -0.33475,1.339138 -0.66959,2.343424 0,0.669558 0.33475,1.673923 0.33475,2.343503 0,1.00433 -0.66956,2.0087 -0.66956,3.01305 0,1.00434 0,2.34349 1.00434,3.01306 1.00429,0.33471 2.00865,-1.00436 3.01301,-1.00436 1.00434,0 2.3435,0.33472 3.68262,0.33472 1.00435,0.33473 2.34349,0 3.34783,0.33473 1.00435,0 1.67391,0.66958 2.34345,0.66958 0.66956,0.33474 1.6739,0.66956 2.34348,0.66956 0.66958,-0.33473 0.66958,-2.34347 1.67391,-2.0087 1.00436,0 1.00436,1.67392 2.0087,2.34348 1.33913,0.66958 3.34785,0 4.68697,0.66958 1.00432,1.00429 1.67389,3.013011 2.00865,4.352141 1.00437,2.67826 1.00437,5.02176 1.67393,7.70004 0.33472,1.33907 0.33472,3.34779 1.67393,4.35212 0.66956,0.66958 2.34347,0.66958 3.68261,1.00436 1.6739,0 3.34776,-0.66958 4.6869,-0.33474 1.33912,0.33474 3.34784,1.00436 3.68262,2.3435 0.66958,1.67392 -1.33914,3.34783 -1.33914,5.02175 0,1.33907 1.00436,2.34343 0.66958,3.68257 0,1.00436 -1.00436,2.00869 -1.00436,3.34783 -0.33473,0.66958 1.00436,1.00437 0.66956,1.67392 -0.33473,0.66958 -1.33914,0.33473 -1.67389,1.00436 -0.33477,0.66956 -0.33477,1.67392 0,2.67821 0,1.00436 0,2.00872 1.00433,2.3435 1.33914,0.33473 3.34786,-1.33914 4.68697,-0.66958 1.67395,1.00435 2.3435,3.34784 3.01306,5.02177 0.66958,1.00434 1.00429,2.34348 1.00429,3.34783 -0.33471,0.66956 -1.33907,1.00435 -1.33907,1.67388 -0.33473,1.00433 0.33471,2.0087 0.33471,3.34784 0,1.00433 -0.33471,2.00869 -0.66955,3.01305 -0.66956,1.33914 -1.00435,2.34348 -2.0087,3.34783 -0.66956,0.66956 -1.33914,1.00436 -2.34349,1.33914 -1.00434,0.33474 -2.34348,0 -3.68262,0.33474 -1.33914,0.66951 -2.34349,2.00865 -3.34779,2.67821 -1.00435,0.66956 -1.6739,1.67391 -2.67823,2.34349 -1.33914,1.00434 -3.01305,1.67392 -4.687,2.67825 -0.66956,0.66959 -1.00435,1.67393 -2.00869,2.67828 -0.66956,1.00437 -1.67387,2.00865 -2.34343,3.01302 -0.66958,0.66956 -1.00434,1.33914 -1.67392,2.00869 -1.00436,1.00436 -2.00872,1.33914 -3.01305,2.0087 -0.66956,1.00435 -1.00437,2.34349 -1.67393,3.01305 -0.66958,1.00435 -1.67393,1.33914 -2.34349,2.34349 -0.66956,1.00435 -0.66956,2.67822 -1.67392,3.68258 -1.00429,1.00433 -2.67823,0.66956 -3.34779,1.67391 -1.00435,0.66956 -1.00435,2.0087 -1.33914,3.01306 -0.3347,0.66956 -1.00435,1.67391 -0.3347,2.0087 0.66955,0.66958 1.67391,-0.66956 2.34347,-0.33474 0.66958,0 1.00434,1.00436 1.33913,1.00436 0.66956,0 1.00428,-0.66956 1.3391,-1.00436 0.33471,-0.33473 0.33471,-1.00433 0.66956,-1.33914 0.66955,-0.33471 1.67392,-0.66956 2.3435,-0.66956 0.66956,0 0.66956,1.00437 1.33911,1.33914 0.33473,0.33474 1.00436,0.33474 1.33914,0.66956 0.66956,0.66958 0.33473,1.67392 1.00436,2.3435 0.66955,0.66951 2.00869,0.66951 2.34347,1.00429 0.66958,0.66958 0.66958,1.67392 1.00436,2.3435 0.33474,1.00433 0.66956,2.0087 1.00436,2.34347 0.33473,0.33474 1.00429,0.33474 1.67385,0 0.33474,0 1.00437,-0.33473 1.67393,-0.66956 0.33472,-0.33473 0.66956,-0.33473 0.66956,-0.66958 0.33474,-0.33473 0,-1.00433 0,-1.33914 0.33474,-0.3347 0.66956,-0.3347 1.00437,-0.3347 0.66956,0 2.00869,0 2.00869,0.66956 0.33474,0.66955 -1.00436,1.33913 -1.33913,2.00869 0,0.66958 0.33474,1.33914 0.66958,1.67391 1.00433,1.33914 2.34347,2.67828 4.01737,3.34786 1.00435,0.66956 2.67821,0.66956 3.68256,1.33912 1.00436,0.66958 2.0087,1.67388 2.67828,2.34344 0.66955,1.00435 1.00436,2.0087 2.00872,2.67826 1.00434,1.00436 2.67825,1.00436 3.68261,2.3435 1.33914,1.00436 1.33914,3.01305 2.34343,4.35219 2.67828,3.68257 6.3609,1.67388 3.68262,6.02604 0,0.33474 -0.66956,0.66959 -1.00434,1.00437 -0.66958,0.33473 -1.00436,0.33473 -1.33917,0.66958 -0.3347,0.66956 -0.66955,1.00433 -0.66955,1.67391 0,0.66956 -0.33473,1.67393 0,2.67826 0,0.66958 0.66955,1.33909 1.00436,1.67387 0.66956,0.33473 1.00436,0.33473 1.67391,0 0.33474,0 0.66958,-0.66955 1.00435,-1.00429 1.00435,-0.33473 2.00872,-0.66958 2.6783,-1.00436 1.00433,-0.66955 2.34347,-1.33914 3.01305,-2.34348 0.66955,-0.66958 0.66955,-1.67391 0.66955,-2.67827 0.33474,-0.66959 0.33474,-1.33914 0.33474,-2.0087 0.33473,-0.66958 0.66956,-1.33914 0.66956,-2.00872 0.66954,-1.33914 1.67387,-2.67821 1.67387,-4.01735 0.33474,-0.66958 -0.66958,-1.33914 -0.66958,-2.34349 0,-0.66956 0.66958,-1.00434 0.66958,-1.33914 0.33474,-1.00434 0.33474,-2.00869 1.00436,-3.01304 0.66956,-1.33914 2.0087,-3.013 3.01305,-4.35214 0.66956,-0.66956 1.67393,-0.66956 2.0087,-1.00437 0.66956,-0.3347 1.00436,-0.66955 1.33911,-1.33912 0.33477,-0.66957 0,-1.67393 0.33477,-2.67826 0.33472,-1.00436 1.33914,-1.67392 1.67389,-2.67827 0.33474,-0.66956 1.00436,-1.00437 1.00436,-2.0087 0,-0.33474 -0.66956,-0.66958 -0.66956,-1.00432 -0.66955,-0.66956 -1.00436,-1.33912 -1.33914,-2.34347 0,-0.33474 -0.33473,-0.66958 0,-1.00436 1.00434,0 2.0087,0 2.67824,0.66958 1.00433,1.00434 0.66955,2.34348 1.33911,3.34779 0.66958,0.66955 1.33914,1.00434 1.67394,1.00434 0.66955,0 0.33471,-0.66956 0.33471,-1.00434 0.33474,-0.33474 0,-1.3391 0.33474,-1.00431 0.66958,0 0.66958,1.00431 1.33914,1.33909 0.33473,0 0.66956,-1.00432 1.00435,-0.66958 0.33474,0.33473 0.33474,1.00435 0,1.67391 -0.33473,0.33474 -1.67391,0 -2.00871,0.66958 -0.33474,0.33474 0.33473,1.33914 0,2.0087 -0.33474,0.66956 -1.00434,1.00436 -1.67389,2.00869 -0.33477,0.33474 0,1.00436 -0.66958,1.33914 -1.00432,0.66958 -2.67821,0 -3.34779,1.00436 -0.66958,1.00436 0.66958,2.67827 0.33472,3.68257 -0.33472,0.66956 -1.67391,0.33474 -2.34349,0.66956 -0.66956,0.33474 -1.00436,1.00435 -1.33911,1.33914 -1.00437,1.00435 -2.6783,1.67391 -3.68265,2.67827 -0.33472,0.66956 -0.33472,1.67392 0,2.3435 0.66958,0.66955 2.0087,1.00434 2.67828,0.33474 0.66956,0 0.66956,-1.33917 1.33912,-2.00872 0.66958,-0.66956 1.67394,-1.33914 2.3435,-2.0087 1.33914,-0.66958 2.34349,-1.33914 3.34784,-2.34349 1.0043,-0.66956 1.33909,-1.67386 2.00865,-2.34344 1.00435,-1.00435 2.00872,-1.00435 2.67827,-1.67391 1.00433,-1.33914 1.67391,-2.67828 2.3435,-4.3522 0.66955,-0.66956 1.33913,-1.67391 1.33913,-2.67828 0.66956,-1.33911 0.66956,-2.67821 1.00435,-4.01734 0,-0.33473 -0.33474,-1.00434 0,-1.33914 0.33472,-0.66956 1.33913,-0.66956 1.67391,-1.33914 0.33474,-0.33471 0.33474,-1.00433 0.66956,-1.33912 0.66958,-1.00435 1.6739,-1.00435 2.00865,-2.00872 0.33474,-0.66955 -0.66956,-1.67391 -0.66956,-2.34347 0,-0.33473 0,-1.00436 0.33474,-1.00436 0.66956,0 1.33914,0.66958 2.34347,0.66958 0.66958,-0.33473 1.00436,-1.33914 1.33914,-1.67387 0.66955,-1.00436 1.33913,-1.67392 2.00872,-2.3435 1.33913,-0.66956 2.67827,-0.66956 4.01739,-1.33914 0.66958,-0.66956 1.33914,-1.67391 2.00865,-2.67825 0.33474,-0.66958 1.00436,-1.33914 1.33914,-2.00872 0.33474,-1.33913 0,-2.67826 0.33474,-3.68256 0.33472,-1.67393 1.33914,-3.01307 1.33914,-4.68698 0.33472,-1.00434 -0.66959,-1.33914 -0.66959,-2.34347 0.33476,-1.00436 1.67392,-2.00872 1.67392,-3.34785 0,-0.66956 -1.00433,-1.33909 -1.00433,-2.00864 -0.33474,-1.33913 -0.33474,-2.67827 -0.33474,-4.01741 0,-1.33914 0,-2.3435 0.33474,-3.68264 0,-1.67391 0.33472,-3.01303 1.00433,-4.68691 0.33474,-1.00435 2.00872,-1.33913 2.00872,-2.67827 0,-0.66956 -1.33914,-1.00436 -2.00872,-1.67391 v -1.00437 c 0.33474,-0.33473 0.66958,-0.66956 1.00436,-1.00433 1.33914,0 2.67828,2.34347 4.01742,2.0087 2.00869,-0.33474 1.67391,-3.34784 2.67821,-4.68698 1.33916,-1.33909 2.67827,-2.00865 4.35218,-3.01301 1.67393,-1.33914 3.68264,-2.34347 5.69133,-3.68261 1.00437,-0.66958 2.00866,-1.67393 3.013,-2.34351 0.66958,-0.66955 1.33916,-1.33913 2.34349,-1.67391 1.00436,-0.66956 2.34348,-1.00434 3.68262,-1.67392 1.00435,-0.66956 2.00872,-2.00865 3.34785,-2.00865 1.33907,-0.33473 3.01299,0.66958 4.35213,0.66958 1.33913,0 3.01306,0 4.01741,-0.66958 1.33912,-0.66956 1.67392,-2.34347 2.67825,-3.01305 1.00437,-1.00434 2.67824,-1.00434 3.68258,-2.0087 0.66958,-0.66958 0.33473,-1.67391 1.00435,-2.67827 0.33474,-0.66956 0.66958,-1.33914 1.33914,-1.67392 1.00437,0 2.0087,0.66956 3.01306,1.00436 0.66958,0 1.67391,0.66956 2.67828,0.66956 0.66956,0 1.33912,-1.33914 2.34342,-1.67392 0.66958,0 1.67393,0 2.34348,0.33473 0.66959,0.33474 0.66959,1.33914 1.33917,2.0087 0.3347,0.33474 1.00433,0.66958 1.67388,0.66958 1.67393,-0.33473 3.68265,-0.33473 5.02177,-1.33914 0.66956,-0.33473 0.33474,-1.67391 1.0043,-2.00872 0.66956,0 1.00437,1.33914 1.67392,1.67395 1.00436,0.3347 2.67828,0.3347 3.68264,0.66955 1.00433,0.33473 1.33913,1.67392 2.00869,1.33914 1.67391,-0.33474 3.34784,-1.33914 4.35219,-2.67827 0.66951,-1.00437 0,-2.67821 0.66951,-3.34779 0.66956,-1.00434 2.0087,-1.00434 2.67826,-1.67393 2.3435,-1.00435 4.68699,-1.67391 6.36092,-3.34783 0.66955,-0.33473 0.33472,-1.33914 0.33472,-2.0087 0,-0.66955 -1.00435,-0.66955 -1.00435,-1.00437 0,-0.66956 0.66956,-1.673901 1.33914,-1.673901 0.66956,0 1.33914,1.673901 1.67386,1.004341 0.66957,-0.66956 -0.33472,-2.008651 0,-3.347791 0,-0.33472 0.33474,-1.00434 0.66957,-1.67392 1.00434,-1.33915 2.00869,-2.67826 3.34783,-4.0174 1.00436,-1.33914 2.67827,-2.678278 3.68262,-4.017416 0.33474,-0.669513 0.33474,-1.673844 1.00435,-2.343425 1.33914,-1.673918 3.01299,-3.682615 4.35216,-5.356554 1.67388,-1.673916 3.34783,-3.013054 4.35218,-4.686905 1.00435,-1.673917 1.00435,-3.682614 1.33914,-5.691331 0.33472,-1.339139 0,-3.013055 0.33472,-4.686973 0.33474,-1.673873 0.66958,-3.347767 1.67393,-4.686927 0.66956,-2.008697 2.0087,-3.682614 3.01307,-5.356531 1.00428,-1.004359 2.3434,-2.008719 2.6782,-3.34779 0.66956,-1.339139 0,-3.013055 0.33473,-4.352193 0.33472,-3.013055 1.33912,-5.691332 2.34348,-8.03474 0.66958,-2.343497 2.0087,-4.352194 2.67828,-6.360911 0.33472,-0.669581 1.00435,-1.339139 1.00435,-2.008697 0,-1.339138 -0.66958,-2.343497 -0.66958,-3.682591 0,-1.004337 1.00435,-2.008696 1.00435,-3.013055 -0.33472,-1.673895 -1.6739,-3.013033 -1.6739,-4.686951 0,-1.339138 0.66955,-3.013054 1.33913,-4.352148 0.33472,-2.343497 1.67393,-4.352194 1.67393,-6.3608898 0,-2.008718 -2.00872,-3.347834 -2.00872,-5.356486 0,-1.673917 1.33914,-3.34783401 2.00872,-5.0217514 0.33472,-1.004359 0.33472,-2.008696 0.66955,-2.678276 0.66959,-0.669558 2.00866,-1.004359 2.00866,-1.673917 0,-1.004359 -1.33907,-1.673872 -1.33907,-2.678232 0,-0.669558 1.00428,-1.6739158 1.67384,-1.339116 1.33914,0.669558 0.66958,3.012989 2.0087,3.682547 1.00436,0.66958 2.67829,-0.334735 3.68264,-1.004337 1.00435,-0.669513 1.67391,-2.008652 2.67827,-2.67821 1.67392,-1.6739388 3.68254,-2.3434968 5.02171,-4.0174138 1.33913,-1.339138 2.00869,-3.347834 3.01306,-5.021751 v -0.334735 c 0,-1.004359 0.33472,-2.343497 0.66955,-3.347856 0.33473,-1.004337 1.33914,-2.008696 1.67392,-3.347834 0.33474,-0.669558 -0.33473,-1.339116 0,-1.673917 0.66955,-0.334735 1.33914,1.004359 1.67392,0.669558 1.00435,-0.669558 1.00435,-2.343475 1.67393,-3.347813 1.0043,-1.004314 2.34342,-2.008652 3.68256,-3.01301 2.00871,-2.008697 4.01741,-4.017393 6.3609,-5.691332 1.00433,-0.669558 2.0087,-1.339116 3.013,-2.343475 0.66958,-0.66958 0.33472,-2.008653 1.00435,-2.678232 0.66956,-0.334736 1.67392,0 2.34349,-0.334736 0.66956,-0.669558 1.33912,-1.339116 1.67393,-2.343474 0.33474,-0.334736 -0.33477,-1.339138 0,-2.008696 1.33913,-1.673939 3.34783,-2.678299 4.68695,-4.3522 1.33913,-1.33916 2.67823,-3.013011 3.34779,-4.686928 1.33916,-2.008697 1.67391,-4.017393 2.67827,-6.36089 1.00433,-2.343497 2.3435,-4.686928 3.01305,-7.365203 0.33474,-2.678255 0.33474,-5.35653 0,-7.699962 0,-3.347834 0,-6.360889 -0.33472,-9.708745 -0.33474,-1.673847 -0.66956,-3.682567 -1.00435,-5.691267 -0.33473,-1.33914 -0.33473,-2.67828 -0.66958,-4.35219 -1.00435,-2.678261 -2.00869,-5.356491 -3.34783,-7.699991 -0.66958,-1.00435 -1.67391,-1.67391 -2.67823,-2.00869 -2.67826,-1.00436 -5.35654,-1.33914 -8.03481,-1.67392 -2.0087,-0.33473 -4.01735,0.66956 -6.02605,0.33474 -2.34349,-0.66958 -4.35218,-2.3435 -6.3609,-3.34784 -2.34347,-1.67387 -4.01735,-3.34779 -6.02605,-4.68693 -2.34349,-1.67391 -4.35219,-3.34783 -6.36091,-5.35655 -2.00869,-1.67389 -3.68255,-3.68257 -5.69127,-5.69126 -1.67388,-1.33914 -3.34783,-3.01306 -5.35653,-4.01741 -2.00872,-1.33912 -4.68692,-1.33912 -7.03039,-2.34348 -1.33917,-1.00436 -2.67828,-2.34343 -4.3522,-3.01298 -2.00872,-0.66959 -4.01737,-0.66959 -6.02607,-1.00437 -2.0087,0 -4.35217,0.33472 -6.36089,0.66956 -1.33913,0.33474 -2.67827,1.67388 -4.35213,1.67388 -1.67393,-0.33474 -3.01305,-2.00866 -4.68698,-2.67824 -1.00434,-0.33474 -2.34348,-1.00434 -3.68262,-1.00434 -1.33914,-0.33474 -3.013,0.66956 -4.35214,0.33474 -0.66956,-0.33474 -1.00435,-1.67393 -1.67391,-1.67393 -1.33913,-0.66956 -3.01305,0 -4.35218,-0.33472 -0.66958,-0.33474 -0.66958,-1.67393 -1.33917,-2.0087 -1.6739,-0.66958 -3.68255,-0.66958 -5.35646,-1.33914 -0.33474,0 -0.66958,-1.00435 -1.33914,-1.00435 -0.66955,0.33473 -0.33474,2.0087 -1.00436,2.34349 -1.00433,0.33472 -2.0087,-0.33474 -2.67826,-1.00435 -0.66958,-0.33474 -0.33472,-2.0087 -1.00435,-1.67395 -1.00437,0.66958 -0.66958,2.34351 -1.33914,3.34786 -0.66956,0.33474 -1.33909,0.33474 -2.00865,0 -0.66958,0 -1.33914,-0.66956 -1.67395,-1.00435 -0.66955,-0.33474 -1.33911,-0.66956 -2.00869,-0.33474 -0.66956,1.00435 -0.66956,2.67828 -1.00436,4.0174 -0.66955,1.00434 -1.00434,2.0087 -2.00869,3.01306 -0.66956,0.66952 -2.0087,1.0043 -2.67826,2.00865 -0.66955,1.33914 -0.33474,5.69134 -1.00436,4.3522 -0.66956,-1.67392 0,-3.68261 0.66956,-5.35655 0,-0.66952 0.66958,-1.67388 1.00436,-2.67822 0.33474,-0.66956 0,-1.33914 0.33474,-2.0087 0.33473,-1.00435 1.00436,-2.0087 1.67391,-3.01305 0.33474,-0.66957 1.00435,-1.33915 1.67393,-2.0087 0.33472,-0.33474 1.33912,-0.66958 1.33912,-1.00435 -0.33472,-0.66958 -1.00435,-1.33913 -1.67391,-1.33913 -0.66956,0.33473 -1.33914,2.00869 -2.00869,1.33913 -0.66959,-0.33474 0.33473,-1.33913 0.66955,-2.00865 0.33474,-0.66958 1.33914,-1.00436 1.33914,-1.67393 0,-1.00437 -0.66956,-1.67392 -1.33914,-2.34348 -0.33471,-0.33474 -1.33914,0 -1.67391,-0.33474 -0.66956,-1.00436 -1.00436,-2.34349 -1.67392,-3.01305 -0.33474,-0.33474 -1.00433,0 -1.33909,-0.33474 -0.66956,0 -1.00434,-1.00436 -1.67391,-0.66956 -1.00435,0 -1.67393,0.66956 -2.0087,1.67392 -0.33474,1.00434 1.33914,2.67828 0.33472,3.01305 -1.33913,0.33474 -2.00871,-1.67391 -2.34346,-2.67827 -0.33474,-1.00436 1.33911,-1.67391 1.33911,-2.67826 -0.33472,-0.66958 -1.00436,-1.00435 -2.0087,-1.00435 -0.33473,-0.33474 -0.33473,0.66956 -0.66955,0.66956 -0.66958,-0.33474 0,-1.67393 -0.66958,-1.67393 -1.00435,-0.33472 -2.0087,0.66958 -3.01307,0.66958 -1.00428,0 -2.00865,-1.33909 -3.013,-1.33909 -0.33472,0 -0.66956,1.33909 -1.00437,1.0043 -0.66955,-0.66956 0,-2.34344 -0.66955,-2.67821 -1.00433,-0.33474 -2.0087,1.67391 -3.01305,1.33914 -1.00435,-0.33474 -1.00435,-2.67828 -2.34348,-3.34784 -1.67392,-1.00436 -3.34779,-1.00436 -5.35649,-1.33914 -1.67393,-0.66958 -3.34784,-1.67392 -5.02175,-2.00871 -0.66958,0 1.00435,1.67391 0.33472,1.33913 -1.33912,0 -2.67825,-1.67392 -4.01739,-2.00869 -1.00432,0 -1.3391,1.33911 -1.67388,1.33911 -1.00435,0.66958 -2.0087,0.33477 -2.67828,1.00436 -1.00435,0.33474 -1.33914,1.33914 -2.00869,2.00869 -1.00436,1.00437 -2.00872,2.00872 -3.01305,3.01309 -0.66958,0.66951 -2.00872,1.33907 -2.00872,2.00865 0,1.67391 3.01305,2.67825 2.00872,3.68261 -0.66958,1.00436 -2.34349,-1.33914 -3.34779,-1.33914 -1.33914,0.33474 -2.0087,2.0087 -3.01307,2.67828 -0.66958,0.33473 -1.00433,0 -1.33913,0 -1.33914,0 -2.67826,-0.33473 -4.0174,0.33473 -1.33913,0.33474 -2.34349,2.0087 -3.68258,2.67828 -1.00434,0.33472 -2.0087,0 -3.01306,0 -1.33912,0 -2.67826,-1.00436 -4.01738,-0.66958 -1.00437,0.66958 -0.66959,3.34779 -2.00872,3.01305 -2.0087,0 -2.34342,-3.34783 -4.01735,-3.68261 -1.00434,-0.33474 -1.00434,2.34347 -2.0087,2.67826 -1.00436,0.33473 -1.67392,-1.00434 -1.67392,-2.0087 0.33474,-1.00436 2.3435,-1.00436 3.01306,-2.34348 0.33473,-1.00435 0.33473,-2.67828 0,-3.68263 -0.33474,-1.00435 -0.66956,-2.34347 -1.67392,-2.34347 -2.67828,0 -5.02177,1.67391 -7.69998,2.67825 -2.3435,0.66957 -5.02176,2.00871 -7.36525,2.3435 -1.67392,0.33474 -3.34783,1.00435 -4.68691,0 -0.66955,-0.33474 1.00429,-1.67393 1.67385,-2.0087 1.67394,-0.66958 4.01741,0.33472 5.69134,-0.66958 1.33914,-1.33912 1.33914,-3.34777 2.00872,-5.35649 0,-0.33474 0,-1.00435 0.3347,-1.33913 1.33914,-2.34347 2.67823,-5.02175 4.35216,-7.03045 2.00869,-2.67823 4.01739,-4.68693 6.36088,-7.03041 1.00437,-1.00435 2.67825,-1.67393 3.68257,-3.01305 2.0087,-1.67394 3.34784,-3.68259 4.68698,-5.69129 1.33914,-1.67391 3.01305,-3.68261 3.34783,-6.02611 0,-1.33914 -1.00436,-2.67826 -2.00869,-3.34779 -2.00872,-1.00435 -4.3522,0.33474 -6.02612,-0.66956 -1.33907,-0.66956 -1.67387,-2.34349 -2.00865,-3.68261 -0.33474,-0.66958 0.33473,-1.33914 0.33473,-2.3435 -0.33473,-1.33914 -1.00435,-2.67827 -1.67391,-4.0174 -1.00437,-2.00867 -2.0087,-3.68258 -2.67828,-6.02606 -0.33471,-2.00868 -0.33471,-4.0174 -0.66955,-6.0261 -0.33474,-1.33909 0,-3.01302 -0.66959,-4.35215 -1.00434,-2.0087 -2.34348,-5.02175 -4.68692,-5.35654 -1.33914,0 1.67386,3.34784 1.00431,4.68698 -0.66957,1.00436 -1.67387,-2.34349 -2.67821,-2.00872 -2.3435,1.67394 -3.68263,4.68699 -5.35655,7.03043 -1.67392,3.01305 -3.34785,6.0261 -5.02171,9.03916 -0.66956,1.67391 -1.33914,3.013 -2.0087,4.35213 -0.66958,1.33913 -0.66958,3.01305 -1.67391,3.68263 -1.33914,1.00434 -3.34785,1.67389 -5.02178,1.33914 -1.67391,-0.33474 -2.00869,-2.3435 -3.34776,-2.6783 -0.66958,-0.33474 -1.33917,1.00436 -2.00872,1.00436 -0.66958,0 -1.33914,-1.33912 -2.0087,-1.33912 -2.0087,0.33472 -3.01305,2.67826 -4.687,2.67826 -1.67388,0.33474 -2.6782,-1.33914 -4.35209,-2.0087 -0.33477,0 -1.00439,1.00436 -1.33916,0.66956 -1.67393,-1.00436 -2.67828,-4.0174 -4.68696,-4.0174 -2.67827,-0.33475 -5.35648,2.67828 -8.03476,3.01304 -1.33911,0 -2.34348,-2.34347 -3.34783,-2.00869 -1.67393,0.33474 -3.01304,1.67393 -3.34784,3.34785 0,1.67389 2.34349,3.01305 2.34349,4.68696 0,0.66958 -1.33913,1.33913 -2.00869,1.00435 -1.67389,-0.66956 -2.67823,-3.01305 -4.35214,-3.34784 -0.66959,-0.33472 0.66955,1.67393 0,2.34349 -0.66959,0.66958 -2.3435,1.33913 -3.68264,1.33913 -1.00436,0 -2.00869,-1.33913 -3.34783,-1.33913 -1.67392,-0.33472 -4.01735,-0.66956 -5.69127,0.33472 -0.66958,0.33477 1.00434,2.00867 0,2.34346 -1.67391,1.00434 -4.35221,0 -6.36091,0.66956 -0.66956,0 0.66958,1.33914 0,1.67391 -1.00434,0.33474 -2.00865,-1.00435 -2.67821,-0.66956 -2.00869,1.00435 -2.3435,3.68262 -4.3522,4.3522 -1.33911,0.66956 -3.34783,-0.33474 -4.68699,-1.00436 -2.00863,-1.00436 -4.01733,-2.34349 -5.35649,-4.01741 -1.00433,-1.00434 -1.33911,-2.34343 -1.67389,-3.68257 0,-1.33912 1.33912,-2.67825 1.00436,-4.01742 -0.33473,-1.00433 -2.3435,-1.33911 -2.67828,-2.34347 -0.66958,-1.67392 -1.00436,-4.01737 -1.00436,-5.69127 0.33474,-1.00435 1.67392,-1.33916 2.0087,-2.00871 0.66958,-1.00434 -0.33472,-2.0087 0.33474,-3.01305 1.00435,-1.33914 3.34782,-1.33914 3.68263,-2.67826 0.66956,-2.0087 -0.66958,-3.6826 -1.00434,-5.69129 -0.33475,-1.33912 -1.00436,-2.67826 -1.33916,-3.68261 -0.66956,-0.66958 -1.00433,-1.67395 -1.67389,-2.0087 -0.66958,-0.33474 -2.00874,0.33473 -2.67832,-0.33474 -1.33912,-1.33916 -2.00868,-3.013 -2.00868,-4.68692 -0.33474,-1.33914 1.33914,-2.3435 1.00437,-3.68263 -0.33474,-0.66956 -1.67393,-1.33912 -2.67822,-1.33912 -1.00436,0.33471 -1.33915,1.67391 -2.34349,2.34347 -0.66956,0.33474 -1.33914,0.33474 -2.0087,0 -1.00435,-0.33471 -1.67394,-2.34347 -2.00872,-1.67391 -0.66956,1.00435 1.00437,2.00869 1.00437,3.01305 0.33472,1.00436 0.33472,2.00869 -0.33474,2.67827 -1.00436,1.33908 -2.34347,2.34344 -4.01742,3.013 -1.67385,1.00435 -4.01735,1.00435 -5.69126,2.00869 -1.00434,0.66959 -1.00434,2.3435 -2.0087,3.01308 -1.33913,0.66956 -3.34785,0.66956 -4.68699,1.00436 -2.00865,0.33471 -3.68255,-0.66958 -5.35646,0 -1.67395,0.66956 -3.01307,1.67391 -4.01742,3.01305 -0.33474,1.0043 0.66956,2.00865 0.33473,3.013 -0.33473,0.66955 -1.33914,0.33472 -1.67391,0 -1.00438,-0.66958 -1.33916,-2.34348 -2.34348,-2.67824 -1.00431,-0.66955 -2.34345,0 -3.34782,-0.33471 -2.00869,-0.33474 -4.0174,-1.00437 -5.6913,-2.0087 -1.33918,-0.66958 -1.67391,-3.34786 -3.34784,-3.34786 -1.67387,0 -3.34779,2.00872 -4.35216,3.68264 -0.66956,1.00434 -0.33472,3.01299 0.66956,3.68257 1.33917,1.00435 3.6826,-0.66958 5.0217,0.66956 1.00439,0.66956 0.66956,2.34349 0.33476,3.68261 -0.33476,1.00436 -1.0043,1.67394 -1.67388,2.67829 -0.33471,1.00435 -1.00435,2.0087 -1.00435,3.34782 0,1.67387 0.33473,3.01301 0.66958,4.68692 0.3347,1.00437 0.66958,1.67393 1.33914,2.34351 0.33472,0.66956 1.33907,0.66956 2.00863,0.66956 0.6696,0.33472 1.67393,1.33913 2.67829,1.00435 0.66956,0 1.3391,-1.33914 2.0087,-1.33914 1.33914,0.33474 3.01305,2.0087 2.0087,2.67828 -1.67393,1.67392 -4.68698,0 -6.36092,1.67392 -2.3434,1.67385 -1.67389,6.02605 -4.01733,7.69996 -1.00437,1.00436 -1.00437,-2.67826 -2.34349,-2.67826 -1.33911,0 -1.67392,2.34348 -2.67828,3.34784 -2.34348,2.00869 -4.6869,3.34783 -6.69562,5.02171 -1.00434,1.00435 -1.33912,3.68261 -2.67825,3.34784 -1.67393,0 -0.66956,-3.01307 -2.00872,-4.0174 -1.00437,-0.66958 -2.34348,-1.00432 -3.34784,0 -1.00436,1.00433 0,4.35217 -1.67385,4.35217 -2.3435,0.33474 -3.68261,-2.34347 -5.69133,-3.68261 -1.67392,-1.00436 -3.68263,-1.67388 -4.68697,-3.34779 -0.66956,-0.66956 0.33471,-2.0087 0,-3.01306 -1.33916,-2.67825 -2.34347,-6.36089 -5.0217,-7.36521 -2.00872,-0.66955 -2.34351,4.01737 -4.3522,4.35216 -1.33914,0.33473 -1.67392,-2.3435 -3.01305,-3.01306 -1.0043,-0.33473 -2.34344,-0.33473 -2.67821,0.66956 -0.33474,1.00436 2.34342,3.01306 1.00433,3.34785 -4.35219,1.67393 -9.03914,0.66956 -13.72609,0.66956 -1.6739,0 -4.35218,-1.33911 -5.02176,0.33474 -1.00433,2.67825 -0.33471,6.02604 1.00437,9.03909 0.33472,1.00437 2.34349,0 3.34783,0 1.00435,-0.3347 2.00872,-1.00433 2.67828,-0.3347 1.00428,0.66956 0.66958,2.34347 0.66958,3.34783 -0.33474,1.00433 -1.00437,2.34347 -2.00872,2.34347 -1.00434,0 -1.67392,-2.34347 -3.01306,-2.34347 -1.67391,0.33473 -4.0174,1.33913 -4.68698,3.01305 -1.00435,2.67828 -0.3347,5.69127 0,8.36954 0.33474,1.00436 1.00437,1.67392 2.0087,2.67825 0.66958,0.33474 2.00872,0.33474 2.3435,1.33917 1.00436,1.00434 0.66956,2.34343 1.33914,3.68257 0.33471,1.00435 1.33912,1.67391 1.33912,2.67825 0,1.67392 -1.00434,3.01305 -1.00434,4.68698 0,1.33914 0.66958,3.01305 0.33473,4.35214 -1.00436,7.36525 -2.3435,15.06521 -4.01741,22.43041 -0.66956,3.01306 -0.66956,6.69569 -2.67825,8.70439 -1.0043,1.00436 -2.67824,-2.67828 -4.01738,-2.3435 -2.00869,0.33474 -2.67828,3.01306 -4.68697,3.34786 -1.00436,0.33471 -2.0087,-1.67394 -3.01305,-1.33914 -1.0043,0 -1.3391,1.33914 -2.34344,1.67389 -1.00435,0.66958 -2.34347,-0.33471 -3.34783,0 -2.0087,1.00436 -3.34784,2.67824 -5.02175,4.01737 -1.67395,1.33914 -3.6826,2.0087 -5.02174,3.68262 -1.673911,1.67391 -2.678254,4.01741 -3.347812,6.02606 -0.66958,1.67392 -1.004365,3.347841 -1.339138,5.021751 0,1.33914 0.334739,2.67828 0,4.01742 -0.334762,1.67392 -0.334762,3.682546 -1.673923,5.021706 -0.66957,1.339137 -3.013005,0.669558 -3.682586,2.008695 -1.004342,1.673918 -0.669558,3.682614 -0.669558,5.356553 0,1.004337 0.669558,2.343431 0,3.012989 -0.669557,1.004359 -2.343492,0.334735 -2.678254,1.339138 -0.334762,0.669558 0.334717,1.673917 0.669558,2.343475 0.669558,0.66958 1.673912,0.66958 2.343492,1.339138 0.669558,0.669581 0.334717,2.008718 0.669558,2.678276 0.334739,1.004338 0.669558,2.008696 1.339082,2.678277 z M 350.00555,-165.30091 c 1.00434,-1.67392 2.00869,-3.68262 3.34781,-5.35653 1.00436,-1.00436 2.67823,-4.01734 3.68259,-3.01301 1.33912,1.67387 -0.33473,4.35215 -1.00436,6.02606 -0.66954,2.0087 -2.00865,4.0174 -3.68256,5.35653 -1.33914,1.33907 -3.68265,4.68693 -5.02178,3.01302 -1.67392,-1.67395 1.67394,-4.01735 2.6783,-6.02607 z m 11.0478,-4.68697 c -0.33474,1.33914 1.00435,2.67828 1.00435,4.01742 -0.33474,1.33913 -2.00869,2.00869 -2.00869,3.01302 -0.33474,1.6739 0,3.6826 1.00434,5.02174 0.66956,0.66956 2.34347,0 3.01305,0.66956 0.66956,0.66955 -0.66958,2.0087 0,2.34349 1.67392,0.66956 3.34786,0 4.68693,0.33472 1.00434,0 1.67392,1.00435 2.67827,0.66958 0.66956,0 0.33472,-1.33914 1.00435,-2.0087 1.33912,-0.66958 2.67826,-0.33474 3.68263,-1.00437 1.33913,-0.33472 2.00869,-1.67391 3.34783,-1.67391 0.66951,0 1.00429,1.33914 2.00865,1.33914 0.66956,0 1.67391,-0.66956 2.0087,-1.67392 0,-1.00436 -1.67393,-2.67823 -1.00434,-3.68256 1.00434,-1.67393 3.68261,-1.67393 5.02175,-3.34786 1.33914,-1.67392 4.35212,-4.01739 3.01305,-6.02611 -1.67391,-2.34342 -6.02611,-3.013 -8.70439,-1.67386 -2.0087,1.33909 0,5.35649 -1.67391,7.36518 -0.66951,1.00437 -1.33909,-2.34347 -1.33909,-3.6826 0,-0.66959 1.67387,-0.33474 1.67387,-1.00437 0,-1.00435 -0.66957,-2.0087 -1.33907,-2.34342 -2.3435,-1.00435 -4.68698,-0.66958 -7.03047,-0.66958 -2.0087,-0.33472 -4.35215,-0.33472 -6.36084,0 -1.00436,0.33472 -1.67392,1.33909 -2.67825,2.00865 -0.66958,0.66958 -2.00872,1.00435 -2.00872,2.00872 z m 6.36091,-6.02607 c 2.00865,-0.33471 4.01734,0.33476 5.35646,-0.66955 1.00435,-0.66956 2.00869,-2.67826 1.33914,-3.34784 -1.67391,-1.33914 -4.35219,0.33473 -6.02611,-0.66956 -0.66949,-0.66958 2.00871,-3.01306 1.00436,-3.01306 -2.00866,0 -3.68257,1.33912 -5.02171,2.67826 -1.00433,0.66958 -2.0087,1.67394 -2.0087,3.01306 -0.33474,1.00435 0,2.34349 1.00437,2.67828 0.66955,0.33472 0.66955,-1.33914 1.00433,-2.0087 0.66956,-0.66958 0.66956,-1.67395 1.67392,-2.0087 0.33473,-0.33474 1.33913,0.33471 1.00435,1.00433 0,1.00437 -2.00871,1.67393 -1.67392,2.34348 0,1.00436 1.67392,0 2.34351,0 z m -9.03919,-0.33471 c -1.33912,0.33471 -0.66956,3.34776 0,4.35213 0.66958,1.00435 2.67828,0.33473 2.67828,-0.33472 0,-1.6739 -1.00434,-4.35215 -2.67828,-4.01737 z"
       inkscape:connector-curvature="0"
       style="fill:#6888be;fill-opacity:1;stroke:none;stroke-width:0.66956478" />
    <text
       xml:space="preserve"
       style="font-style:italic;font-variant:normal;font-weight:normal;font-stretch:normal;font-size:372.43148804px;line-height:1.25;font-family:'Handel Gothic Italic';-inkscape-font-specification:'Handel Gothic Italic, Italic';font-variant-ligatures:normal;font-variant-caps:normal;font-variant-numeric:normal;font-feature-settings:normal;text-align:start;letter-spacing:0px;word-spacing:0px;writing-mode:lr-tb;text-anchor:start;fill:#6888be;fill-opacity:1;stroke:none;stroke-width:0.79806745;stroke-opacity:1"
       x="864.38989"
       y="232.92346"
       id="text5140-1-8"
       transform="skewX(5.9999997)"><tspan
         sodipodi:role="line"
         id="tspan5138-3-1"
         x="864.38989"
         y="232.92346"
         style="font-style:italic;font-variant:normal;font-weight:normal;font-stretch:normal;font-size:372.43148804px;font-family:'Handel Gothic Italic';-inkscape-font-specification:'Handel Gothic Italic, Italic';font-variant-ligatures:normal;font-variant-caps:normal;font-variant-numeric:normal;font-feature-settings:normal;text-align:start;writing-mode:lr-tb;text-anchor:start;fill:#6888be;fill-opacity:1;stroke:none;stroke-width:0.79806745;stroke-opacity:1">br</tspan></text>
    <g
       transform="matrix(3.4880457,0,0,3.4880457,422.75504,-915.81784)"
       id="g867">
      <circle
         transform="matrix(0.29648325,0,0,0.29648325,-123.88712,249.80838)"
         r="250"
         cy="-111.22358"
         cx="686.18384"
         id="path4656"
         style="opacity:1;fill:url(#linearGradient4891);fill-opacity:1;stroke:#000000;stroke-width:0.5705443;stroke-miterlimit:4;stroke-dasharray:none;stroke-opacity:0.15384617;filter:url(#filter5112-3)" />
      <path
         style="fill:#6082bb;fill-opacity:0.28921569;stroke:none;stroke-width:0.0902089"
         inkscape:connector-curvature="0"
         d="m 55.373276,187.01498 c 0.09021,0.18041 0.27063,0.27062 0.405942,0.40593 0.0902,0.13532 0.180413,0.31573 0.270621,0.49616 0.09021,0.18041 0.27063,0.31573 0.27063,0.49615 0,0.13531 -0.225523,0.22552 -0.27063,0.36082 0,0.0902 0,0.18043 0.0451,0.31574 l 0.135315,0.13531 c 0.180419,0 0.225523,-0.18042 0.360835,-0.27062 h 0.225526 c 0.09021,0.0451 0.09021,0.22552 0.180416,0.22552 0.0451,0.0451 0.135315,-0.13532 0.225526,-0.0902 0.09021,0 0.180416,0.0451 0.225514,0.13531 0.135315,0.18042 0.09021,0.40595 0.225523,0.58636 0.09021,0.13532 0.27063,0.18042 0.451049,0.22553 0.135312,0 0.315731,-0.0451 0.405942,-0.13532 0.135312,-0.13531 0.135312,-0.31573 0.22552,-0.40594 0.09021,-0.0902 0.225526,-0.0451 0.315728,-0.0902 0.09021,-0.0451 0.180419,-0.13531 0.315734,-0.18042 0.0451,-0.0451 0.180419,-0.18042 0.22552,-0.13531 0.135315,0.18042 0.09021,0.40594 0.09021,0.58636 0.0451,0.54125 -0.135312,1.12761 0.0451,1.62376 0.0451,0.18042 0.315731,0.13531 0.496153,0.0902 0.180416,-0.0451 0.315731,-0.22552 0.496141,-0.22552 0.225523,-0.0451 0.451048,0 0.631464,0 0.270627,0.0451 0.586361,0.0451 0.856982,0.0451 0.315734,0.0451 0.631468,0.0902 0.947199,0 0.135312,0 0.270627,-0.18041 0.315731,-0.31573 0.09021,-0.0902 0,-0.27063 0.09021,-0.36084 0.0451,-0.0451 0.22552,-0.0451 0.315728,-0.0451 0.09021,0 0.135312,0.13532 0.180419,0.0902 0.180416,-0.0451 0.315734,-0.18042 0.405942,-0.27063 0.135315,-0.13531 0.180419,-0.36083 0.315734,-0.45104 0.09021,-0.0451 0.180416,0.13531 0.22552,0.0902 0.135315,-0.0902 0.180422,-0.27063 0.27063,-0.40595 0.135306,-0.13531 0.315725,-0.27062 0.45104,-0.31573 0.225523,-0.0902 0.496149,-0.13531 0.721672,-0.18042 0.135312,0 0.225523,-0.0451 0.360838,-0.0451 0.135315,0 0.270621,0.0451 0.405936,0.0451 0.09021,0 0.180419,-0.0902 0.270627,-0.0902 0.0451,-0.0451 0.135312,-0.13532 0.180419,-0.0451 0.135315,0.13531 0.180416,0.40594 0.180416,0.58636 0,0.18042 -0.180416,0.27063 -0.180416,0.40594 -0.0451,0.18042 0,0.36084 0.04509,0.49614 0.0451,0.13532 0.180419,0.18042 0.225526,0.31574 0.0451,0.13531 0.0451,0.27062 0,0.40594 -0.0451,0.0902 -0.225526,0.0451 -0.225526,0.13531 0,0.18042 0.09021,0.31573 0.135315,0.45105 0.09021,0.18041 0.09021,0.36083 0.225526,0.54125 0.135312,0.22552 0.315728,0.45104 0.541248,0.58635 0.180416,0.13532 0.405942,0.13532 0.586358,0.22553 0.09021,0.0902 0.0451,0.31573 0.180419,0.40594 0.135315,0.0902 0.315734,0.0902 0.451049,0.0451 0.180419,0 0.315731,-0.0451 0.45104,-0.0902 0.0451,0 0.09021,-0.0902 0.180416,-0.0902 0.180419,0.0451 0.405942,0.18041 0.586361,0.27062 0.135315,0.0902 0.180419,0.27063 0.315734,0.36084 0.135312,0.0451 0.270627,-0.0451 0.360835,0.0451 0.180413,0.0451 0.270621,0.27063 0.451039,0.31574 0.135315,0.0902 0.315734,0.13531 0.451049,0.13531 0.09021,0.0451 0.22552,-0.0451 0.315731,0.0451 0.180419,0.13531 0.270627,0.40594 0.496144,0.54125 0.135315,0.0902 0.360838,0.13531 0.586358,0.0902 0.09021,-0.0451 0.09021,-0.27062 0.225526,-0.27062 0.180416,-0.0451 0.315731,0.0902 0.49615,0.13531 0.135315,0.0902 0.270621,0.18041 0.405936,0.27062 0.180419,0.0902 0.451046,0.13531 0.541254,0.31573 0.09021,0.13532 -0.09021,0.36084 -0.0451,0.54126 0.0451,0.22552 0.225523,0.40594 0.315731,0.63146 0.0451,0.13531 0,0.36083 0,0.54125 0,0.0451 0.0451,0.0902 0,0.13532 -0.135315,0.0451 -0.270627,-0.0451 -0.360838,0 -0.0451,0.0451 0,0.18041 0.0451,0.22552 0.0451,0.0902 0.180416,0.13531 0.22552,0.27062 0.09021,0.18043 0.135315,0.40594 0.135315,0.63147 0.0451,0.18041 0,0.36083 0.0451,0.49615 0.04509,0.18042 0.180416,0.36083 0.315731,0.40594 0.360832,0.0902 0.766774,0 1.172716,0 0.360834,0.0451 0.721666,0.0451 1.082504,0.0451 0.09021,0.0451 0.315731,-0.0902 0.315731,0.0451 0.0451,0.13532 -0.225523,0.22553 -0.270627,0.40594 0,0.13531 0.135315,0.22552 0.180416,0.31573 0.09021,0.18042 0.09021,0.40594 0.180422,0.54126 0.09021,0.13531 0.22552,0.18041 0.360835,0.27062 0.135315,0.13532 0.225526,0.27063 0.360838,0.40594 0.135309,0.13531 0.270621,0.31573 0.360829,0.49615 0.09021,0.18042 0.09021,0.36084 0.09021,0.58636 0,0.18042 -0.0451,0.36084 -0.135315,0.54125 -0.0451,0.22552 -0.180416,0.45105 -0.270621,0.67657 -0.0451,0.27063 -0.135315,0.49615 -0.225523,0.72167 -0.0451,0.13531 -0.180419,0.31573 -0.135312,0.45104 0.0451,0.13532 0.22552,0.13532 0.315731,0.18042 0.0451,0.0902 0.0902,0.18042 0.0451,0.22552 -0.0451,0.0902 -0.180419,0 -0.27063,0.0902 -0.09021,0.0902 -0.135312,0.27063 -0.09021,0.40595 0,0.18041 0.135315,0.31573 0.180419,0.49614 0.0451,0.0902 0.09021,0.18042 0.135315,0.31573 0.04509,0.0902 0.135315,0.18042 0.135315,0.31574 0.0451,0.18041 0.0451,0.36083 0,0.58636 0,0.0902 -0.0451,0.18042 -0.09021,0.31572 0,0.0902 0.0451,0.22552 0.0451,0.31574 0,0.13531 -0.09021,0.27062 -0.09021,0.40594 0,0.13531 0,0.31573 0.135312,0.40594 0.135306,0.0451 0.270621,-0.13532 0.405936,-0.13532 0.135312,0 0.315734,0.0451 0.49615,0.0451 0.135315,0.0451 0.315734,0 0.451046,0.0451 0.135315,0 0.225523,0.0902 0.315728,0.0902 0.09021,0.0451 0.22552,0.0902 0.315731,0.0902 0.09021,-0.0451 0.09021,-0.31573 0.225523,-0.27063 0.135315,0 0.135315,0.22552 0.27063,0.31573 0.180416,0.0902 0.451046,0 0.631462,0.0902 0.135309,0.13531 0.22552,0.40594 0.270621,0.58636 0.135315,0.36083 0.135315,0.67656 0.225526,1.0374 0.0451,0.18041 0.0451,0.45104 0.225523,0.58635 0.09021,0.0902 0.31573,0.0902 0.496149,0.13532 0.225523,0 0.45104,-0.0902 0.631459,-0.0451 0.180416,0.0451 0.451046,0.13532 0.49615,0.31574 0.09021,0.22552 -0.180419,0.45104 -0.180419,0.67656 0,0.18041 0.135315,0.31573 0.09021,0.49615 0,0.13531 -0.135315,0.27063 -0.135315,0.45104 -0.0451,0.0902 0.135315,0.13532 0.09021,0.22553 -0.0451,0.0902 -0.180419,0.0451 -0.22552,0.13531 -0.0451,0.0902 -0.0451,0.22553 0,0.36083 0,0.13532 0,0.27063 0.135312,0.31574 0.180419,0.0451 0.451049,-0.18042 0.631465,-0.0902 0.225526,0.13532 0.315734,0.45105 0.405942,0.67658 0.09021,0.13531 0.135306,0.31573 0.135306,0.45104 -0.0451,0.0902 -0.18041,0.13531 -0.18041,0.22552 -0.0451,0.13531 0.0451,0.27063 0.0451,0.45104 0,0.13532 -0.0451,0.27063 -0.09021,0.40595 -0.09021,0.18042 -0.135312,0.31573 -0.270627,0.45104 -0.09021,0.0902 -0.180419,0.13532 -0.315734,0.18042 -0.135312,0.0451 -0.315731,0 -0.49615,0.0451 -0.180419,0.0902 -0.315734,0.27062 -0.45104,0.36083 -0.135315,0.0902 -0.225523,0.22552 -0.360835,0.31573 -0.180418,0.13531 -0.405941,0.22553 -0.631467,0.36084 -0.09021,0.0902 -0.135315,0.22552 -0.270627,0.36084 -0.09021,0.13531 -0.225517,0.27062 -0.315725,0.40593 -0.09021,0.0902 -0.135312,0.18042 -0.225523,0.27063 -0.135315,0.13531 -0.27063,0.18042 -0.405942,0.27063 -0.09021,0.13531 -0.135315,0.31573 -0.225523,0.40594 -0.09021,0.13531 -0.225526,0.18042 -0.315734,0.31573 -0.09021,0.13531 -0.09021,0.36083 -0.225523,0.49614 -0.135306,0.13532 -0.360832,0.0902 -0.45104,0.22553 -0.135312,0.0902 -0.135312,0.27062 -0.180419,0.40594 -0.0451,0.0902 -0.135315,0.22552 -0.0451,0.27063 0.09021,0.0902 0.225523,-0.0902 0.315731,-0.0451 0.09021,0 0.135312,0.13531 0.180419,0.13531 0.09021,0 0.135306,-0.0902 0.180413,-0.13531 0.0451,-0.0451 0.0451,-0.13531 0.09021,-0.18042 0.09021,-0.0451 0.225523,-0.0902 0.315734,-0.0902 0.09021,0 0.09021,0.13532 0.180416,0.18042 0.0451,0.0451 0.135315,0.0451 0.180419,0.0902 0.09021,0.0902 0.0451,0.22552 0.135315,0.31573 0.09021,0.0902 0.270627,0.0902 0.315731,0.13531 0.09021,0.0902 0.09021,0.22552 0.135315,0.31573 0.0451,0.13531 0.09021,0.27063 0.135315,0.31573 0.0451,0.0451 0.135306,0.0451 0.225514,0 0.0451,0 0.135315,-0.0451 0.225526,-0.0902 0.0451,-0.0451 0.09021,-0.0451 0.09021,-0.0902 0.0451,-0.0451 0,-0.13531 0,-0.18041 0.0451,-0.0451 0.09021,-0.0451 0.135315,-0.0451 0.09021,0 0.270626,0 0.270626,0.0902 0.0451,0.0902 -0.135315,0.18042 -0.180419,0.27063 0,0.0902 0.0451,0.18041 0.09021,0.22552 0.135312,0.18042 0.315731,0.36084 0.541254,0.45105 0.135315,0.0902 0.360829,0.0902 0.496144,0.18041 0.135315,0.0902 0.270627,0.22552 0.360838,0.31573 0.09021,0.13531 0.135315,0.27063 0.27063,0.36084 0.135312,0.13531 0.360835,0.13531 0.49615,0.31573 0.180419,0.13531 0.180419,0.40594 0.315725,0.58636 0.360838,0.49614 0.856988,0.22552 0.49615,0.81188 0,0.0451 -0.09021,0.0902 -0.135312,0.13531 -0.09021,0.0451 -0.135315,0.0451 -0.180422,0.0902 -0.0451,0.0902 -0.09021,0.13531 -0.09021,0.22552 0,0.0902 -0.0451,0.22553 0,0.36084 0,0.0902 0.09021,0.18041 0.135315,0.22552 0.09021,0.0451 0.135315,0.0451 0.225523,0 0.0451,0 0.09021,-0.0902 0.135312,-0.13531 0.135315,-0.0451 0.27063,-0.0902 0.360841,-0.13531 0.135312,-0.0902 0.315731,-0.18042 0.405942,-0.31574 0.09021,-0.0902 0.09021,-0.22552 0.09021,-0.36083 0.0451,-0.0902 0.0451,-0.18042 0.0451,-0.27063 0.0451,-0.0902 0.09021,-0.18042 0.09021,-0.27063 0.0902,-0.18042 0.225517,-0.36083 0.225517,-0.54125 0.0451,-0.0902 -0.09021,-0.18042 -0.09021,-0.31573 0,-0.0902 0.09021,-0.13532 0.09021,-0.18042 0.0451,-0.13531 0.0451,-0.27063 0.135315,-0.40594 0.09021,-0.18042 0.270627,-0.40594 0.405942,-0.58636 0.09021,-0.0902 0.225523,-0.0902 0.270627,-0.13531 0.09021,-0.0451 0.135315,-0.0902 0.180416,-0.18042 0.0451,-0.0902 0,-0.22552 0.0451,-0.36084 0.0451,-0.13531 0.180419,-0.22552 0.22552,-0.36083 0.0451,-0.0902 0.135315,-0.13532 0.135315,-0.27063 0,-0.0451 -0.09021,-0.0902 -0.09021,-0.13531 -0.09021,-0.0902 -0.135315,-0.18041 -0.180419,-0.31573 0,-0.0451 -0.0451,-0.0902 0,-0.13531 0.135312,0 0.270627,0 0.360832,0.0902 0.135312,0.13531 0.09021,0.31573 0.180416,0.45104 0.09021,0.0902 0.180418,0.13531 0.225525,0.13531 0.09021,0 0.0451,-0.0902 0.0451,-0.13531 0.0451,-0.0451 0,-0.18042 0.0451,-0.13531 0.09021,0 0.09021,0.13531 0.180419,0.18041 0.0451,0 0.09021,-0.13531 0.135315,-0.0902 0.0451,0.0451 0.0451,0.13531 0,0.22552 -0.0451,0.0451 -0.225523,0 -0.27063,0.0902 -0.0451,0.0451 0.0451,0.18042 0,0.27063 -0.0451,0.0902 -0.135312,0.13531 -0.22552,0.27063 -0.0451,0.0451 0,0.13531 -0.09021,0.18042 -0.135309,0.0902 -0.360829,0 -0.45104,0.13531 -0.09021,0.13532 0.09021,0.36084 0.0451,0.49615 -0.0451,0.0902 -0.225523,0.0451 -0.315734,0.0902 -0.09021,0.0451 -0.135315,0.13532 -0.180416,0.18042 -0.135315,0.13532 -0.360841,0.22553 -0.496153,0.36084 -0.0451,0.0902 -0.0451,0.22552 0,0.31573 0.09021,0.0902 0.270627,0.13532 0.360838,0.0451 0.09021,0 0.09021,-0.18042 0.180416,-0.27063 0.09021,-0.0902 0.225526,-0.18042 0.315734,-0.27062 0.180419,-0.0902 0.315734,-0.18042 0.451046,-0.31574 0.135309,-0.0902 0.180413,-0.22551 0.270621,-0.31572 0.135315,-0.13532 0.27063,-0.13532 0.360838,-0.22553 0.135312,-0.18041 0.225523,-0.36083 0.315734,-0.58636 0.09021,-0.0902 0.180419,-0.22552 0.180419,-0.36083 0.09021,-0.18042 0.09021,-0.36083 0.135311,-0.54125 0,-0.0451 -0.0451,-0.13532 0,-0.18042 0.0451,-0.0902 0.180419,-0.0902 0.225523,-0.18042 0.0451,-0.0451 0.0451,-0.13531 0.09021,-0.18042 0.09021,-0.13531 0.22552,-0.13531 0.270621,-0.27063 0.0451,-0.0902 -0.09021,-0.22552 -0.09021,-0.31573 0,-0.0451 0,-0.13531 0.0451,-0.13531 0.09021,0 0.180418,0.0902 0.31573,0.0902 0.09021,-0.0451 0.135315,-0.18042 0.180419,-0.22552 0.09021,-0.13531 0.180419,-0.22552 0.27063,-0.31573 0.180419,-0.0902 0.360838,-0.0902 0.541254,-0.18042 0.09021,-0.0902 0.180419,-0.22552 0.270621,-0.36084 0.0451,-0.0902 0.135315,-0.18041 0.180419,-0.27063 0.0451,-0.18041 0,-0.36083 0.0451,-0.49614 0.0451,-0.22552 0.180419,-0.40594 0.180419,-0.63146 0.0451,-0.13532 -0.09021,-0.18042 -0.09021,-0.31574 0.0451,-0.13531 0.225523,-0.27063 0.225523,-0.45104 0,-0.0902 -0.135312,-0.18041 -0.135312,-0.27062 -0.0451,-0.18042 -0.0451,-0.36084 -0.0451,-0.54126 0,-0.18042 0,-0.31573 0.0451,-0.49615 0,-0.22553 0.0451,-0.40594 0.135312,-0.63146 0.0451,-0.13531 0.27063,-0.18042 0.27063,-0.36084 0,-0.0902 -0.180419,-0.13531 -0.27063,-0.22552 v -0.13531 c 0.0451,-0.0451 0.09021,-0.0902 0.135315,-0.13532 0.180419,0 0.360838,0.31573 0.541257,0.27063 0.270627,-0.0451 0.225523,-0.45104 0.360829,-0.63146 0.180422,-0.18042 0.360838,-0.27062 0.586361,-0.40594 0.225523,-0.18042 0.496153,-0.31573 0.76678,-0.49615 0.135315,-0.0902 0.270621,-0.22552 0.405933,-0.31573 0.09021,-0.0902 0.180422,-0.18042 0.315734,-0.22553 0.135315,-0.0902 0.315731,-0.13531 0.496149,-0.22552 0.135315,-0.0902 0.27063,-0.27062 0.451049,-0.27062 0.18041,-0.0451 0.405933,0.0902 0.586352,0.0902 0.180419,0 0.405942,0 0.541257,-0.0902 0.180416,-0.0902 0.225523,-0.31573 0.360835,-0.40594 0.135315,-0.13531 0.360832,-0.13531 0.496144,-0.27063 0.09021,-0.0902 0.0451,-0.22552 0.135315,-0.36084 0.0451,-0.0902 0.09021,-0.18042 0.180417,-0.22552 0.13531,0 0.27063,0.0902 0.40594,0.13531 0.0902,0 0.22552,0.0902 0.36084,0.0902 0.0902,0 0.18042,-0.18042 0.31572,-0.22552 0.0902,0 0.22553,0 0.31574,0.0451 0.0902,0.0451 0.0902,0.18042 0.18042,0.27062 0.0451,0.0451 0.13531,0.0902 0.22552,0.0902 0.22552,-0.0451 0.49615,-0.0451 0.67657,-0.18042 0.0902,-0.0451 0.0451,-0.22553 0.13531,-0.27063 0.0902,0 0.13531,0.18042 0.22552,0.22552 0.13531,0.0451 0.36084,0.0451 0.49615,0.0902 0.13531,0.0451 0.18042,0.22552 0.27063,0.18042 0.22552,-0.0451 0.45104,-0.18042 0.58636,-0.36084 0.0902,-0.13531 0,-0.36083 0.0902,-0.45104 0.0902,-0.13531 0.27063,-0.13531 0.36084,-0.22552 0.31573,-0.13532 0.63146,-0.22552 0.85699,-0.45105 0.0902,-0.0451 0.0451,-0.18042 0.0451,-0.27062 0,-0.0902 -0.13531,-0.0902 -0.13531,-0.13532 0,-0.0902 0.0902,-0.22552 0.18042,-0.22552 0.0902,0 0.18042,0.22552 0.22552,0.13531 0.0902,-0.0902 -0.0451,-0.27062 0,-0.45104 0,-0.0451 0.0451,-0.13531 0.0902,-0.22552 0.13532,-0.18042 0.27063,-0.36084 0.45105,-0.54126 0.13531,-0.18042 0.36084,-0.36083 0.49615,-0.54125 0.0451,-0.0902 0.0451,-0.22552 0.13531,-0.31573 0.18042,-0.22552 0.40594,-0.49615 0.58636,-0.72167 0.22552,-0.22553 0.45105,-0.40595 0.58636,-0.63146 0.13531,-0.22552 0.13531,-0.49615 0.18042,-0.76678 0.0451,-0.18042 0,-0.40594 0.0451,-0.63147 0.0451,-0.22551 0.0902,-0.45103 0.22553,-0.63145 0.0902,-0.27063 0.27063,-0.49615 0.40594,-0.72168 0.13531,-0.13531 0.31572,-0.27063 0.36083,-0.45104 0.0902,-0.18042 0,-0.40594 0.0451,-0.58636 0.0451,-0.40594 0.18042,-0.76678 0.31573,-1.0825 0.0902,-0.31573 0.27063,-0.58636 0.36084,-0.85699 0.0451,-0.0902 0.13531,-0.18042 0.13531,-0.27063 0,-0.18042 -0.0902,-0.31573 -0.0902,-0.49614 0,-0.13532 0.13531,-0.27063 0.13531,-0.40595 -0.0451,-0.22552 -0.22552,-0.40593 -0.22552,-0.63146 0,-0.18042 0.0902,-0.40594 0.18042,-0.58635 0.0451,-0.31574 0.22553,-0.58636 0.22553,-0.85699 0,-0.27063 -0.27063,-0.45105 -0.27063,-0.72167 0,-0.22552 0.18042,-0.45104 0.27063,-0.67657 0.0451,-0.13531 0.0451,-0.27062 0.0902,-0.36083 0.0902,-0.0902 0.27063,-0.13532 0.27063,-0.22553 0,-0.13531 -0.18041,-0.22551 -0.18041,-0.36083 0,-0.0902 0.1353,-0.22552 0.22551,-0.18042 0.18042,0.0902 0.0902,0.40594 0.27063,0.49615 0.13531,0.0902 0.36084,-0.0451 0.49615,-0.13532 0.13531,-0.0902 0.22552,-0.27062 0.36084,-0.36083 0.22552,-0.22552 0.49614,-0.31573 0.67656,-0.54125 0.18042,-0.18042 0.27063,-0.45105 0.40594,-0.67657 v -0.0451 c 0,-0.13531 0.0451,-0.31573 0.0902,-0.45105 0.0451,-0.13531 0.18042,-0.27062 0.22552,-0.45104 0.0451,-0.0902 -0.0451,-0.18042 0,-0.22553 0.0902,-0.0451 0.18042,0.13532 0.22553,0.0902 0.13531,-0.0902 0.13531,-0.31573 0.22552,-0.45104 0.13531,-0.13531 0.31572,-0.27062 0.49614,-0.40594 0.27063,-0.27062 0.54126,-0.54125 0.85699,-0.76678 0.13532,-0.0902 0.27063,-0.18041 0.40594,-0.31573 0.0902,-0.0902 0.0451,-0.27062 0.13531,-0.36083 0.0902,-0.0451 0.22552,0 0.31574,-0.0451 0.0902,-0.0902 0.18041,-0.18041 0.22552,-0.31573 0.0451,-0.0451 -0.0451,-0.18042 0,-0.27063 0.18042,-0.22552 0.45104,-0.36084 0.63146,-0.58636 0.18042,-0.18042 0.36083,-0.40593 0.45104,-0.63146 0.18042,-0.27062 0.22552,-0.54125 0.36084,-0.85698 0.13531,-0.31574 0.31573,-0.63146 0.40594,-0.9923 0.0451,-0.36084 0.0451,-0.72167 0,-1.0374 0,-0.45104 0,-0.85699 -0.0451,-1.30804 -0.0451,-0.22551 -0.0902,-0.49614 -0.13531,-0.76677 -0.0451,-0.18042 -0.0451,-0.36083 -0.0902,-0.58636 -0.13532,-0.36083 -0.27063,-0.72166 -0.45105,-1.0374 -0.0902,-0.13531 -0.22552,-0.22552 -0.36083,-0.27062 -0.36083,-0.13532 -0.72167,-0.18042 -1.08251,-0.22553 -0.27063,-0.0451 -0.54125,0.0902 -0.81187,0.0451 -0.31574,-0.0902 -0.58637,-0.31573 -0.857,-0.45105 -0.31573,-0.22551 -0.54124,-0.45104 -0.81187,-0.63145 -0.31573,-0.22553 -0.58636,-0.45105 -0.85699,-0.72168 -0.27063,-0.22552 -0.49614,-0.49614 -0.76677,-0.76677 -0.22552,-0.18042 -0.45105,-0.40594 -0.72167,-0.54126 -0.27063,-0.18041 -0.63146,-0.18041 -0.94719,-0.31573 -0.18043,-0.13531 -0.36084,-0.31572 -0.58637,-0.40593 -0.27063,-0.0902 -0.54125,-0.0902 -0.81187,-0.13532 -0.27063,0 -0.58636,0.0451 -0.85699,0.0902 -0.18042,0.0451 -0.36084,0.22552 -0.58635,0.22552 -0.22553,-0.0451 -0.40595,-0.27062 -0.63147,-0.36083 -0.13531,-0.0451 -0.31573,-0.13532 -0.49615,-0.13532 -0.18042,-0.0451 -0.40593,0.0902 -0.58636,0.0451 -0.0902,-0.0451 -0.13531,-0.22552 -0.22552,-0.22552 -0.18041,-0.0902 -0.40594,0 -0.58636,-0.0451 -0.0902,-0.0451 -0.0902,-0.22552 -0.18042,-0.27063 -0.22552,-0.0902 -0.49614,-0.0902 -0.72166,-0.18041 -0.0451,0 -0.0902,-0.13532 -0.18042,-0.13532 -0.0902,0.0451 -0.0451,0.27063 -0.13532,0.31573 -0.13531,0.0451 -0.27062,-0.0451 -0.36083,-0.13531 -0.0902,-0.0451 -0.0451,-0.27063 -0.13532,-0.22553 -0.13531,0.0902 -0.0902,0.31574 -0.18042,0.45105 -0.0902,0.0451 -0.18041,0.0451 -0.27062,0 -0.0902,0 -0.18042,-0.0902 -0.22552,-0.13531 -0.0902,-0.0451 -0.18042,-0.0902 -0.27063,-0.0451 -0.0902,0.13531 -0.0902,0.36084 -0.13531,0.54126 -0.0902,0.13531 -0.13532,0.27062 -0.27063,0.40594 -0.0902,0.0902 -0.27063,0.1353 -0.36084,0.27062 -0.0902,0.18042 -0.0451,0.76678 -0.13531,0.58636 -0.0902,-0.22552 0,-0.49615 0.0902,-0.72168 0,-0.0902 0.0902,-0.22551 0.13531,-0.36082 0.0451,-0.0902 0,-0.18042 0.0451,-0.27063 0.0451,-0.13532 0.13531,-0.27063 0.22552,-0.40594 0.0451,-0.0902 0.13531,-0.18043 0.22553,-0.27063 0.0451,-0.0451 0.18041,-0.0902 0.18041,-0.13532 -0.0451,-0.0902 -0.13531,-0.18041 -0.22552,-0.18041 -0.0902,0.0451 -0.18042,0.27062 -0.27063,0.18041 -0.0902,-0.0451 0.0451,-0.18041 0.0902,-0.27062 0.0451,-0.0902 0.18042,-0.13531 0.18042,-0.22552 0,-0.13532 -0.0902,-0.22553 -0.18042,-0.31573 -0.0451,-0.0451 -0.18042,0 -0.22552,-0.0451 -0.0902,-0.13532 -0.13532,-0.31574 -0.22552,-0.40594 -0.0451,-0.0451 -0.13531,0 -0.18042,-0.0451 -0.0902,0 -0.13531,-0.13532 -0.22552,-0.0902 -0.13531,0 -0.22552,0.0902 -0.27063,0.22552 -0.0451,0.13532 0.18042,0.36084 0.0451,0.40595 -0.18042,0.0451 -0.27063,-0.22553 -0.31573,-0.36084 -0.0451,-0.13532 0.18042,-0.22553 0.18042,-0.36084 -0.0451,-0.0902 -0.13532,-0.13531 -0.27063,-0.13531 -0.0451,-0.0451 -0.0451,0.0902 -0.0902,0.0902 -0.0902,-0.0451 0,-0.22553 -0.0902,-0.22553 -0.13531,-0.0451 -0.270624,0.0902 -0.405939,0.0902 -0.135306,0 -0.270621,-0.18041 -0.405936,-0.18041 -0.0451,0 -0.09021,0.18041 -0.135315,0.13531 -0.09021,-0.0902 0,-0.31573 -0.09021,-0.36083 -0.135312,-0.0451 -0.270626,0.22552 -0.405941,0.18042 -0.135312,-0.0451 -0.135312,-0.36084 -0.315731,-0.45105 -0.225523,-0.13531 -0.45104,-0.13531 -0.721667,-0.18042 -0.225526,-0.0902 -0.451046,-0.22552 -0.676569,-0.27063 -0.09021,0 0.135312,0.22552 0.0451,0.18042 -0.180416,0 -0.360835,-0.22552 -0.541254,-0.27063 -0.135309,0 -0.180413,0.18042 -0.225517,0.18042 -0.135315,0.0902 -0.270627,0.0451 -0.360838,0.13531 -0.135315,0.0451 -0.180419,0.18042 -0.270627,0.27063 -0.135315,0.13532 -0.27063,0.27063 -0.405942,0.40595 -0.09021,0.0902 -0.27063,0.18041 -0.27063,0.27062 0,0.22552 0.405942,0.36083 0.27063,0.49615 -0.09021,0.13531 -0.315731,-0.18042 -0.45104,-0.18042 -0.180419,0.0451 -0.270627,0.27063 -0.405942,0.36084 -0.09021,0.0451 -0.135312,0 -0.180419,0 -0.180418,0 -0.360834,-0.0451 -0.541253,0.0451 -0.180419,0.0451 -0.315734,0.27063 -0.496147,0.36084 -0.135312,0.0451 -0.270627,0 -0.405942,0 -0.180416,0 -0.360835,-0.13531 -0.541254,-0.0902 -0.135315,0.0902 -0.09021,0.45104 -0.27063,0.40594 -0.270627,0 -0.315722,-0.45104 -0.541248,-0.49615 -0.135312,-0.0451 -0.135312,0.31573 -0.270627,0.36084 -0.135315,0.0451 -0.225523,-0.13531 -0.225523,-0.27063 0.0451,-0.13531 0.315734,-0.13531 0.405942,-0.31573 0.0451,-0.13531 0.0451,-0.36084 0,-0.49615 -0.0451,-0.13532 -0.09021,-0.31573 -0.225523,-0.31573 -0.360838,0 -0.676572,0.22552 -1.037401,0.36083 -0.315734,0.0902 -0.676569,0.27063 -0.992303,0.31574 -0.225522,0.0451 -0.451045,0.13531 -0.631455,0 -0.09021,-0.0451 0.135306,-0.22553 0.225514,-0.27063 0.225525,-0.0902 0.541256,0.0451 0.766779,-0.0902 0.180419,-0.18042 0.180419,-0.45104 0.27063,-0.72167 0,-0.0451 0,-0.13531 0.0451,-0.18042 0.180419,-0.31573 0.360832,-0.67657 0.586355,-0.94719 0.270627,-0.36084 0.541254,-0.63146 0.856988,-0.94719 0.135315,-0.13532 0.360835,-0.22553 0.496144,-0.40595 0.270627,-0.22552 0.451046,-0.49614 0.631465,-0.76677 0.180419,-0.22552 0.405942,-0.49615 0.451046,-0.81188 0,-0.18042 -0.135315,-0.36084 -0.270627,-0.45104 -0.27063,-0.13532 -0.586361,0.0451 -0.811884,-0.0902 -0.18041,-0.0902 -0.225517,-0.31574 -0.270621,-0.49615 -0.0451,-0.0902 0.0451,-0.18042 0.0451,-0.31574 -0.0451,-0.18041 -0.135315,-0.36083 -0.225523,-0.54125 -0.135315,-0.27062 -0.270627,-0.49615 -0.360838,-0.81188 -0.0451,-0.27062 -0.0451,-0.54125 -0.09021,-0.81188 -0.0451,-0.18041 0,-0.40594 -0.09021,-0.58636 -0.135312,-0.27062 -0.315731,-0.67656 -0.631459,-0.72167 -0.180419,0 0.225517,0.45105 0.135309,0.63147 -0.09021,0.13531 -0.225517,-0.31574 -0.360829,-0.27063 -0.315733,0.22552 -0.496152,0.63146 -0.721675,0.94719 -0.225523,0.40594 -0.451049,0.81188 -0.676563,1.21782 -0.09021,0.22553 -0.180419,0.40594 -0.270627,0.58636 -0.09021,0.18042 -0.09021,0.40594 -0.225523,0.49615 -0.180419,0.13531 -0.451049,0.22552 -0.676572,0.18042 -0.225523,-0.0451 -0.270627,-0.31574 -0.451037,-0.36084 -0.09021,-0.0451 -0.180422,0.13531 -0.27063,0.13531 -0.09021,0 -0.180419,-0.18041 -0.270627,-0.18041 -0.270627,0.0451 -0.405942,0.36083 -0.631468,0.36083 -0.22552,0.0451 -0.360829,-0.18042 -0.586349,-0.27063 -0.0451,0 -0.135318,0.13532 -0.180422,0.0902 -0.225523,-0.13531 -0.360837,-0.54125 -0.631464,-0.54125 -0.360838,-0.0451 -0.721667,0.36084 -1.082505,0.40594 -0.180416,0 -0.315731,-0.31573 -0.451046,-0.27063 -0.225523,0.0451 -0.405939,0.22553 -0.451046,0.45105 0,0.22552 0.315734,0.40594 0.315734,0.63146 0,0.0902 -0.180419,0.18042 -0.270627,0.13532 -0.22552,-0.0902 -0.360832,-0.40595 -0.586355,-0.45105 -0.09021,-0.0451 0.09021,0.22552 0,0.31573 -0.09021,0.0902 -0.315734,0.18042 -0.496153,0.18042 -0.135315,0 -0.270627,-0.18042 -0.451046,-0.18042 -0.225523,-0.0451 -0.541248,-0.0902 -0.766771,0.0451 -0.09021,0.0451 0.135312,0.27062 0,0.31573 -0.225523,0.13531 -0.586364,0 -0.85699,0.0902 -0.09021,0 0.09021,0.18041 0,0.22552 -0.135312,0.0451 -0.270621,-0.13532 -0.360829,-0.0902 -0.270627,0.13531 -0.315734,0.49615 -0.586361,0.58636 -0.180416,0.0902 -0.451046,-0.0451 -0.631465,-0.13531 -0.270621,-0.13532 -0.541248,-0.31574 -0.721667,-0.54126 -0.135315,-0.13531 -0.180419,-0.31573 -0.225523,-0.49614 0,-0.18042 0.180419,-0.36084 0.135315,-0.54126 -0.0451,-0.13531 -0.315734,-0.18042 -0.360838,-0.31573 -0.09021,-0.22553 -0.135315,-0.54125 -0.135315,-0.76677 0.0451,-0.13532 0.225523,-0.18043 0.270627,-0.27063 0.09021,-0.13532 -0.04509,-0.27063 0.0451,-0.40594 0.135315,-0.18042 0.451049,-0.18042 0.496153,-0.36084 0.09021,-0.27063 -0.09021,-0.49615 -0.135312,-0.76677 -0.0451,-0.18042 -0.135315,-0.36084 -0.180422,-0.49615 -0.09021,-0.0902 -0.135312,-0.22553 -0.22552,-0.27063 -0.09021,-0.0451 -0.270633,0.0451 -0.360841,-0.0451 -0.180419,-0.18042 -0.270627,-0.40593 -0.270627,-0.63146 -0.0451,-0.18042 0.180419,-0.31573 0.135315,-0.49615 -0.0451,-0.0902 -0.225523,-0.18042 -0.360829,-0.18042 -0.135315,0.0451 -0.180422,0.22553 -0.315734,0.31573 -0.09021,0.0451 -0.180419,0.0451 -0.270627,0 -0.135315,-0.0451 -0.225523,-0.31573 -0.27063,-0.22552 -0.09021,0.13532 0.135315,0.27063 0.135315,0.40594 0.0451,0.13532 0.0451,0.27063 -0.0451,0.36084 -0.135315,0.18041 -0.315731,0.31573 -0.541257,0.40593 -0.225514,0.13532 -0.541248,0.13532 -0.76677,0.27063 -0.135312,0.0902 -0.135312,0.31574 -0.270627,0.40595 -0.180419,0.0902 -0.451049,0.0902 -0.631468,0.13531 -0.270621,0.0451 -0.496141,-0.0902 -0.721664,0 -0.225526,0.0902 -0.405942,0.22552 -0.541257,0.40594 -0.0451,0.13531 0.09021,0.27062 0.0451,0.40594 -0.0451,0.0902 -0.180419,0.0451 -0.225523,0 -0.135315,-0.0902 -0.180419,-0.31573 -0.315728,-0.36084 -0.135312,-0.0902 -0.315731,0 -0.451046,-0.0451 -0.270627,-0.0451 -0.541257,-0.13532 -0.766777,-0.27063 -0.180422,-0.0902 -0.225523,-0.45105 -0.451043,-0.45105 -0.22552,0 -0.451042,0.27063 -0.586357,0.49616 -0.09021,0.13531 -0.0451,0.40593 0.09021,0.49614 0.180421,0.13531 0.496149,-0.0902 0.676562,0.0902 0.135315,0.0902 0.09021,0.31573 0.0451,0.49615 -0.0451,0.13531 -0.135307,0.22552 -0.225517,0.36084 -0.0451,0.13531 -0.135315,0.27063 -0.135315,0.45104 0,0.22552 0.0451,0.40594 0.09021,0.63146 0.0451,0.13532 0.09021,0.22552 0.180418,0.31573 0.0451,0.0902 0.180411,0.0902 0.270621,0.0902 0.09021,0.0451 0.225523,0.18042 0.360838,0.13532 0.09021,0 0.180416,-0.18042 0.270627,-0.18042 0.180419,0.0451 0.405942,0.27063 0.270627,0.36084 -0.225523,0.22552 -0.631465,0 -0.856988,0.22552 -0.315725,0.22551 -0.225522,0.81187 -0.541247,1.0374 -0.135315,0.13531 -0.135315,-0.36084 -0.315734,-0.36084 -0.180416,0 -0.225523,0.31573 -0.360835,0.45105 -0.315734,0.27063 -0.631459,0.45104 -0.902089,0.67656 -0.135312,0.13532 -0.180416,0.49615 -0.360835,0.45105 -0.225523,0 -0.09021,-0.40594 -0.27063,-0.54126 -0.135312,-0.0902 -0.315731,-0.13531 -0.451046,0 -0.135315,0.13532 0,0.58636 -0.225514,0.58636 -0.315734,0.0451 -0.49615,-0.31573 -0.76678,-0.49615 -0.225523,-0.13531 -0.496153,-0.22552 -0.631465,-0.45104 -0.09021,-0.0902 0.0451,-0.27063 0,-0.40594 -0.180419,-0.36084 -0.315728,-0.85699 -0.676563,-0.9923 -0.270626,-0.0902 -0.315733,0.54125 -0.58636,0.58636 -0.180419,0.0451 -0.225523,-0.31574 -0.405942,-0.40594 -0.135306,-0.0451 -0.315725,-0.0451 -0.360829,0.0902 -0.0451,0.13532 0.315725,0.40595 0.135312,0.45105 -0.586361,0.22553 -1.217823,0.0902 -1.849285,0.0902 -0.22552,0 -0.586358,-0.18042 -0.676569,0.0451 -0.135312,0.36083 -0.0451,0.81187 0.135315,1.21782 0.0451,0.13531 0.315734,0 0.451046,0 0.135315,-0.0451 0.27063,-0.13532 0.360838,-0.0451 0.135306,0.0902 0.09021,0.31573 0.09021,0.45105 -0.0451,0.13531 -0.135315,0.31573 -0.27063,0.31573 -0.135312,0 -0.225523,-0.31573 -0.405942,-0.31573 -0.225523,0.0451 -0.541254,0.18041 -0.631465,0.40594 -0.135315,0.36084 -0.0451,0.76677 0,1.12761 0.0451,0.13531 0.135315,0.22552 0.270627,0.36083 0.09021,0.0451 0.27063,0.0451 0.315734,0.18042 0.135315,0.13532 0.09021,0.31573 0.180419,0.49615 0.0451,0.13531 0.180416,0.22552 0.180416,0.36083 0,0.22553 -0.135312,0.40594 -0.135312,0.63147 0,0.18042 0.09021,0.40594 0.0451,0.58635 -0.135315,0.9923 -0.315734,2.0297 -0.541257,3.022 -0.09021,0.40594 -0.09021,0.90209 -0.360835,1.17272 -0.135306,0.13532 -0.360832,-0.36084 -0.541251,-0.31573 -0.270627,0.0451 -0.360837,0.40594 -0.631464,0.45105 -0.135315,0.0451 -0.270627,-0.22553 -0.405942,-0.18042 -0.135306,0 -0.180413,0.18042 -0.315725,0.22552 -0.135315,0.0902 -0.315731,-0.0451 -0.451046,0 -0.270627,0.13531 -0.451046,0.36083 -0.676569,0.54125 -0.225526,0.18042 -0.496147,0.27063 -0.676566,0.49615 -0.225523,0.22552 -0.360835,0.54125 -0.451043,0.81188 -0.09021,0.22552 -0.135315,0.45104 -0.180419,0.67656 0,0.18042 0.0451,0.36084 0,0.54126 -0.0451,0.22552 -0.0451,0.49614 -0.225523,0.67656 -0.09021,0.18042 -0.405936,0.0902 -0.496147,0.27063 -0.135312,0.22552 -0.09021,0.49615 -0.09021,0.72168 0,0.13531 0.09021,0.31572 0,0.40593 -0.09021,0.13532 -0.315734,0.0451 -0.360835,0.18042 -0.0451,0.0902 0.04509,0.22552 0.09021,0.31573 0.09021,0.0902 0.225523,0.0902 0.315734,0.18042 0.09021,0.0902 0.0451,0.27063 0.09021,0.36084 0.0451,0.13531 0.09021,0.27062 0.18041,0.36084 z m 34.730428,-13.21561 c 0.135312,-0.22552 0.270627,-0.49615 0.451043,-0.72167 0.135315,-0.13532 0.360832,-0.54125 0.496147,-0.40594 0.180416,0.22552 -0.0451,0.58636 -0.135315,0.81188 -0.0902,0.27063 -0.270621,0.54126 -0.496144,0.72167 -0.180419,0.18041 -0.496153,0.63146 -0.676572,0.40594 -0.225523,-0.22553 0.225526,-0.54125 0.360841,-0.81188 z m 1.488444,-0.63146 c -0.0451,0.18042 0.135314,0.36084 0.135314,0.54125 -0.0451,0.18042 -0.270626,0.27063 -0.270626,0.40594 -0.0451,0.22552 0,0.49615 0.135312,0.67657 0.09021,0.0902 0.31573,0 0.405941,0.0902 0.09021,0.0902 -0.09021,0.27063 0,0.31573 0.225523,0.0902 0.451049,0 0.631459,0.0451 0.135312,0 0.225523,0.13531 0.360838,0.0902 0.09021,0 0.0451,-0.18042 0.135312,-0.27063 0.180419,-0.0902 0.360838,-0.0451 0.496153,-0.13531 0.180419,-0.0451 0.270627,-0.22553 0.451046,-0.22553 0.0902,0 0.135306,0.18042 0.270621,0.18042 0.09021,0 0.225523,-0.0902 0.270627,-0.22552 0,-0.13532 -0.225523,-0.36083 -0.135312,-0.49615 0.135312,-0.22552 0.49615,-0.22552 0.676569,-0.45104 0.180419,-0.22553 0.586352,-0.54126 0.405942,-0.81189 -0.225523,-0.31572 -0.811884,-0.40593 -1.172722,-0.22551 -0.27063,0.18041 0,0.72166 -0.225523,0.99229 -0.0902,0.13532 -0.180413,-0.31573 -0.180413,-0.49615 0,-0.0902 0.225517,-0.0451 0.225517,-0.13531 0,-0.13532 -0.09021,-0.27063 -0.18041,-0.31573 -0.315734,-0.13531 -0.631465,-0.0902 -0.947199,-0.0902 -0.270627,-0.0451 -0.586355,-0.0451 -0.856982,0 -0.135315,0.0451 -0.225523,0.18041 -0.360835,0.27062 -0.09021,0.0902 -0.270629,0.13532 -0.270629,0.27063 z m 0.85699,-0.81188 c 0.270621,-0.0451 0.541248,0.0451 0.721664,-0.0902 0.135315,-0.0902 0.270627,-0.36083 0.180419,-0.45104 -0.225523,-0.18042 -0.586361,0.0451 -0.811884,-0.0902 -0.0902,-0.0902 0.27063,-0.40594 0.135315,-0.40594 -0.270621,0 -0.496144,0.18041 -0.676563,0.36083 -0.135312,0.0902 -0.270627,0.22553 -0.270627,0.40594 -0.0451,0.13532 0,0.31574 0.135315,0.36084 0.09021,0.0451 0.09021,-0.18042 0.135312,-0.27063 0.09021,-0.0902 0.09021,-0.22552 0.225523,-0.27062 0.0451,-0.0451 0.180419,0.0451 0.135315,0.13531 0,0.13531 -0.27063,0.22552 -0.225523,0.31573 0,0.13531 0.225523,0 0.315734,0 z m -1.217828,-0.0451 c -0.180416,0.0451 -0.09021,0.45104 0,0.58636 0.09021,0.13531 0.360838,0.0451 0.360838,-0.0451 0,-0.22552 -0.135312,-0.58635 -0.360838,-0.54125 z"
         id="path4646" />
      <text
         transform="matrix(0.32893535,0,0.0345725,0.32893535,-139.75929,259.81267)"
         id="text5140"
         y="-57.089619"
         x="493.23587"
         style="font-style:italic;font-variant:normal;font-weight:normal;font-stretch:normal;font-size:123.47222137px;line-height:1.25;font-family:'Handel Gothic Italic';-inkscape-font-specification:'Handel Gothic Italic, Italic';font-variant-ligatures:normal;font-variant-caps:normal;font-variant-numeric:normal;font-feature-settings:normal;text-align:start;letter-spacing:0px;word-spacing:0px;writing-mode:lr-tb;text-anchor:start;fill:#24314a;fill-opacity:1;stroke:none;stroke-width:0.26458332;stroke-opacity:1;filter:url(#filter4847-6)"
         xml:space="preserve"><tspan
           style="font-style:italic;font-variant:normal;font-weight:normal;font-stretch:normal;font-size:123.47222137px;font-family:'Handel Gothic Italic';-inkscape-font-specification:'Handel Gothic Italic, Italic';font-variant-ligatures:normal;font-variant-caps:normal;font-variant-numeric:normal;font-feature-settings:normal;text-align:start;writing-mode:lr-tb;text-anchor:start;fill:#24314a;fill-opacity:1;stroke:none;stroke-width:0.26458332;stroke-opacity:1"
           y="-57.089619"
           x="493.23587"
           id="tspan5138"
           sodipodi:role="line">php</tspan></text>
      <text
         transform="matrix(0.36533741,0,0.03839851,0.36533741,-85.355436,261.50965)"
         id="text5140-1"
         y="-57.089619"
         x="493.23587"
         style="font-style:italic;font-variant:normal;font-weight:normal;font-stretch:normal;font-size:123.47222137px;line-height:1.25;font-family:'Handel Gothic Italic';-inkscape-font-specification:'Handel Gothic Italic, Italic';font-variant-ligatures:normal;font-variant-caps:normal;font-variant-numeric:normal;font-feature-settings:normal;text-align:start;letter-spacing:0px;word-spacing:0px;writing-mode:lr-tb;text-anchor:start;fill:#415f92;fill-opacity:1;stroke:none;stroke-width:0.26458332;stroke-opacity:1;filter:url(#filter4847-5-0)"
         xml:space="preserve"><tspan
           style="font-style:italic;font-variant:normal;font-weight:normal;font-stretch:normal;font-size:123.47222137px;font-family:'Handel Gothic Italic';-inkscape-font-specification:'Handel Gothic Italic, Italic';font-variant-ligatures:normal;font-variant-caps:normal;font-variant-numeric:normal;font-feature-settings:normal;text-align:start;writing-mode:lr-tb;text-anchor:start;fill:#415f92;fill-opacity:1;stroke:none;stroke-width:0.26458332;stroke-opacity:1"
           y="-57.089619"
           x="493.23587"
           id="tspan5138-3"
           sodipodi:role="line">br</tspan></text>
      <ellipse
         transform="matrix(0.23619081,0.97170669,-0.87335362,0.48708671,0,0)"
         ry="56.215935"
         rx="41.480354"
         cy="-9.0616722"
         cx="202.3521"
         id="path4895"
         style="opacity:1;fill:url(#linearGradient4903);fill-opacity:1;stroke:none;stroke-width:0.34888759;stroke-miterlimit:4;stroke-dasharray:none;stroke-opacity:1" />
    </g>
    <text
       xml:space="preserve"
       style="font-style:italic;font-variant:normal;font-weight:normal;font-stretch:normal;font-size:77.84125519px;line-height:1.25;font-family:'Handel Gothic Italic';-inkscape-font-specification:'Handel Gothic Italic, Italic';font-variant-ligatures:normal;font-variant-caps:normal;font-variant-numeric:normal;font-feature-settings:normal;text-align:start;letter-spacing:0px;word-spacing:0px;writing-mode:lr-tb;text-anchor:start;fill:#24314a;fill-opacity:1;stroke:none;stroke-width:0.16680269;stroke-opacity:1;filter:url(#filter910)"
       x="408.27933"
       y="179.63904"
       id="text5140-7-3"
       transform="matrix(0.74790601,0,0.07860809,0.74790601,155.68887,35.829054)"><tspan
         sodipodi:role="line"
         id="tspan5138-6-6"
         x="408.27933"
         y="179.63904"
         style="font-style:italic;font-variant:normal;font-weight:normal;font-stretch:normal;font-size:77.84125519px;font-family:'Handel Gothic Italic';-inkscape-font-specification:'Handel Gothic Italic, Italic';font-variant-ligatures:normal;font-variant-caps:normal;font-variant-numeric:normal;font-feature-settings:normal;text-align:start;writing-mode:lr-tb;text-anchor:start;fill:#24314a;fill-opacity:1;stroke:none;stroke-width:0.16680269;stroke-opacity:1">just give back</tspan></text>
  </g>
</svg>
