<?xml version="1.0" encoding="UTF-8" standalone="no"?>
<!-- Created with Inkscape (http://www.inkscape.org/) -->

<svg
   xmlns:dc="http://purl.org/dc/elements/1.1/"
   xmlns:cc="http://creativecommons.org/ns#"
   xmlns:rdf="http://www.w3.org/1999/02/22-rdf-syntax-ns#"
   xmlns:svg="http://www.w3.org/2000/svg"
   xmlns="http://www.w3.org/2000/svg"
   xmlns:xlink="http://www.w3.org/1999/xlink"
   xmlns:sodipodi="http://sodipodi.sourceforge.net/DTD/sodipodi-0.dtd"
   xmlns:inkscape="http://www.inkscape.org/namespaces/inkscape"
   width="1360mm"
   height="780mm"
   viewBox="0 0 1360 780"
   version="1.1"
   id="svg8"
   inkscape:version="0.92.3 (2405546, 2018-03-11)"
   sodipodi:docname="background.svg">
  <defs
     id="defs2">
    <linearGradient
       inkscape:collect="always"
       id="linearGradient4901">
      <stop
         style="stop-color:#ffffff;stop-opacity:0.01123596"
         offset="0"
         id="stop4897" />
      <stop
         style="stop-color:#ffffff;stop-opacity:0.83707863"
         offset="1"
         id="stop4899" />
    </linearGradient>
    <linearGradient
       inkscape:collect="always"
       id="linearGradient4889">
      <stop
         style="stop-color:#e6e6e6;stop-opacity:1;"
         offset="0"
         id="stop4885" />
      <stop
         style="stop-color:#ffffff;stop-opacity:0.51123595"
         offset="1"
         id="stop4887" />
    </linearGradient>
    <filter
       style="color-interpolation-filters:sRGB;"
       inkscape:label="Drop Shadow"
       id="filter5112">
      <feFlood
         flood-opacity="0.498039"
         flood-color="rgb(0,0,0)"
         result="flood"
         id="feFlood5102" />
      <feComposite
         in="flood"
         in2="SourceGraphic"
         operator="in"
         result="composite1"
         id="feComposite5104" />
      <feGaussianBlur
         in="composite1"
         stdDeviation="10"
         result="blur"
         id="feGaussianBlur5106" />
      <feOffset
         dx="6"
         dy="10"
         result="offset"
         id="feOffset5108" />
      <feComposite
         in="SourceGraphic"
         in2="offset"
         operator="over"
         result="composite2"
         id="feComposite5110" />
    </filter>
    <filter
       style="color-interpolation-filters:sRGB;"
       inkscape:label="Drop Shadow"
       id="filter4847">
      <feFlood
         flood-opacity="0.380392"
         flood-color="rgb(0,0,0)"
         result="flood"
         id="feFlood4837" />
      <feComposite
         in="flood"
         in2="SourceGraphic"
         operator="in"
         result="composite1"
         id="feComposite4839" />
      <feGaussianBlur
         in="composite1"
         stdDeviation="2"
         result="blur"
         id="feGaussianBlur4841" />
      <feOffset
         dx="3"
         dy="3"
         result="offset"
         id="feOffset4843" />
      <feComposite
         in="SourceGraphic"
         in2="offset"
         operator="over"
         result="composite2"
         id="feComposite4845" />
    </filter>
    <filter
       style="color-interpolation-filters:sRGB"
       inkscape:label="Drop Shadow"
       id="filter4847-5">
      <feFlood
         flood-opacity="0.380392"
         flood-color="rgb(0,0,0)"
         result="flood"
         id="feFlood4837-0" />
      <feComposite
         in="flood"
         in2="SourceGraphic"
         operator="in"
         result="composite1"
         id="feComposite4839-8" />
      <feGaussianBlur
         in="composite1"
         stdDeviation="2"
         result="blur"
         id="feGaussianBlur4841-0" />
      <feOffset
         dx="3"
         dy="3"
         result="offset"
         id="feOffset4843-4" />
      <feComposite
         in="SourceGraphic"
         in2="offset"
         operator="over"
         result="composite2"
         id="feComposite4845-1" />
    </filter>
    <linearGradient
       inkscape:collect="always"
       xlink:href="#linearGradient4889"
       id="linearGradient4891"
       x1="571.62158"
       y1="-224.43987"
       x2="981.90753"
       y2="179.56566"
       gradientUnits="userSpaceOnUse" />
    <linearGradient
       inkscape:collect="always"
       xlink:href="#linearGradient4901"
       id="linearGradient4903"
       x1="385.59775"
       y1="-887.1106"
       x2="982.90479"
       y2="-848.96362"
       gradientUnits="userSpaceOnUse"
       gradientTransform="matrix(0.93463424,0,0,0.93463424,-202.3193,-83.236127)" />
    <filter
       style="color-interpolation-filters:sRGB"
       inkscape:label="Drop Shadow"
       id="filter4847-59">
      <feFlood
         flood-opacity="0.380392"
         flood-color="rgb(0,0,0)"
         result="flood"
         id="feFlood4837-9" />
      <feComposite
         in="flood"
         in2="SourceGraphic"
         operator="in"
         result="composite1"
         id="feComposite4839-0" />
      <feGaussianBlur
         in="composite1"
         stdDeviation="2"
         result="blur"
         id="feGaussianBlur4841-7" />
      <feOffset
         dx="3"
         dy="3"
         result="offset"
         id="feOffset4843-6" />
      <feComposite
         in="SourceGraphic"
         in2="offset"
         operator="over"
         result="composite2"
         id="feComposite4845-3" />
    </filter>
    <filter
       style="color-interpolation-filters:sRGB"
       inkscape:label="Drop Shadow"
       id="filter4847-5-1">
      <feFlood
         flood-opacity="0.380392"
         flood-color="rgb(0,0,0)"
         result="flood"
         id="feFlood4837-0-5" />
      <feComposite
         in="flood"
         in2="SourceGraphic"
         operator="in"
         result="composite1"
         id="feComposite4839-8-0" />
      <feGaussianBlur
         in="composite1"
         stdDeviation="2"
         result="blur"
         id="feGaussianBlur4841-0-6" />
      <feOffset
         dx="3"
         dy="3"
         result="offset"
         id="feOffset4843-4-5" />
      <feComposite
         in="SourceGraphic"
         in2="offset"
         operator="over"
         result="composite2"
         id="feComposite4845-1-0" />
    </filter>
  </defs>
  <sodipodi:namedview
     id="base"
     pagecolor="#ffffff"
     bordercolor="#666666"
     borderopacity="1.0"
     inkscape:pageopacity="0.0"
     inkscape:pageshadow="2"
     inkscape:zoom="0.12374369"
     inkscape:cx="2695.2985"
     inkscape:cy="1067.34"
     inkscape:document-units="mm"
     inkscape:current-layer="layer1"
     showgrid="false"
     inkscape:window-width="1316"
     inkscape:window-height="712"
     inkscape:window-x="26"
     inkscape:window-y="28"
     inkscape:window-maximized="1" />
  <metadata
     id="metadata5">
    <rdf:RDF>
      <cc:Work
         rdf:about="">
        <dc:format>image/svg+xml</dc:format>
        <dc:type
           rdf:resource="http://purl.org/dc/dcmitype/StillImage" />
        <dc:title />
      </cc:Work>
    </rdf:RDF>
  </metadata>
  <g
     inkscape:label="Layer 1"
     inkscape:groupmode="layer"
     id="layer1"
     transform="translate(0,483)">
    <rect
       style="opacity:1;fill:#6082bb;fill-opacity:1;stroke:none;stroke-width:1.05833328;stroke-miterlimit:4;stroke-dasharray:none;stroke-opacity:1"
       id="rect4650"
       width="1364.1436"
       height="784.70331"
       x="0"
       y="-483.42703" />
    <text
       xml:space="preserve"
       style="font-style:italic;font-variant:normal;font-weight:normal;font-stretch:normal;font-size:188.51673889px;line-height:1.25;font-family:'Handel Gothic Italic';-inkscape-font-specification:'Handel Gothic Italic, Italic';font-variant-ligatures:normal;font-variant-caps:normal;font-variant-numeric:normal;font-feature-settings:normal;text-align:start;letter-spacing:0px;word-spacing:0px;writing-mode:lr-tb;text-anchor:start;fill:#6888be;fill-opacity:1;stroke:none;stroke-width:0.40396443;stroke-opacity:1"
       x="958.46771"
       y="-78.320663"
       id="text5140-7"
       transform="skewX(6.0000003)"><tspan
         sodipodi:role="line"
         id="tspan5138-6"
         x="958.46771"
         y="-78.320663"
         style="font-style:italic;font-variant:normal;font-weight:normal;font-stretch:normal;font-size:188.51673889px;font-family:'Handel Gothic Italic';-inkscape-font-specification:'Handel Gothic Italic, Italic';font-variant-ligatures:normal;font-variant-caps:normal;font-variant-numeric:normal;font-feature-settings:normal;text-align:start;writing-mode:lr-tb;text-anchor:start;fill:#6888be;fill-opacity:1;stroke:none;stroke-width:0.40396443;stroke-opacity:1">php</tspan></text>
    <path
       id="path4646-6"
       d="m 92.223118,-67.209652 c 0.669581,1.339071 2.008719,2.008652 3.013062,3.012989 0.669512,1.004358 1.339093,2.343475 2.008651,3.682635 0.669558,1.339137 2.008719,2.343474 2.008719,3.682613 0,1.004359 -1.673912,1.673917 -2.008719,2.67821 0,0.66958 0,1.33916 0.334739,2.343503 l 1.004354,1.00436 c 1.339139,0 1.673926,-1.339139 2.678256,-2.008703 h 1.67395 c 0.66956,0.334713 0.66956,1.673901 1.33911,1.673901 0.33473,0.334758 1.00436,-1.004337 1.67394,-0.669558 0.66956,0 1.33911,0.334735 1.67385,1.00436 1.00436,1.339116 0.66958,3.013055 1.67392,4.35217 0.66958,1.00436 2.00871,1.339139 3.34785,1.673939 1.00435,0 2.34348,-0.334734 3.01306,-1.004358 1.00434,-1.00436 1.00434,-2.343497 1.67389,-3.013055 0.66958,-0.66958 1.67394,-0.334736 2.34346,-0.66958 0.66958,-0.334714 1.33914,-1.004337 2.3435,-1.339116 0.33474,-0.334735 1.33914,-1.339139 1.6739,-1.00436 1.00435,1.339139 0.66958,3.013056 0.66958,4.352193 0.33473,4.017393 -1.00434,8.369542 0.33473,12.052177 0.33474,1.339116 2.34348,1.004337 3.68264,0.669558 1.33912,-0.334734 2.34347,-1.673917 3.68254,-1.673917 1.67392,-0.334735 3.34786,0 4.68697,0 2.0087,0.334713 4.35219,0.334713 6.36085,0.334713 2.3435,0.334736 4.68697,0.669581 7.03047,0 1.00433,0 2.0087,-1.339116 2.34347,-2.343475 0.66956,-0.66958 0,-2.008718 0.66956,-2.678276 0.33474,-0.334735 1.6739,-0.334735 2.34346,-0.334735 0.66955,0 1.00433,1.004359 1.33911,0.66958 1.33914,-0.334735 2.34352,-1.339139 3.01305,-2.008697 1.00439,-1.004314 1.33916,-2.678231 2.34353,-3.347789 0.66956,-0.334735 1.33911,1.004337 1.67386,0.669558 1.00439,-0.669558 1.33919,-2.008697 2.00875,-3.013055 1.00429,-1.004359 2.34343,-2.008696 3.34776,-2.343475 1.67395,-0.669581 3.68262,-1.00436 5.35656,-1.339139 1.00434,0 1.6739,-0.334741 2.67827,-0.334741 1.00437,0 2.00865,0.334741 3.01302,0.334741 0.66956,0 1.33914,-0.669564 2.0087,-0.669564 0.33472,-0.334735 1.00433,-1.004359 1.33913,-0.334735 1.00434,1.004344 1.33912,3.01304 1.33912,4.3522 0,1.339116 -1.33912,2.008695 -1.33912,3.013055 -0.33476,1.339115 0,2.678254 0.33469,3.682547 0.33476,1.004359 1.33916,1.339138 1.67397,2.343497 0.3347,1.004359 0.3347,2.008697 0,3.013055 -0.33474,0.669558 -1.67397,0.334735 -1.67397,1.00436 0,1.339137 0.6696,2.343475 1.00438,3.347833 0.66959,1.339073 0.66959,2.678211 1.67392,4.017349 1.00436,1.673917 2.34348,3.347834 4.01737,4.352171 1.33911,1.004359 3.01306,1.004359 4.35217,1.673939 0.66956,0.669558 0.33473,2.343475 1.33914,3.013055 1.00436,0.669514 2.34349,0.669514 3.34785,0.334713 1.33914,0 2.34348,-0.334713 3.3478,-0.669492 0.3347,0 0.66956,-0.66958 1.33911,-0.66958 1.33914,0.334735 3.01306,1.339072 4.35219,2.008652 1.00436,0.669558 1.33914,2.008718 2.34347,2.678276 1.00435,0.334735 2.00872,-0.334735 2.67828,0.334735 1.33909,0.334736 2.00865,2.008696 3.34777,2.343498 1.00438,0.669558 2.34352,1.004337 3.34788,1.004337 0.66955,0.334734 1.6739,-0.334736 2.34348,0.334734 1.33914,1.004337 2.00869,3.0130548 3.68256,4.0173918 1.00437,0.669536 2.67825,1.004293 4.35218,0.669536 0.66958,-0.334735 0.66958,-2.008652 1.67393,-2.008652 1.33912,-0.334735 2.34348,0.669558 3.68262,1.004337 1.00436,0.669514 2.00865,1.339072 3.01301,2.008652 1.33914,0.66958 3.34783,1.004359 4.01739,2.343475 0.66958,1.004359 -0.66956,2.67829799 -0.33472,4.01741439 0.33472,1.67393901 1.67393,3.01307701 2.34348,4.68692801 0.33474,1.004359 0,2.678277 0,4.017414 0,0.334735 0.33474,0.669558 0,1.0043368 -1.00436,0.334736 -2.00872,-0.3347348 -2.67827,0 -0.33477,0.334736 0,1.339138 0.33476,1.673917 0.3347,0.669581 1.33911,1.00436 1.67389,2.008697 0.66956,1.33916 1.00436,3.01301 1.00436,4.686949 0.33473,1.339117 0,2.678255 0.33473,3.682614 0.33472,1.339139 1.33912,2.678276 2.34348,3.013055 2.67823,0.66958 5.69128,0 8.70435,0 2.67825,0.334735 5.35648,0.334735 8.03476,0.334735 0.66956,0.334735 2.34347,-0.669558 2.34347,0.334735 0.33474,1.004359 -1.67391,1.673917 -2.0087,3.012989 0,1.004359 1.00437,1.673918 1.33912,2.343476 0.66958,1.33916 0.66958,3.013054 1.33914,4.017414 0.66958,1.004358 1.67392,1.339137 2.67827,2.008695 1.00436,1.00436 1.67394,2.008718 2.67828,3.013033 1.00431,1.004337 2.00865,2.343476 2.67821,3.682614 0.66958,1.339137 0.66958,2.678254 0.66958,4.352193 0,1.339116 -0.33474,2.678253 -1.00437,4.017348 -0.3347,1.673917 -1.33911,3.347834 -2.00865,5.021751 -0.3347,2.008719 -1.00435,3.682613 -1.67393,5.356552 -0.33472,1.004293 -1.33912,2.343431 -1.00432,3.347768 0.33474,1.00436 1.6739,1.00436 2.34348,1.339139 0.33472,0.669558 0.66951,1.339137 0.33472,1.673916 -0.33472,0.669581 -1.33912,0 -2.0087,0.669581 -0.66956,0.669557 -1.00434,2.008696 -0.66956,3.013054 0,1.339117 1.00436,2.343476 1.33914,3.68257 0.33473,0.669558 0.66956,1.339138 1.00435,2.343497 0.33472,0.669558 1.00436,1.339115 1.00436,2.343475 0.33471,1.339138 0.33471,2.678276 0,4.352198 0,0.669558 -0.33475,1.339138 -0.66959,2.343424 0,0.669558 0.33475,1.673923 0.33475,2.343503 0,1.00433 -0.66956,2.0087 -0.66956,3.01305 0,1.00434 0,2.34349 1.00434,3.01306 1.00429,0.33471 2.00865,-1.00436 3.01301,-1.00436 1.00434,0 2.3435,0.33472 3.68262,0.33472 1.00435,0.33473 2.34349,0 3.34783,0.33473 1.00435,0 1.67391,0.66958 2.34345,0.66958 0.66956,0.33474 1.6739,0.66956 2.34348,0.66956 0.66958,-0.33473 0.66958,-2.34347 1.67391,-2.0087 1.00436,0 1.00436,1.67392 2.0087,2.34348 1.33913,0.66958 3.34785,0 4.68697,0.66958 1.00432,1.00429 1.67389,3.013011 2.00865,4.352141 1.00437,2.67826 1.00437,5.02176 1.67393,7.70004 0.33472,1.33907 0.33472,3.34779 1.67393,4.35212 0.66956,0.66958 2.34347,0.66958 3.68261,1.00436 1.6739,0 3.34776,-0.66958 4.6869,-0.33474 1.33912,0.33474 3.34784,1.00436 3.68262,2.3435 0.66958,1.67392 -1.33914,3.34783 -1.33914,5.02175 0,1.33907 1.00436,2.34343 0.66958,3.68257 0,1.00436 -1.00436,2.00869 -1.00436,3.34783 -0.33473,0.66958 1.00436,1.00437 0.66956,1.67392 -0.33473,0.66958 -1.33914,0.33473 -1.67389,1.00436 -0.33477,0.66956 -0.33477,1.67392 0,2.67821 0,1.00436 0,2.00872 1.00433,2.3435 1.33914,0.33473 3.34786,-1.33914 4.68697,-0.66958 1.67395,1.00435 2.3435,3.34784 3.01306,5.02177 0.66958,1.00434 1.00429,2.34348 1.00429,3.34783 -0.33471,0.66956 -1.33907,1.00435 -1.33907,1.67388 -0.33473,1.00433 0.33471,2.0087 0.33471,3.34784 0,1.00433 -0.33471,2.00869 -0.66955,3.01305 -0.66956,1.33914 -1.00435,2.34348 -2.0087,3.34783 -0.66956,0.66956 -1.33914,1.00436 -2.34349,1.33914 -1.00434,0.33474 -2.34348,0 -3.68262,0.33474 -1.33914,0.66951 -2.34349,2.00865 -3.34779,2.67821 -1.00435,0.66956 -1.6739,1.67391 -2.67823,2.34349 -1.33914,1.00434 -3.01305,1.67392 -4.687,2.67825 -0.66956,0.66959 -1.00435,1.67393 -2.00869,2.67828 -0.66956,1.00437 -1.67387,2.00865 -2.34343,3.01302 -0.66958,0.66956 -1.00434,1.33914 -1.67392,2.00869 -1.00436,1.00436 -2.00872,1.33914 -3.01305,2.0087 -0.66956,1.00435 -1.00437,2.34349 -1.67393,3.01305 -0.66958,1.00435 -1.67393,1.33914 -2.34349,2.34349 -0.66956,1.00435 -0.66956,2.67822 -1.67392,3.68258 -1.00429,1.00433 -2.67823,0.66956 -3.34779,1.67391 -1.00435,0.66956 -1.00435,2.0087 -1.33914,3.01306 -0.3347,0.66956 -1.00435,1.67391 -0.3347,2.0087 0.66955,0.66958 1.67391,-0.66956 2.34347,-0.33474 0.66958,0 1.00434,1.00436 1.33913,1.00436 0.66956,0 1.00428,-0.66956 1.3391,-1.00436 0.33471,-0.33473 0.33471,-1.00433 0.66956,-1.33914 0.66955,-0.33471 1.67392,-0.66956 2.3435,-0.66956 0.66956,0 0.66956,1.00437 1.33911,1.33914 0.33473,0.33474 1.00436,0.33474 1.33914,0.66956 0.66956,0.66958 0.33473,1.67392 1.00436,2.3435 0.66955,0.66951 2.00869,0.66951 2.34347,1.00429 0.66958,0.66958 0.66958,1.67392 1.00436,2.3435 0.33474,1.00433 0.66956,2.0087 1.00436,2.34347 0.33473,0.33474 1.00429,0.33474 1.67385,0 0.33474,0 1.00437,-0.33473 1.67393,-0.66956 0.33472,-0.33473 0.66956,-0.33473 0.66956,-0.66958 0.33474,-0.33473 0,-1.00433 0,-1.33914 0.33474,-0.3347 0.66956,-0.3347 1.00437,-0.3347 0.66956,0 2.00869,0 2.00869,0.66956 0.33474,0.66955 -1.00436,1.33913 -1.33913,2.00869 0,0.66958 0.33474,1.33914 0.66958,1.67391 1.00433,1.33914 2.34347,2.67828 4.01737,3.34786 1.00435,0.66956 2.67821,0.66956 3.68256,1.33912 1.00436,0.66958 2.0087,1.67388 2.67828,2.34344 0.66955,1.00435 1.00436,2.0087 2.00872,2.67826 1.00434,1.00436 2.67825,1.00436 3.68261,2.3435 1.33914,1.00436 1.33914,3.01305 2.34343,4.35219 2.67828,3.68257 6.3609,1.67388 3.68262,6.02604 0,0.33474 -0.66956,0.66959 -1.00434,1.00437 -0.66958,0.33473 -1.00436,0.33473 -1.33917,0.66958 -0.3347,0.66956 -0.66955,1.00433 -0.66955,1.67391 0,0.66956 -0.33473,1.67393 0,2.67826 0,0.66958 0.66955,1.33909 1.00436,1.67387 0.66956,0.33473 1.00436,0.33473 1.67391,0 0.33474,0 0.66958,-0.66955 1.00435,-1.00429 1.00435,-0.33473 2.00872,-0.66958 2.6783,-1.00436 1.00433,-0.66955 2.34347,-1.33914 3.01305,-2.34348 0.66955,-0.66958 0.66955,-1.67391 0.66955,-2.67827 0.33474,-0.66959 0.33474,-1.33914 0.33474,-2.0087 0.33473,-0.66958 0.66956,-1.33914 0.66956,-2.00872 0.66954,-1.33914 1.67387,-2.67821 1.67387,-4.01735 0.33474,-0.66958 -0.66958,-1.33914 -0.66958,-2.34349 0,-0.66956 0.66958,-1.00434 0.66958,-1.33914 0.33474,-1.00434 0.33474,-2.00869 1.00436,-3.01304 0.66956,-1.33914 2.0087,-3.013 3.01305,-4.35214 0.66956,-0.66956 1.67393,-0.66956 2.0087,-1.00437 0.66956,-0.3347 1.00436,-0.66955 1.33911,-1.33912 0.33477,-0.66957 0,-1.67393 0.33477,-2.67826 0.33472,-1.00436 1.33914,-1.67392 1.67389,-2.67827 0.33474,-0.66956 1.00436,-1.00437 1.00436,-2.0087 0,-0.33474 -0.66956,-0.66958 -0.66956,-1.00432 -0.66955,-0.66956 -1.00436,-1.33912 -1.33914,-2.34347 0,-0.33474 -0.33473,-0.66958 0,-1.00436 1.00434,0 2.0087,0 2.67824,0.66958 1.00433,1.00434 0.66955,2.34348 1.33911,3.34779 0.66958,0.66955 1.33914,1.00434 1.67394,1.00434 0.66955,0 0.33471,-0.66956 0.33471,-1.00434 0.33474,-0.33474 0,-1.3391 0.33474,-1.00431 0.66958,0 0.66958,1.00431 1.33914,1.33909 0.33473,0 0.66956,-1.00432 1.00435,-0.66958 0.33474,0.33473 0.33474,1.00435 0,1.67391 -0.33473,0.33474 -1.67391,0 -2.00871,0.66958 -0.33474,0.33474 0.33473,1.33914 0,2.0087 -0.33474,0.66956 -1.00434,1.00436 -1.67389,2.00869 -0.33477,0.33474 0,1.00436 -0.66958,1.33914 -1.00432,0.66958 -2.67821,0 -3.34779,1.00436 -0.66958,1.00436 0.66958,2.67827 0.33472,3.68257 -0.33472,0.66956 -1.67391,0.33474 -2.34349,0.66956 -0.66956,0.33474 -1.00436,1.00435 -1.33911,1.33914 -1.00437,1.00435 -2.6783,1.67391 -3.68265,2.67827 -0.33472,0.66956 -0.33472,1.67392 0,2.3435 0.66958,0.66955 2.0087,1.00434 2.67828,0.33474 0.66956,0 0.66956,-1.33917 1.33912,-2.00872 0.66958,-0.66956 1.67394,-1.33914 2.3435,-2.0087 1.33914,-0.66958 2.34349,-1.33914 3.34784,-2.34349 1.0043,-0.66956 1.33909,-1.67386 2.00865,-2.34344 1.00435,-1.00435 2.00872,-1.00435 2.67827,-1.67391 1.00433,-1.33914 1.67391,-2.67828 2.3435,-4.3522 0.66955,-0.66956 1.33913,-1.67391 1.33913,-2.67828 0.66956,-1.33911 0.66956,-2.67821 1.00435,-4.01734 0,-0.33473 -0.33474,-1.00434 0,-1.33914 0.33472,-0.66956 1.33913,-0.66956 1.67391,-1.33914 0.33474,-0.33471 0.33474,-1.00433 0.66956,-1.33912 0.66958,-1.00435 1.6739,-1.00435 2.00865,-2.00872 0.33474,-0.66955 -0.66956,-1.67391 -0.66956,-2.34347 0,-0.33473 0,-1.00436 0.33474,-1.00436 0.66956,0 1.33914,0.66958 2.34347,0.66958 0.66958,-0.33473 1.00436,-1.33914 1.33914,-1.67387 0.66955,-1.00436 1.33913,-1.67392 2.00872,-2.3435 1.33913,-0.66956 2.67827,-0.66956 4.01739,-1.33914 0.66958,-0.66956 1.33914,-1.67391 2.00865,-2.67825 0.33474,-0.66958 1.00436,-1.33914 1.33914,-2.00872 0.33474,-1.33913 0,-2.67826 0.33474,-3.68256 0.33472,-1.67393 1.33914,-3.01307 1.33914,-4.68698 0.33472,-1.00434 -0.66959,-1.33914 -0.66959,-2.34347 0.33476,-1.00436 1.67392,-2.00872 1.67392,-3.34785 0,-0.66956 -1.00433,-1.33909 -1.00433,-2.00864 -0.33474,-1.33913 -0.33474,-2.67827 -0.33474,-4.01741 0,-1.33914 0,-2.3435 0.33474,-3.68264 0,-1.67391 0.33472,-3.01303 1.00433,-4.68691 0.33474,-1.00435 2.00872,-1.33913 2.00872,-2.67827 0,-0.66956 -1.33914,-1.00436 -2.00872,-1.67391 v -1.00437 c 0.33474,-0.33473 0.66958,-0.66956 1.00436,-1.00433 1.33914,0 2.67828,2.34347 4.01742,2.0087 2.00869,-0.33474 1.67391,-3.34784 2.67821,-4.68698 1.33916,-1.33909 2.67827,-2.00865 4.35218,-3.01301 1.67393,-1.33914 3.68264,-2.34347 5.69133,-3.68261 1.00437,-0.66958 2.00866,-1.67393 3.013,-2.34351 0.66958,-0.66955 1.33916,-1.33913 2.34349,-1.67391 1.00436,-0.66956 2.34348,-1.00434 3.68262,-1.67392 1.00435,-0.66956 2.00872,-2.00865 3.34785,-2.00865 1.33907,-0.33473 3.01299,0.66958 4.35213,0.66958 1.33913,0 3.01306,0 4.01741,-0.66958 1.33912,-0.66956 1.67392,-2.34347 2.67825,-3.01305 1.00437,-1.00434 2.67824,-1.00434 3.68258,-2.0087 0.66958,-0.66958 0.33473,-1.67391 1.00435,-2.67827 0.33474,-0.66956 0.66958,-1.33914 1.33914,-1.67392 1.00437,0 2.0087,0.66956 3.01306,1.00436 0.66958,0 1.67391,0.66956 2.67828,0.66956 0.66956,0 1.33912,-1.33914 2.34342,-1.67392 0.66958,0 1.67393,0 2.34348,0.33473 0.66959,0.33474 0.66959,1.33914 1.33917,2.0087 0.3347,0.33474 1.00433,0.66958 1.67388,0.66958 1.67393,-0.33473 3.68265,-0.33473 5.02177,-1.33914 0.66956,-0.33473 0.33474,-1.67391 1.0043,-2.00872 0.66956,0 1.00437,1.33914 1.67392,1.67395 1.00436,0.3347 2.67828,0.3347 3.68264,0.66955 1.00433,0.33473 1.33913,1.67392 2.00869,1.33914 1.67391,-0.33474 3.34784,-1.33914 4.35219,-2.67827 0.66951,-1.00437 0,-2.67821 0.66951,-3.34779 0.66956,-1.00434 2.0087,-1.00434 2.67826,-1.67393 2.3435,-1.00435 4.68699,-1.67391 6.36092,-3.34783 0.66955,-0.33473 0.33472,-1.33914 0.33472,-2.0087 0,-0.66955 -1.00435,-0.66955 -1.00435,-1.00437 0,-0.66956 0.66956,-1.673901 1.33914,-1.673901 0.66956,0 1.33914,1.673901 1.67386,1.004341 0.66957,-0.66956 -0.33472,-2.008651 0,-3.347791 0,-0.33472 0.33474,-1.00434 0.66957,-1.67392 1.00434,-1.33915 2.00869,-2.67826 3.34783,-4.0174 1.00436,-1.33914 2.67827,-2.678278 3.68262,-4.017416 0.33474,-0.669513 0.33474,-1.673844 1.00435,-2.343425 1.33914,-1.673918 3.01299,-3.682615 4.35216,-5.356554 1.67388,-1.673916 3.34783,-3.013054 4.35218,-4.686905 1.00435,-1.673917 1.00435,-3.682614 1.33914,-5.691331 0.33472,-1.339139 0,-3.013055 0.33472,-4.686973 0.33474,-1.673873 0.66958,-3.347767 1.67393,-4.686927 0.66956,-2.008697 2.0087,-3.682614 3.01307,-5.356531 1.00428,-1.004359 2.3434,-2.008719 2.6782,-3.34779 0.66956,-1.339139 0,-3.013055 0.33473,-4.352193 0.33472,-3.013055 1.33912,-5.691332 2.34348,-8.03474 0.66958,-2.343497 2.0087,-4.352194 2.67828,-6.360911 0.33472,-0.669581 1.00435,-1.339139 1.00435,-2.008697 0,-1.339138 -0.66958,-2.343497 -0.66958,-3.682591 0,-1.004337 1.00435,-2.008696 1.00435,-3.013055 -0.33472,-1.673895 -1.6739,-3.013033 -1.6739,-4.686951 0,-1.339138 0.66955,-3.013054 1.33913,-4.352148 0.33472,-2.343497 1.67393,-4.352194 1.67393,-6.3608898 0,-2.008718 -2.00872,-3.347834 -2.00872,-5.356486 0,-1.673917 1.33914,-3.34783401 2.00872,-5.0217514 0.33472,-1.004359 0.33472,-2.008696 0.66955,-2.678276 0.66959,-0.669558 2.00866,-1.004359 2.00866,-1.673917 0,-1.004359 -1.33907,-1.673872 -1.33907,-2.678232 0,-0.669558 1.00428,-1.6739158 1.67384,-1.339116 1.33914,0.669558 0.66958,3.012989 2.0087,3.682547 1.00436,0.66958 2.67829,-0.334735 3.68264,-1.004337 1.00435,-0.669513 1.67391,-2.008652 2.67827,-2.67821 1.67392,-1.6739388 3.68254,-2.3434968 5.02171,-4.0174138 1.33913,-1.339138 2.00869,-3.347834 3.01306,-5.021751 v -0.334735 c 0,-1.004359 0.33472,-2.343497 0.66955,-3.347856 0.33473,-1.004337 1.33914,-2.008696 1.67392,-3.347834 0.33474,-0.669558 -0.33473,-1.339116 0,-1.673917 0.66955,-0.334735 1.33914,1.004359 1.67392,0.669558 1.00435,-0.669558 1.00435,-2.343475 1.67393,-3.347813 1.0043,-1.004314 2.34342,-2.008652 3.68256,-3.01301 2.00871,-2.008697 4.01741,-4.017393 6.3609,-5.691332 1.00433,-0.669558 2.0087,-1.339116 3.013,-2.343475 0.66958,-0.66958 0.33472,-2.008653 1.00435,-2.678232 0.66956,-0.334736 1.67392,0 2.34349,-0.334736 0.66956,-0.669558 1.33912,-1.339116 1.67393,-2.343474 0.33474,-0.334736 -0.33477,-1.339138 0,-2.008696 1.33913,-1.673939 3.34783,-2.678299 4.68695,-4.3522 1.33913,-1.33916 2.67823,-3.013011 3.34779,-4.686928 1.33916,-2.008697 1.67391,-4.017393 2.67827,-6.36089 1.00433,-2.343497 2.3435,-4.686928 3.01305,-7.365203 0.33474,-2.678255 0.33474,-5.35653 0,-7.699962 0,-3.347834 0,-6.360889 -0.33472,-9.708745 -0.33474,-1.673847 -0.66956,-3.682567 -1.00435,-5.691267 -0.33473,-1.33914 -0.33473,-2.67828 -0.66958,-4.35219 -1.00435,-2.678261 -2.00869,-5.356491 -3.34783,-7.699991 -0.66958,-1.00435 -1.67391,-1.67391 -2.67823,-2.00869 -2.67826,-1.00436 -5.35654,-1.33914 -8.03481,-1.67392 -2.0087,-0.33473 -4.01735,0.66956 -6.02605,0.33474 -2.34349,-0.66958 -4.35218,-2.3435 -6.3609,-3.34784 -2.34347,-1.67387 -4.01735,-3.34779 -6.02605,-4.68693 -2.34349,-1.67391 -4.35219,-3.34783 -6.36091,-5.35655 -2.00869,-1.67389 -3.68255,-3.68257 -5.69127,-5.69126 -1.67388,-1.33914 -3.34783,-3.01306 -5.35653,-4.01741 -2.00872,-1.33912 -4.68692,-1.33912 -7.03039,-2.34348 -1.33917,-1.00436 -2.67828,-2.34343 -4.3522,-3.01298 -2.00872,-0.66959 -4.01737,-0.66959 -6.02607,-1.00437 -2.0087,0 -4.35217,0.33472 -6.36089,0.66956 -1.33913,0.33474 -2.67827,1.67388 -4.35213,1.67388 -1.67393,-0.33474 -3.01305,-2.00866 -4.68698,-2.67824 -1.00434,-0.33474 -2.34348,-1.00434 -3.68262,-1.00434 -1.33914,-0.33474 -3.013,0.66956 -4.35214,0.33474 -0.66956,-0.33474 -1.00435,-1.67393 -1.67391,-1.67393 -1.33913,-0.66956 -3.01305,0 -4.35218,-0.33472 -0.66958,-0.33474 -0.66958,-1.67393 -1.33917,-2.0087 -1.6739,-0.66958 -3.68255,-0.66958 -5.35646,-1.33914 -0.33474,0 -0.66958,-1.00435 -1.33914,-1.00435 -0.66955,0.33473 -0.33474,2.0087 -1.00436,2.34349 -1.00433,0.33472 -2.0087,-0.33474 -2.67826,-1.00435 -0.66958,-0.33474 -0.33472,-2.0087 -1.00435,-1.67395 -1.00437,0.66958 -0.66958,2.34351 -1.33914,3.34786 -0.66956,0.33474 -1.33909,0.33474 -2.00865,0 -0.66958,0 -1.33914,-0.66956 -1.67395,-1.00435 -0.66955,-0.33474 -1.33911,-0.66956 -2.00869,-0.33474 -0.66956,1.00435 -0.66956,2.67828 -1.00436,4.0174 -0.66955,1.00434 -1.00434,2.0087 -2.00869,3.01306 -0.66956,0.66952 -2.0087,1.0043 -2.67826,2.00865 -0.66955,1.33914 -0.33474,5.69134 -1.00436,4.3522 -0.66956,-1.67392 0,-3.68261 0.66956,-5.35655 0,-0.66952 0.66958,-1.67388 1.00436,-2.67822 0.33474,-0.66956 0,-1.33914 0.33474,-2.0087 0.33473,-1.00435 1.00436,-2.0087 1.67391,-3.01305 0.33474,-0.66957 1.00435,-1.33915 1.67393,-2.0087 0.33472,-0.33474 1.33912,-0.66958 1.33912,-1.00435 -0.33472,-0.66958 -1.00435,-1.33913 -1.67391,-1.33913 -0.66956,0.33473 -1.33914,2.00869 -2.00869,1.33913 -0.66959,-0.33474 0.33473,-1.33913 0.66955,-2.00865 0.33474,-0.66958 1.33914,-1.00436 1.33914,-1.67393 0,-1.00437 -0.66956,-1.67392 -1.33914,-2.34348 -0.33471,-0.33474 -1.33914,0 -1.67391,-0.33474 -0.66956,-1.00436 -1.00436,-2.34349 -1.67392,-3.01305 -0.33474,-0.33474 -1.00433,0 -1.33909,-0.33474 -0.66956,0 -1.00434,-1.00436 -1.67391,-0.66956 -1.00435,0 -1.67393,0.66956 -2.0087,1.67392 -0.33474,1.00434 1.33914,2.67828 0.33472,3.01305 -1.33913,0.33474 -2.00871,-1.67391 -2.34346,-2.67827 -0.33474,-1.00436 1.33911,-1.67391 1.33911,-2.67826 -0.33472,-0.66958 -1.00436,-1.00435 -2.0087,-1.00435 -0.33473,-0.33474 -0.33473,0.66956 -0.66955,0.66956 -0.66958,-0.33474 0,-1.67393 -0.66958,-1.67393 -1.00435,-0.33472 -2.0087,0.66958 -3.01307,0.66958 -1.00428,0 -2.00865,-1.33909 -3.013,-1.33909 -0.33472,0 -0.66956,1.33909 -1.00437,1.0043 -0.66955,-0.66956 0,-2.34344 -0.66955,-2.67821 -1.00433,-0.33474 -2.0087,1.67391 -3.01305,1.33914 -1.00435,-0.33474 -1.00435,-2.67828 -2.34348,-3.34784 -1.67392,-1.00436 -3.34779,-1.00436 -5.35649,-1.33914 -1.67393,-0.66958 -3.34784,-1.67392 -5.02175,-2.00871 -0.66958,0 1.00435,1.67391 0.33472,1.33913 -1.33912,0 -2.67825,-1.67392 -4.01739,-2.00869 -1.00432,0 -1.3391,1.33911 -1.67388,1.33911 -1.00435,0.66958 -2.0087,0.33477 -2.67828,1.00436 -1.00435,0.33474 -1.33914,1.33914 -2.00869,2.00869 -1.00436,1.00437 -2.00872,2.00872 -3.01305,3.01309 -0.66958,0.66951 -2.00872,1.33907 -2.00872,2.00865 0,1.67391 3.01305,2.67825 2.00872,3.68261 -0.66958,1.00436 -2.34349,-1.33914 -3.34779,-1.33914 -1.33914,0.33474 -2.0087,2.0087 -3.01307,2.67828 -0.66958,0.33473 -1.00433,0 -1.33913,0 -1.33914,0 -2.67826,-0.33473 -4.0174,0.33473 -1.33913,0.33474 -2.34349,2.0087 -3.68258,2.67828 -1.00434,0.33472 -2.0087,0 -3.01306,0 -1.33912,0 -2.67826,-1.00436 -4.01738,-0.66958 -1.00437,0.66958 -0.66959,3.34779 -2.00872,3.01305 -2.0087,0 -2.34342,-3.34783 -4.01735,-3.68261 -1.00434,-0.33474 -1.00434,2.34347 -2.0087,2.67826 -1.00436,0.33473 -1.67392,-1.00434 -1.67392,-2.0087 0.33474,-1.00436 2.3435,-1.00436 3.01306,-2.34348 0.33473,-1.00435 0.33473,-2.67828 0,-3.68263 -0.33474,-1.00435 -0.66956,-2.34347 -1.67392,-2.34347 -2.67828,0 -5.02177,1.67391 -7.69998,2.67825 -2.3435,0.66957 -5.02176,2.00871 -7.36525,2.3435 -1.67392,0.33474 -3.34783,1.00435 -4.68691,0 -0.66955,-0.33474 1.00429,-1.67393 1.67385,-2.0087 1.67394,-0.66958 4.01741,0.33472 5.69134,-0.66958 1.33914,-1.33912 1.33914,-3.34777 2.00872,-5.35649 0,-0.33474 0,-1.00435 0.3347,-1.33913 1.33914,-2.34347 2.67823,-5.02175 4.35216,-7.03045 2.00869,-2.67823 4.01739,-4.68693 6.36088,-7.03041 1.00437,-1.00435 2.67825,-1.67393 3.68257,-3.01305 2.0087,-1.67394 3.34784,-3.68259 4.68698,-5.69129 1.33914,-1.67391 3.01305,-3.68261 3.34783,-6.02611 0,-1.33914 -1.00436,-2.67826 -2.00869,-3.34779 -2.00872,-1.00435 -4.3522,0.33474 -6.02612,-0.66956 -1.33907,-0.66956 -1.67387,-2.34349 -2.00865,-3.68261 -0.33474,-0.66958 0.33473,-1.33914 0.33473,-2.3435 -0.33473,-1.33914 -1.00435,-2.67827 -1.67391,-4.0174 -1.00437,-2.00867 -2.0087,-3.68258 -2.67828,-6.02606 -0.33471,-2.00868 -0.33471,-4.0174 -0.66955,-6.0261 -0.33474,-1.33909 0,-3.01302 -0.66959,-4.35215 -1.00434,-2.0087 -2.34348,-5.02175 -4.68692,-5.35654 -1.33914,0 1.67386,3.34784 1.00431,4.68698 -0.66957,1.00436 -1.67387,-2.34349 -2.67821,-2.00872 -2.3435,1.67394 -3.68263,4.68699 -5.35655,7.03043 -1.67392,3.01305 -3.34785,6.0261 -5.02171,9.03916 -0.66956,1.67391 -1.33914,3.013 -2.0087,4.35213 -0.66958,1.33913 -0.66958,3.01305 -1.67391,3.68263 -1.33914,1.00434 -3.34785,1.67389 -5.02178,1.33914 -1.67391,-0.33474 -2.00869,-2.3435 -3.34776,-2.6783 -0.66958,-0.33474 -1.33917,1.00436 -2.00872,1.00436 -0.66958,0 -1.33914,-1.33912 -2.0087,-1.33912 -2.0087,0.33472 -3.01305,2.67826 -4.687,2.67826 -1.67388,0.33474 -2.6782,-1.33914 -4.35209,-2.0087 -0.33477,0 -1.00439,1.00436 -1.33916,0.66956 -1.67393,-1.00436 -2.67828,-4.0174 -4.68696,-4.0174 -2.67827,-0.33475 -5.35648,2.67828 -8.03476,3.01304 -1.33911,0 -2.34348,-2.34347 -3.34783,-2.00869 -1.67393,0.33474 -3.01304,1.67393 -3.34784,3.34785 0,1.67389 2.34349,3.01305 2.34349,4.68696 0,0.66958 -1.33913,1.33913 -2.00869,1.00435 -1.67389,-0.66956 -2.67823,-3.01305 -4.35214,-3.34784 -0.66959,-0.33472 0.66955,1.67393 0,2.34349 -0.66959,0.66958 -2.3435,1.33913 -3.68264,1.33913 -1.00436,0 -2.00869,-1.33913 -3.34783,-1.33913 -1.67392,-0.33472 -4.01735,-0.66956 -5.69127,0.33472 -0.66958,0.33477 1.00434,2.00867 0,2.34346 -1.67391,1.00434 -4.35221,0 -6.36091,0.66956 -0.66956,0 0.66958,1.33914 0,1.67391 -1.00434,0.33474 -2.00865,-1.00435 -2.67821,-0.66956 -2.00869,1.00435 -2.3435,3.68262 -4.3522,4.3522 -1.33911,0.66956 -3.34783,-0.33474 -4.68699,-1.00436 -2.00863,-1.00436 -4.01733,-2.34349 -5.35649,-4.01741 -1.00433,-1.00434 -1.33911,-2.34343 -1.67389,-3.68257 0,-1.33912 1.33912,-2.67825 1.00436,-4.01742 -0.33473,-1.00433 -2.3435,-1.33911 -2.67828,-2.34347 -0.66958,-1.67392 -1.00436,-4.01737 -1.00436,-5.69127 0.33474,-1.00435 1.67392,-1.33916 2.0087,-2.00871 0.66958,-1.00434 -0.33472,-2.0087 0.33474,-3.01305 1.00435,-1.33914 3.34782,-1.33914 3.68263,-2.67826 0.66956,-2.0087 -0.66958,-3.6826 -1.00434,-5.69129 -0.33475,-1.33912 -1.00436,-2.67826 -1.33916,-3.68261 -0.66956,-0.66958 -1.00433,-1.67395 -1.67389,-2.0087 -0.66958,-0.33474 -2.00874,0.33473 -2.67832,-0.33474 -1.33912,-1.33916 -2.00868,-3.013 -2.00868,-4.68692 -0.33474,-1.33914 1.33914,-2.3435 1.00437,-3.68263 -0.33474,-0.66956 -1.67393,-1.33912 -2.67822,-1.33912 -1.00436,0.33471 -1.33915,1.67391 -2.34349,2.34347 -0.66956,0.33474 -1.33914,0.33474 -2.0087,0 -1.00435,-0.33471 -1.67394,-2.34347 -2.00872,-1.67391 -0.66956,1.00435 1.00437,2.00869 1.00437,3.01305 0.33472,1.00436 0.33472,2.00869 -0.33474,2.67827 -1.00436,1.33908 -2.34347,2.34344 -4.01742,3.013 -1.67385,1.00435 -4.01735,1.00435 -5.69126,2.00869 -1.00434,0.66959 -1.00434,2.3435 -2.0087,3.01308 -1.33913,0.66956 -3.34785,0.66956 -4.68699,1.00436 -2.00865,0.33471 -3.68255,-0.66958 -5.35646,0 -1.67395,0.66956 -3.01307,1.67391 -4.01742,3.01305 -0.33474,1.0043 0.66956,2.00865 0.33473,3.013 -0.33473,0.66955 -1.33914,0.33472 -1.67391,0 -1.00438,-0.66958 -1.33916,-2.34348 -2.34348,-2.67824 -1.00431,-0.66955 -2.34345,0 -3.34782,-0.33471 -2.00869,-0.33474 -4.0174,-1.00437 -5.6913,-2.0087 -1.33918,-0.66958 -1.67391,-3.34786 -3.34784,-3.34786 -1.67387,0 -3.34779,2.00872 -4.35216,3.68264 -0.66956,1.00434 -0.33472,3.01299 0.66956,3.68257 1.33917,1.00435 3.6826,-0.66958 5.0217,0.66956 1.00439,0.66956 0.66956,2.34349 0.33476,3.68261 -0.33476,1.00436 -1.0043,1.67394 -1.67388,2.67829 -0.33471,1.00435 -1.00435,2.0087 -1.00435,3.34782 0,1.67387 0.33473,3.01301 0.66958,4.68692 0.3347,1.00437 0.66958,1.67393 1.33914,2.34351 0.33472,0.66956 1.33907,0.66956 2.00863,0.66956 0.6696,0.33472 1.67393,1.33913 2.67829,1.00435 0.66956,0 1.3391,-1.33914 2.0087,-1.33914 1.33914,0.33474 3.01305,2.0087 2.0087,2.67828 -1.67393,1.67392 -4.68698,0 -6.36092,1.67392 -2.3434,1.67385 -1.67389,6.02605 -4.01733,7.69996 -1.00437,1.00436 -1.00437,-2.67826 -2.34349,-2.67826 -1.33911,0 -1.67392,2.34348 -2.67828,3.34784 -2.34348,2.00869 -4.6869,3.34783 -6.69562,5.02171 -1.00434,1.00435 -1.33912,3.68261 -2.67825,3.34784 -1.67393,0 -0.66956,-3.01307 -2.00872,-4.0174 -1.00437,-0.66958 -2.34348,-1.00432 -3.34784,0 -1.00436,1.00433 0,4.35217 -1.67385,4.35217 -2.3435,0.33474 -3.68261,-2.34347 -5.69133,-3.68261 -1.67392,-1.00436 -3.68263,-1.67388 -4.68697,-3.34779 -0.66956,-0.66956 0.33471,-2.0087 0,-3.01306 -1.33916,-2.67825 -2.34347,-6.36089 -5.0217,-7.36521 -2.00872,-0.66955 -2.34351,4.01737 -4.3522,4.35216 -1.33914,0.33473 -1.67392,-2.3435 -3.01305,-3.01306 -1.0043,-0.33473 -2.34344,-0.33473 -2.67821,0.66956 -0.33474,1.00436 2.34342,3.01306 1.00433,3.34785 -4.35219,1.67393 -9.03914,0.66956 -13.72609,0.66956 -1.6739,0 -4.35218,-1.33911 -5.02176,0.33474 -1.00433,2.67825 -0.33471,6.02604 1.00437,9.03909 0.33472,1.00437 2.34349,0 3.34783,0 1.00435,-0.3347 2.00872,-1.00433 2.67828,-0.3347 1.00428,0.66956 0.66958,2.34347 0.66958,3.34783 -0.33474,1.00433 -1.00437,2.34347 -2.00872,2.34347 -1.00434,0 -1.67392,-2.34347 -3.01306,-2.34347 -1.67391,0.33473 -4.0174,1.33913 -4.68698,3.01305 -1.00435,2.67828 -0.3347,5.69127 0,8.36954 0.33474,1.00436 1.00437,1.67392 2.0087,2.67825 0.66958,0.33474 2.00872,0.33474 2.3435,1.33917 1.00436,1.00434 0.66956,2.34343 1.33914,3.68257 0.33471,1.00435 1.33912,1.67391 1.33912,2.67825 0,1.67392 -1.00434,3.01305 -1.00434,4.68698 0,1.33914 0.66958,3.01305 0.33473,4.35214 -1.00436,7.36525 -2.3435,15.06521 -4.01741,22.43041 -0.66956,3.01306 -0.66956,6.69569 -2.67825,8.70439 -1.0043,1.00436 -2.67824,-2.67828 -4.01738,-2.3435 -2.00869,0.33474 -2.67828,3.01306 -4.68697,3.34786 -1.00436,0.33471 -2.0087,-1.67394 -3.01305,-1.33914 -1.0043,0 -1.3391,1.33914 -2.34344,1.67389 -1.00435,0.66958 -2.34347,-0.33471 -3.34783,0 -2.0087,1.00436 -3.34784,2.67824 -5.02175,4.01737 -1.67395,1.33914 -3.6826,2.0087 -5.02174,3.68262 -1.673911,1.67391 -2.678254,4.01741 -3.347812,6.02606 -0.66958,1.67392 -1.004365,3.347841 -1.339138,5.021751 0,1.33914 0.334739,2.67828 0,4.01742 -0.334762,1.67392 -0.334762,3.682546 -1.673923,5.021706 -0.66957,1.339137 -3.013005,0.669558 -3.682586,2.008695 -1.004342,1.673918 -0.669558,3.682614 -0.669558,5.356553 0,1.004337 0.669558,2.343431 0,3.012989 -0.669557,1.004359 -2.343492,0.334735 -2.678254,1.339138 -0.334762,0.669558 0.334717,1.673917 0.669558,2.343475 0.669558,0.66958 1.673912,0.66958 2.343492,1.339138 0.669558,0.669581 0.334717,2.008718 0.669558,2.678276 0.334739,1.004338 0.669558,2.008696 1.339082,2.678277 z M 350.00555,-165.30091 c 1.00434,-1.67392 2.00869,-3.68262 3.34781,-5.35653 1.00436,-1.00436 2.67823,-4.01734 3.68259,-3.01301 1.33912,1.67387 -0.33473,4.35215 -1.00436,6.02606 -0.66954,2.0087 -2.00865,4.0174 -3.68256,5.35653 -1.33914,1.33907 -3.68265,4.68693 -5.02178,3.01302 -1.67392,-1.67395 1.67394,-4.01735 2.6783,-6.02607 z m 11.0478,-4.68697 c -0.33474,1.33914 1.00435,2.67828 1.00435,4.01742 -0.33474,1.33913 -2.00869,2.00869 -2.00869,3.01302 -0.33474,1.6739 0,3.6826 1.00434,5.02174 0.66956,0.66956 2.34347,0 3.01305,0.66956 0.66956,0.66955 -0.66958,2.0087 0,2.34349 1.67392,0.66956 3.34786,0 4.68693,0.33472 1.00434,0 1.67392,1.00435 2.67827,0.66958 0.66956,0 0.33472,-1.33914 1.00435,-2.0087 1.33912,-0.66958 2.67826,-0.33474 3.68263,-1.00437 1.33913,-0.33472 2.00869,-1.67391 3.34783,-1.67391 0.66951,0 1.00429,1.33914 2.00865,1.33914 0.66956,0 1.67391,-0.66956 2.0087,-1.67392 0,-1.00436 -1.67393,-2.67823 -1.00434,-3.68256 1.00434,-1.67393 3.68261,-1.67393 5.02175,-3.34786 1.33914,-1.67392 4.35212,-4.01739 3.01305,-6.02611 -1.67391,-2.34342 -6.02611,-3.013 -8.70439,-1.67386 -2.0087,1.33909 0,5.35649 -1.67391,7.36518 -0.66951,1.00437 -1.33909,-2.34347 -1.33909,-3.6826 0,-0.66959 1.67387,-0.33474 1.67387,-1.00437 0,-1.00435 -0.66957,-2.0087 -1.33907,-2.34342 -2.3435,-1.00435 -4.68698,-0.66958 -7.03047,-0.66958 -2.0087,-0.33472 -4.35215,-0.33472 -6.36084,0 -1.00436,0.33472 -1.67392,1.33909 -2.67825,2.00865 -0.66958,0.66958 -2.00872,1.00435 -2.00872,2.00872 z m 6.36091,-6.02607 c 2.00865,-0.33471 4.01734,0.33476 5.35646,-0.66955 1.00435,-0.66956 2.00869,-2.67826 1.33914,-3.34784 -1.67391,-1.33914 -4.35219,0.33473 -6.02611,-0.66956 -0.66949,-0.66958 2.00871,-3.01306 1.00436,-3.01306 -2.00866,0 -3.68257,1.33912 -5.02171,2.67826 -1.00433,0.66958 -2.0087,1.67394 -2.0087,3.01306 -0.33474,1.00435 0,2.34349 1.00437,2.67828 0.66955,0.33472 0.66955,-1.33914 1.00433,-2.0087 0.66956,-0.66958 0.66956,-1.67395 1.67392,-2.0087 0.33473,-0.33474 1.33913,0.33471 1.00435,1.00433 0,1.00437 -2.00871,1.67393 -1.67392,2.34348 0,1.00436 1.67392,0 2.34351,0 z m -9.03919,-0.33471 c -1.33912,0.33471 -0.66956,3.34776 0,4.35213 0.66958,1.00435 2.67828,0.33473 2.67828,-0.33472 0,-1.6739 -1.00434,-4.35215 -2.67828,-4.01737 z"
       inkscape:connector-curvature="0"
       style="fill:#6888be;fill-opacity:1;stroke:none;stroke-width:0.66956478" />
    <text
       xml:space="preserve"
       style="font-style:italic;font-variant:normal;font-weight:normal;font-stretch:normal;font-size:372.43148804px;line-height:1.25;font-family:'Handel Gothic Italic';-inkscape-font-specification:'Handel Gothic Italic, Italic';font-variant-ligatures:normal;font-variant-caps:normal;font-variant-numeric:normal;font-feature-settings:normal;text-align:start;letter-spacing:0px;word-spacing:0px;writing-mode:lr-tb;text-anchor:start;fill:#6888be;fill-opacity:1;stroke:none;stroke-width:0.79806745;stroke-opacity:1"
       x="864.38989"
       y="232.92346"
       id="text5140-1-8"
       transform="skewX(5.9999997)"><tspan
         sodipodi:role="line"
         id="tspan5138-3-1"
         x="864.38989"
         y="232.92346"
         style="font-style:italic;font-variant:normal;font-weight:normal;font-stretch:normal;font-size:372.43148804px;font-family:'Handel Gothic Italic';-inkscape-font-specification:'Handel Gothic Italic, Italic';font-variant-ligatures:normal;font-variant-caps:normal;font-variant-numeric:normal;font-feature-settings:normal;text-align:start;writing-mode:lr-tb;text-anchor:start;fill:#6888be;fill-opacity:1;stroke:none;stroke-width:0.79806745;stroke-opacity:1">br</tspan></text>
    <circle
       style="opacity:1;fill:url(#linearGradient4891);fill-opacity:1;stroke:none;stroke-width:0.5705443;stroke-miterlimit:4;stroke-dasharray:none;stroke-opacity:1;filter:url(#filter5112)"
       id="path4656"
       cx="686.18384"
       cy="-111.22358"
       r="250" />
    <path
       id="path4646"
       d="m 604.62234,-211.79409 c 0.30427,0.6085 0.9128,0.91277 1.36919,1.36916 0.30424,0.4564 0.60851,1.06492 0.91277,1.67346 0.30426,0.60853 0.9128,1.06492 0.9128,1.67345 0,0.4564 -0.76066,0.76066 -0.9128,1.21703 0,0.30427 0,0.60854 0.15211,1.06493 l 0.4564,0.4564 c 0.60853,0 0.76066,-0.60853 1.21705,-0.91279 h 0.76067 c 0.30426,0.1521 0.30426,0.76065 0.60852,0.76065 0.15211,0.15212 0.4564,-0.45639 0.76067,-0.30426 0.30426,0 0.60852,0.15211 0.76063,0.4564 0.4564,0.60852 0.30427,1.36919 0.76066,1.97771 0.30427,0.4564 0.9128,0.60853 1.52133,0.76067 0.45639,0 1.06492,-0.15211 1.36919,-0.4564 0.45639,-0.4564 0.45639,-1.06493 0.76065,-1.36919 0.30427,-0.30427 0.76067,-0.15211 1.06491,-0.30427 0.30427,-0.1521 0.60853,-0.45639 1.06493,-0.60852 0.15211,-0.15211 0.60853,-0.60853 0.76065,-0.4564 0.4564,0.60853 0.30427,1.36919 0.30427,1.97772 0.15211,1.82558 -0.45639,3.80328 0.15211,5.47674 0.15211,0.60852 1.06492,0.45639 1.67346,0.30426 0.60852,-0.15211 1.06492,-0.76066 1.67342,-0.76066 0.76066,-0.15211 1.52133,0 2.12985,0 0.91279,0.1521 1.97772,0.1521 2.89049,0.1521 1.06493,0.15211 2.12986,0.30427 3.19478,0 0.45639,0 0.91279,-0.60852 1.06492,-1.06492 0.30426,-0.30427 0,-0.9128 0.30426,-1.21706 0.15212,-0.15211 0.76065,-0.15211 1.06491,-0.15211 0.30426,0 0.45639,0.4564 0.60853,0.30427 0.60852,-0.15211 1.06493,-0.60853 1.36919,-0.91279 0.4564,-0.45638 0.60853,-1.21704 1.06493,-1.5213 0.30426,-0.15211 0.60852,0.45639 0.76065,0.30426 0.4564,-0.30426 0.60854,-0.91279 0.9128,-1.36919 0.45637,-0.4564 1.0649,-0.91279 1.5213,-1.06492 0.76066,-0.30427 1.67345,-0.4564 2.43411,-0.60853 0.45639,0 0.76066,-0.15211 1.21706,-0.15211 0.4564,0 0.91277,0.15211 1.36917,0.15211 0.30426,0 0.60853,-0.30426 0.91279,-0.30426 0.15211,-0.15211 0.45639,-0.4564 0.60853,-0.15211 0.4564,0.45639 0.60852,1.36918 0.60852,1.97772 0,0.60852 -0.60852,0.91279 -0.60852,1.36919 -0.15211,0.60852 0,1.21705 0.1521,1.67342 0.15211,0.4564 0.60853,0.60853 0.76067,1.06493 0.1521,0.4564 0.1521,0.91279 0,1.36919 -0.15211,0.30426 -0.76067,0.15211 -0.76067,0.4564 0,0.60853 0.30427,1.06492 0.4564,1.52132 0.30427,0.6085 0.30427,1.21703 0.76067,1.82556 0.45639,0.76066 1.06491,1.52132 1.82556,1.97771 0.60852,0.4564 1.36919,0.4564 1.97771,0.76067 0.30427,0.30426 0.15211,1.06492 0.60853,1.36919 0.4564,0.30424 1.06493,0.30424 1.52133,0.1521 0.60853,0 1.06492,-0.1521 1.5213,-0.30423 0.1521,0 0.30426,-0.30427 0.60852,-0.30427 0.60853,0.15211 1.36919,0.6085 1.97772,0.91277 0.4564,0.30426 0.60853,0.9128 1.06493,1.21706 0.45639,0.15211 0.91279,-0.15211 1.21705,0.15211 0.60851,0.15211 0.91277,0.91279 1.5213,1.06493 0.4564,0.30426 1.06493,0.45639 1.52133,0.45639 0.30426,0.15211 0.76065,-0.15211 1.06492,0.15211 0.60853,0.45639 0.91279,1.36919 1.67343,1.82558 0.4564,0.30425 1.21706,0.45637 1.97771,0.30425 0.30427,-0.15211 0.30427,-0.91277 0.76067,-0.91277 0.60852,-0.15211 1.06492,0.30426 1.67345,0.45639 0.4564,0.30424 0.91277,0.6085 1.36917,0.91277 0.60853,0.30427 1.52132,0.4564 1.82558,1.06492 0.30427,0.4564 -0.30426,1.21707 -0.1521,1.82559 0.1521,0.76067 0.76066,1.3692 1.06492,2.12983 0.15211,0.4564 0,1.21706 0,1.82559 0,0.15211 0.15211,0.30426 0,0.45639 -0.4564,0.15211 -0.91279,-0.15211 -1.21706,0 -0.15211,0.15211 0,0.60853 0.15212,0.76066 0.1521,0.30427 0.60852,0.4564 0.76065,0.91279 0.30427,0.60854 0.4564,1.36917 0.4564,2.12984 0.15211,0.60852 0,1.21705 0.15211,1.67345 0.1521,0.60853 0.60852,1.21706 1.06492,1.36919 1.21704,0.30427 2.58623,0 3.95542,0 1.21705,0.15211 2.43409,0.15211 3.65115,0.15211 0.30426,0.15211 1.06492,-0.30426 1.06492,0.15211 0.15211,0.4564 -0.76066,0.76066 -0.91279,1.36916 0,0.4564 0.4564,0.76066 0.60852,1.06492 0.30427,0.60854 0.30427,1.36919 0.60854,1.82559 0.30426,0.4564 0.76065,0.60853 1.21705,0.91279 0.4564,0.4564 0.76067,0.9128 1.21706,1.36918 0.45638,0.45639 0.91277,1.06492 1.21703,1.67345 0.30427,0.60853 0.30427,1.21705 0.30427,1.97772 0,0.60852 -0.15211,1.21705 -0.4564,1.82556 -0.1521,0.76066 -0.60852,1.52132 -0.91277,2.28198 -0.1521,0.9128 -0.4564,1.67345 -0.76066,2.43412 -0.15211,0.45637 -0.60853,1.0649 -0.45639,1.52129 0.15211,0.4564 0.76065,0.4564 1.06492,0.60853 0.15211,0.30426 0.30424,0.60853 0.15211,0.76066 -0.15211,0.30427 -0.60853,0 -0.9128,0.30427 -0.30426,0.30426 -0.45639,0.91279 -0.30426,1.36919 0,0.60852 0.4564,1.06492 0.60853,1.67343 0.15211,0.30426 0.30426,0.60853 0.4564,1.06493 0.1521,0.30426 0.4564,0.60852 0.4564,1.06492 0.1521,0.60853 0.1521,1.21706 0,1.97772 0,0.30426 -0.15212,0.60853 -0.30427,1.0649 0,0.30426 0.15211,0.76066 0.15211,1.06493 0,0.45639 -0.30426,0.91279 -0.30426,1.36919 0,0.45639 0,1.06492 0.45639,1.36919 0.45637,0.1521 0.91277,-0.4564 1.36917,-0.4564 0.45639,0 1.06493,0.1521 1.67345,0.1521 0.4564,0.15211 1.06493,0 1.52132,0.15211 0.4564,0 0.76066,0.30427 1.06491,0.30427 0.30426,0.15211 0.76065,0.30426 1.06492,0.30426 0.30427,-0.15211 0.30427,-1.06492 0.76066,-0.91279 0.4564,0 0.4564,0.76066 0.9128,1.06492 0.60852,0.30427 1.52132,0 2.12984,0.30427 0.45638,0.45637 0.76065,1.36917 0.91277,1.9777 0.4564,1.21705 0.4564,2.28198 0.76067,3.49904 0.1521,0.6085 0.1521,1.5213 0.76066,1.97769 0.30426,0.30427 1.06492,0.30427 1.67345,0.4564 0.76066,0 1.5213,-0.30427 2.12983,-0.15211 0.60852,0.15211 1.52132,0.4564 1.67345,1.06493 0.30427,0.76066 -0.60853,1.52132 -0.60853,2.28198 0,0.6085 0.4564,1.0649 0.30427,1.67343 0,0.4564 -0.4564,0.91279 -0.4564,1.52132 -0.15211,0.30427 0.4564,0.4564 0.30426,0.76066 -0.15211,0.30427 -0.60853,0.15211 -0.76065,0.4564 -0.15212,0.30426 -0.15212,0.76066 0,1.21703 0,0.4564 0,0.9128 0.45639,1.06493 0.60853,0.15211 1.52133,-0.60853 2.12985,-0.30427 0.76067,0.4564 1.06493,1.52132 1.36919,2.28199 0.30427,0.45639 0.45637,1.06492 0.45637,1.52132 -0.1521,0.30426 -0.6085,0.45639 -0.6085,0.76064 -0.15211,0.45639 0.1521,0.91279 0.1521,1.52132 0,0.45639 -0.1521,0.91279 -0.30426,1.36919 -0.30426,0.60853 -0.45639,1.06492 -0.91279,1.52132 -0.30426,0.30426 -0.60853,0.4564 -1.06493,0.60853 -0.45639,0.15211 -1.06492,0 -1.67345,0.15211 -0.60853,0.30424 -1.06493,0.91277 -1.5213,1.21703 -0.4564,0.30426 -0.76066,0.76066 -1.21705,1.06493 -0.60853,0.45639 -1.36919,0.76066 -2.12986,1.21705 -0.30426,0.30427 -0.4564,0.76066 -0.91279,1.21706 -0.30426,0.4564 -0.76064,0.91277 -1.0649,1.36917 -0.30427,0.30426 -0.45639,0.60853 -0.76066,0.91279 -0.4564,0.4564 -0.9128,0.60853 -1.36919,0.91279 -0.30426,0.4564 -0.4564,1.06493 -0.76066,1.36919 -0.30427,0.456397 -0.76067,0.608527 -1.06493,1.064927 -0.30426,0.45639 -0.30426,1.21703 -0.76066,1.67343 -0.45637,0.45639 -1.21704,0.30426 -1.5213,0.76066 -0.45639,0.30426 -0.45639,0.91279 -0.60853,1.36919 -0.1521,0.30426 -0.4564,0.76066 -0.1521,0.91279 0.30426,0.30427 0.76066,-0.30426 1.06492,-0.15211 0.30427,0 0.45639,0.4564 0.60853,0.4564 0.30426,0 0.45637,-0.30426 0.60851,-0.4564 0.1521,-0.15211 0.1521,-0.45639 0.30426,-0.60853 0.30426,-0.1521 0.76066,-0.30426 1.06493,-0.30426 0.30426,0 0.30426,0.4564 0.60852,0.60853 0.15211,0.15211 0.4564,0.15211 0.60853,0.30426 0.30426,0.30427 0.15211,0.76066 0.4564,1.06493 0.30426,0.30424 0.91279,0.30424 1.06492,0.45637 0.30427,0.30427 0.30427,0.760663 0.4564,1.064927 0.15211,0.456397 0.30426,0.912794 0.4564,1.064925 0.15211,0.152109 0.45637,0.152109 0.76063,0 0.15211,0 0.4564,-0.152108 0.76067,-0.304264 0.1521,-0.152108 0.30426,-0.152108 0.30426,-0.304264 0.15211,-0.152109 0,-0.456397 0,-0.608529 0.15211,-0.152108 0.30426,-0.152108 0.4564,-0.152108 0.30426,0 0.91279,0 0.91279,0.304264 0.15211,0.304264 -0.4564,0.608529 -0.60853,0.912793 0,0.304264 0.15211,0.608528 0.30427,0.760661 0.45639,0.608529 1.06492,1.217058 1.82558,1.521322 0.4564,0.304265 1.21703,0.304265 1.67343,0.608529 0.4564,0.304264 0.91279,0.760637 1.21706,1.064901 0.30426,0.456397 0.4564,0.912794 0.9128,1.217058 0.45639,0.456396 1.21705,0.456396 1.67345,1.064925 0.60853,0.456397 0.60853,1.36919 1.0649,1.977718 1.21706,1.673431 2.89051,0.760638 1.67345,2.738357 0,0.152109 -0.30426,0.304264 -0.45639,0.456396 -0.30427,0.152109 -0.4564,0.152109 -0.60854,0.304265 -0.1521,0.304264 -0.30426,0.456397 -0.30426,0.760661 0,0.304264 -0.15211,0.760661 0,1.217058 0,0.304264 0.30426,0.608505 0.4564,0.760637 0.30426,0.152109 0.4564,0.152109 0.76066,0 0.15211,0 0.30427,-0.304265 0.45639,-0.456373 0.4564,-0.152109 0.9128,-0.304264 1.21707,-0.456397 0.45639,-0.304264 1.06492,-0.608529 1.36919,-1.064925 0.30426,-0.304264 0.30426,-0.760661 0.30426,-1.217058 0.15211,-0.304264 0.15211,-0.608529 0.15211,-0.912793 0.15211,-0.304265 0.30426,-0.608529 0.30426,-0.912794 0.30425,-0.608528 0.76064,-1.217034 0.76064,-1.825562 0.15211,-0.304264 -0.30427,-0.608529 -0.30427,-1.064926 0,-0.304264 0.30427,-0.456396 0.30427,-0.608528 0.15211,-0.456397 0.15211,-0.912794 0.4564,-1.36919 0.30426,-0.608529 0.91279,-1.369166 1.36919,-1.977694 0.30426,-0.304265 0.76066,-0.304265 0.91279,-0.456398 0.30426,-0.152108 0.4564,-0.304264 0.60852,-0.608528 0.15212,-0.304265 0,-0.760661 0.15212,-1.217058 0.15211,-0.456396 0.60853,-0.760661 0.76065,-1.217057 0.15211,-0.304264 0.4564,-0.456397 0.4564,-0.912791 0,-0.15211 -0.30426,-0.30427 -0.30426,-0.45638 -0.30426,-0.30426 -0.4564,-0.60852 -0.60853,-1.06492 0,-0.15211 -0.15211,-0.30427 0,-0.4564 0.45639,0 0.91279,0 1.21704,0.30427 0.45639,0.45639 0.30426,1.06492 0.60852,1.5213 0.30427,0.30426 0.60853,0.45639 0.76067,0.45639 0.30426,0 0.1521,-0.30426 0.1521,-0.45639 0.15211,-0.15211 0,-0.60851 0.15211,-0.45638 0.30427,0 0.30427,0.45638 0.60853,0.60851 0.15211,0 0.30426,-0.45638 0.4564,-0.30427 0.15211,0.15211 0.15211,0.4564 0,0.760664 -0.15211,0.152109 -0.76066,0 -0.9128,0.304264 -0.15211,0.152109 0.15211,0.608529 0,0.912794 -0.15211,0.304264 -0.45639,0.456396 -0.76065,0.912793 -0.15212,0.152108 0,0.456396 -0.30427,0.608529 -0.45638,0.304264 -1.21703,0 -1.5213,0.456396 -0.30427,0.456397 0.30427,1.217058 0.15211,1.673431 -0.15211,0.304264 -0.76066,0.152108 -1.06493,0.304264 -0.30426,0.152109 -0.4564,0.456397 -0.60852,0.608529 -0.4564,0.456397 -1.21707,0.760661 -1.67346,1.217057 -0.15211,0.304265 -0.15211,0.760662 0,1.064926 0.30427,0.304264 0.91279,0.456396 1.21706,0.152108 0.30426,0 0.30426,-0.608529 0.60852,-0.912793 0.30427,-0.304264 0.76067,-0.608529 1.06493,-0.912793 0.60853,-0.304264 1.06493,-0.608528 1.52132,-1.064925 0.45638,-0.304265 0.60851,-0.760637 0.91277,-1.064902 0.4564,-0.456397 0.9128,-0.456397 1.21706,-0.760661 0.45639,-0.608529 0.76066,-1.217058 1.06493,-1.977719 0.30426,-0.304264 0.60853,-0.76066 0.60853,-1.217057 0.30426,-0.608525 0.30426,-1.217035 0.45639,-1.825565 0,-0.15211 -0.15211,-0.45639 0,-0.60853 0.15211,-0.30426 0.60853,-0.30426 0.76066,-0.60853 0.15211,-0.1521 0.15211,-0.45639 0.30426,-0.60852 0.30427,-0.4564 0.76065,-0.4564 0.91277,-0.9128 0.15211,-0.30426 -0.30426,-0.76066 -0.30426,-1.06492 0,-0.15211 0,-0.4564 0.15211,-0.4564 0.30426,0 0.60853,0.30427 1.06492,0.30427 0.30427,-0.15211 0.4564,-0.60853 0.60853,-0.76064 0.30426,-0.4564 0.60853,-0.76066 0.9128,-1.06493 0.60853,-0.30426 1.21706,-0.30426 1.82558,-0.608527 0.30427,-0.30426 0.60853,-0.76066 0.91277,-1.21705 0.15211,-0.30427 0.4564,-0.60853 0.60853,-0.9128 0.15211,-0.60853 0,-1.21705 0.15211,-1.67343 0.15211,-0.76066 0.60853,-1.36919 0.60853,-2.12985 0.15211,-0.45639 -0.30427,-0.60853 -0.30427,-1.06492 0.15212,-0.4564 0.76066,-0.9128 0.76066,-1.52133 0,-0.30426 -0.45639,-0.6085 -0.45639,-0.91276 -0.15211,-0.60853 -0.15211,-1.21706 -0.15211,-1.82559 0,-0.60853 0,-1.06493 0.15211,-1.67346 0,-0.76066 0.15211,-1.36918 0.45639,-2.12982 0.15211,-0.4564 0.9128,-0.60853 0.9128,-1.21706 0,-0.30426 -0.60853,-0.4564 -0.9128,-0.76066 v -0.4564 c 0.15211,-0.15211 0.30427,-0.30426 0.4564,-0.45639 0.60853,0 1.21706,1.06492 1.82559,0.91279 0.91279,-0.15211 0.76066,-1.52132 1.21703,-2.12985 0.60854,-0.60851 1.21706,-0.91277 1.97772,-1.36917 0.76066,-0.60853 1.67346,-1.06492 2.58625,-1.67345 0.4564,-0.30427 0.91277,-0.76066 1.36916,-1.06493 0.30427,-0.30426 0.60854,-0.60853 1.06493,-0.76066 0.4564,-0.30426 1.06492,-0.45639 1.67345,-0.76066 0.4564,-0.30426 0.9128,-0.91277 1.52133,-0.91277 0.6085,-0.15211 1.36916,0.30427 1.97769,0.30427 0.60853,0 1.36919,0 1.82559,-0.30427 0.60852,-0.30426 0.76066,-1.06492 1.21705,-1.36919 0.4564,-0.45639 1.21704,-0.45639 1.67343,-0.91279 0.30427,-0.30427 0.15211,-0.76066 0.4564,-1.21706 0.15211,-0.30426 0.30427,-0.60853 0.60853,-0.76066 0.4564,0 0.91279,0.30426 1.36919,0.4564 0.30427,0 0.76066,0.30426 1.21706,0.30426 0.30426,0 0.60852,-0.60853 1.0649,-0.76066 0.30427,0 0.76066,0 1.06492,0.15211 0.30427,0.15211 0.30427,0.60853 0.60854,0.91279 0.1521,0.15211 0.45639,0.30427 0.76065,0.30427 0.76066,-0.15211 1.67346,-0.15211 2.28199,-0.60853 0.30426,-0.15211 0.15211,-0.76066 0.45637,-0.9128 0.30426,0 0.4564,0.60853 0.76066,0.76067 0.4564,0.1521 1.21706,0.1521 1.67346,0.30426 0.45639,0.15211 0.60853,0.76066 0.91279,0.60853 0.76066,-0.15211 1.52132,-0.60853 1.97772,-1.21706 0.30424,-0.4564 0,-1.21703 0.30424,-1.5213 0.30426,-0.45639 0.91279,-0.45639 1.21705,-0.76066 1.06493,-0.4564 2.12986,-0.76066 2.89052,-1.52132 0.30426,-0.15211 0.15211,-0.60853 0.15211,-0.91279 0,-0.30426 -0.4564,-0.30426 -0.4564,-0.45641 0,-0.30426 0.30426,-0.76065 0.60853,-0.76065 0.30426,0 0.60853,0.76065 0.76064,0.45639 0.30426,-0.30426 -0.15211,-0.91277 0,-1.5213 0,-0.1521 0.15211,-0.45639 0.30426,-0.76066 0.45639,-0.60853 0.91279,-1.21705 1.52132,-1.82558 0.4564,-0.60853 1.21706,-1.21706 1.67345,-1.82559 0.15211,-0.30424 0.15211,-0.76063 0.4564,-1.0649 0.60853,-0.76066 1.36916,-1.67345 1.9777,-2.43412 0.76065,-0.76066 1.52132,-1.36919 1.97772,-2.12982 0.45639,-0.76066 0.45639,-1.67345 0.60853,-2.58625 0.1521,-0.60853 0,-1.36919 0.1521,-2.12985 0.15211,-0.76064 0.30427,-1.52129 0.76067,-2.12983 0.30426,-0.91279 0.91279,-1.67345 1.36919,-2.43411 0.45637,-0.4564 1.06489,-0.9128 1.21703,-1.5213 0.30426,-0.60853 0,-1.36919 0.15211,-1.97772 0.1521,-1.36919 0.60852,-2.58625 1.06492,-3.65114 0.30427,-1.06493 0.91279,-1.97772 1.21706,-2.89052 0.1521,-0.30427 0.4564,-0.60853 0.4564,-0.91279 0,-0.60853 -0.30427,-1.06493 -0.30427,-1.67344 0,-0.45639 0.45639,-0.91279 0.45639,-1.36919 -0.1521,-0.76065 -0.76065,-1.36918 -0.76065,-2.12984 0,-0.60853 0.30426,-1.36919 0.60853,-1.9777 0.1521,-1.06493 0.76066,-1.97772 0.76066,-2.89051 0,-0.9128 -0.9128,-1.52132 -0.9128,-2.43409 0,-0.76066 0.60853,-1.52132 0.9128,-2.28198 0.15211,-0.4564 0.15211,-0.91279 0.30426,-1.21706 0.30427,-0.30426 0.91277,-0.4564 0.91277,-0.76066 0,-0.4564 -0.6085,-0.76064 -0.6085,-1.21704 0,-0.30426 0.45637,-0.76066 0.76063,-0.60852 0.60853,0.30426 0.30427,1.36916 0.91279,1.67342 0.4564,0.30427 1.21707,-0.15211 1.67346,-0.45639 0.4564,-0.30424 0.76066,-0.91277 1.21706,-1.21703 0.76066,-0.76067 1.67342,-1.06493 2.28196,-1.82559 0.60853,-0.60853 0.91279,-1.52132 1.36919,-2.28198 v -0.15211 c 0,-0.4564 0.15211,-1.06493 0.30426,-1.52133 0.15211,-0.45639 0.60853,-0.91279 0.76066,-1.52132 0.15211,-0.30426 -0.15211,-0.60852 0,-0.76066 0.30426,-0.15211 0.60853,0.4564 0.76066,0.30426 0.4564,-0.30426 0.4564,-1.06492 0.76067,-1.52131 0.45637,-0.45638 1.06489,-0.91277 1.67342,-1.36917 0.9128,-0.91279 1.82559,-1.82558 2.89052,-2.58625 0.45639,-0.30426 0.91279,-0.60852 1.36916,-1.06492 0.30427,-0.30427 0.15211,-0.91277 0.4564,-1.21704 0.30426,-0.15211 0.76066,0 1.06493,-0.15211 0.30426,-0.30426 0.60852,-0.60852 0.76066,-1.06492 0.15211,-0.15211 -0.15212,-0.60853 0,-0.91279 0.60853,-0.76067 1.52132,-1.21707 2.12984,-1.97772 0.60853,-0.60854 1.21704,-1.36917 1.5213,-2.12983 0.60854,-0.91279 0.76066,-1.82558 1.21706,-2.89051 0.45639,-1.06493 1.06493,-2.12983 1.36919,-3.34689 0.15211,-1.21705 0.15211,-2.43411 0,-3.49901 0,-1.52132 0,-2.89051 -0.15211,-4.41184 -0.15211,-0.76063 -0.30426,-1.67343 -0.45639,-2.58622 -0.15211,-0.60853 -0.15211,-1.21706 -0.30427,-1.97772 -0.4564,-1.21705 -0.91279,-2.43409 -1.52132,-3.49902 -0.30427,-0.4564 -0.76066,-0.76066 -1.21704,-0.91279 -1.21705,-0.4564 -2.43411,-0.60853 -3.65117,-0.76066 -0.91279,-0.15211 -1.82556,0.30426 -2.73835,0.15211 -1.06493,-0.30427 -1.97772,-1.06493 -2.89052,-1.52132 -1.06492,-0.76064 -1.82556,-1.5213 -2.73835,-2.12983 -1.06493,-0.76066 -1.97772,-1.52132 -2.89052,-2.43412 -0.91279,-0.76065 -1.67342,-1.67343 -2.58622,-2.58622 -0.76065,-0.60853 -1.52132,-1.36919 -2.43411,-1.82559 -0.9128,-0.60852 -2.12983,-0.60852 -3.19475,-1.06492 -0.60854,-0.4564 -1.21706,-1.0649 -1.97772,-1.36916 -0.9128,-0.30427 -1.82557,-0.30427 -2.73836,-0.4564 -0.91279,0 -1.97771,0.1521 -2.89051,0.30426 -0.60853,0.15211 -1.21706,0.76064 -1.97769,0.76064 -0.76067,-0.15211 -1.36919,-0.91277 -2.12986,-1.21704 -0.45639,-0.15211 -1.06492,-0.45639 -1.67345,-0.45639 -0.60853,-0.15211 -1.36916,0.30426 -1.9777,0.15211 -0.30426,-0.15211 -0.45639,-0.76067 -0.76065,-0.76067 -0.60853,-0.30426 -1.36919,0 -1.97772,-0.1521 -0.30427,-0.15211 -0.30427,-0.76067 -0.60854,-0.91279 -0.76065,-0.30427 -1.67342,-0.30427 -2.43408,-0.60853 -0.15211,0 -0.30427,-0.4564 -0.60853,-0.4564 -0.30426,0.15211 -0.15211,0.91279 -0.4564,1.06493 -0.45639,0.1521 -0.91279,-0.15211 -1.21705,-0.4564 -0.30427,-0.15211 -0.15211,-0.91279 -0.4564,-0.76067 -0.4564,0.30427 -0.30427,1.06493 -0.60853,1.52133 -0.30426,0.15211 -0.60851,0.15211 -0.91277,0 -0.30427,0 -0.60853,-0.30426 -0.76067,-0.4564 -0.30426,-0.15211 -0.60852,-0.30426 -0.91279,-0.15211 -0.30426,0.4564 -0.30426,1.21706 -0.4564,1.82559 -0.30426,0.45639 -0.45639,0.91279 -0.91279,1.36919 -0.30426,0.30424 -0.91279,0.45637 -1.21705,0.91277 -0.30426,0.60853 -0.15211,2.58625 -0.4564,1.97772 -0.30426,-0.76066 0,-1.67345 0.30426,-2.43412 0,-0.30424 0.30427,-0.76064 0.4564,-1.21703 0.15211,-0.30426 0,-0.60853 0.15211,-0.91279 0.15211,-0.4564 0.4564,-0.9128 0.76066,-1.36919 0.15211,-0.30427 0.45639,-0.60854 0.76066,-0.9128 0.15211,-0.15211 0.60853,-0.30427 0.60853,-0.45639 -0.15211,-0.30427 -0.4564,-0.60853 -0.76066,-0.60853 -0.30426,0.15211 -0.60853,0.91279 -0.91279,0.60853 -0.30427,-0.15211 0.15211,-0.60853 0.30426,-0.91277 0.15211,-0.30427 0.60853,-0.4564 0.60853,-0.76067 0,-0.4564 -0.30426,-0.76066 -0.60853,-1.06492 -0.1521,-0.15211 -0.60853,0 -0.76066,-0.15211 -0.30426,-0.4564 -0.4564,-1.06493 -0.76066,-1.36919 -0.15211,-0.15211 -0.45639,0 -0.60851,-0.15211 -0.30426,0 -0.45639,-0.4564 -0.76065,-0.30426 -0.4564,0 -0.76067,0.30426 -0.9128,0.76066 -0.15211,0.45639 0.60853,1.21706 0.15211,1.36919 -0.60853,0.15211 -0.9128,-0.76066 -1.06492,-1.21706 -0.15211,-0.4564 0.60852,-0.76066 0.60852,-1.21705 -0.1521,-0.30427 -0.4564,-0.4564 -0.91279,-0.4564 -0.15211,-0.15211 -0.15211,0.30426 -0.30426,0.30426 -0.30427,-0.15211 0,-0.76066 -0.30427,-0.76066 -0.45639,-0.15211 -0.91279,0.30427 -1.36919,0.30427 -0.45637,0 -0.91277,-0.60851 -1.36917,-0.60851 -0.1521,0 -0.30426,0.60851 -0.4564,0.45637 -0.30426,-0.30426 0,-1.0649 -0.30426,-1.21703 -0.45639,-0.15211 -0.91279,0.76066 -1.36919,0.60853 -0.45639,-0.15211 -0.45639,-1.21706 -1.06492,-1.52132 -0.76066,-0.4564 -1.5213,-0.4564 -2.43409,-0.60853 -0.76067,-0.30427 -1.52132,-0.76066 -2.28198,-0.9128 -0.30427,0 0.45639,0.76066 0.1521,0.60853 -0.60852,0 -1.21705,-0.76066 -1.82558,-0.91279 -0.45638,0 -0.60851,0.60852 -0.76064,0.60852 -0.4564,0.30427 -0.91279,0.15212 -1.21706,0.4564 -0.4564,0.15211 -0.60853,0.60853 -0.91279,0.91279 -0.4564,0.4564 -0.9128,0.9128 -1.36919,1.3692 -0.30427,0.30424 -0.9128,0.6085 -0.9128,0.91277 0,0.76066 1.36919,1.21705 0.9128,1.67345 -0.30427,0.4564 -1.06492,-0.60853 -1.5213,-0.60853 -0.60853,0.15211 -0.91279,0.91279 -1.36919,1.21706 -0.30427,0.15211 -0.45639,0 -0.60853,0 -0.60853,0 -1.21705,-0.15211 -1.82558,0.15211 -0.60853,0.15211 -1.06493,0.91279 -1.67344,1.21706 -0.45639,0.1521 -0.91279,0 -1.36919,0 -0.60852,0 -1.21705,-0.4564 -1.82558,-0.30427 -0.4564,0.30427 -0.30427,1.5213 -0.9128,1.36919 -0.91279,0 -1.06489,-1.52132 -1.82556,-1.67345 -0.45639,-0.15211 -0.45639,1.06492 -0.91279,1.21705 -0.4564,0.15211 -0.76066,-0.45639 -0.76066,-0.91279 0.15211,-0.4564 1.06493,-0.4564 1.36919,-1.06492 0.15211,-0.4564 0.15211,-1.21706 0,-1.67346 -0.15211,-0.4564 -0.30426,-1.06492 -0.76066,-1.06492 -1.21706,0 -2.28199,0.76066 -3.49902,1.21705 -1.06493,0.30427 -2.28198,0.9128 -3.34691,1.06493 -0.76066,0.15211 -1.52132,0.4564 -2.12982,0 -0.30426,-0.15211 0.45637,-0.76066 0.76063,-0.91279 0.76067,-0.30427 1.82559,0.1521 2.58625,-0.30427 0.60853,-0.60852 0.60853,-1.52129 0.9128,-2.43409 0,-0.15211 0,-0.4564 0.1521,-0.60853 0.60853,-1.06492 1.21704,-2.28198 1.9777,-3.19477 0.91279,-1.21704 1.82558,-2.12983 2.89051,-3.19475 0.4564,-0.4564 1.21705,-0.76067 1.67343,-1.36919 0.91279,-0.76067 1.52132,-1.67344 2.12985,-2.58623 0.60853,-0.76066 1.36919,-1.67345 1.52132,-2.73838 0,-0.60853 -0.4564,-1.21705 -0.91279,-1.5213 -0.9128,-0.4564 -1.97772,0.15211 -2.73838,-0.30426 -0.6085,-0.30426 -0.76064,-1.06493 -0.91277,-1.67345 -0.15211,-0.30427 0.15211,-0.60853 0.15211,-1.06493 -0.15211,-0.60853 -0.4564,-1.21706 -0.76066,-1.82559 -0.4564,-0.91277 -0.91279,-1.67343 -1.21706,-2.73835 -0.1521,-0.91279 -0.1521,-1.82559 -0.30426,-2.73838 -0.15211,-0.60851 0,-1.36917 -0.30427,-1.9777 -0.45639,-0.91279 -1.06492,-2.28198 -2.12983,-2.43411 -0.60853,0 0.76064,1.52132 0.45638,2.12985 -0.30427,0.4564 -0.76064,-1.06493 -1.21703,-0.9128 -1.06493,0.76067 -1.67346,2.12986 -2.43412,3.19476 -0.76066,1.36919 -1.52133,2.73838 -2.28196,4.10757 -0.30426,0.76066 -0.60853,1.36916 -0.91279,1.97769 -0.30427,0.60853 -0.30427,1.36919 -0.76066,1.67346 -0.60853,0.45639 -1.52133,0.76065 -2.28199,0.60853 -0.76066,-0.15211 -0.91279,-1.06493 -1.52129,-1.21707 -0.30427,-0.15211 -0.60854,0.4564 -0.9128,0.4564 -0.30427,0 -0.60853,-0.60852 -0.91279,-0.60852 -0.91279,0.1521 -1.36919,1.21705 -2.12986,1.21705 -0.76065,0.15211 -1.21703,-0.60853 -1.97768,-0.91279 -0.15212,0 -0.45641,0.4564 -0.60854,0.30426 -0.76066,-0.4564 -1.21706,-1.82558 -2.12985,-1.82558 -1.21706,-0.15212 -2.43409,1.21706 -3.65115,1.36918 -0.60852,0 -1.06492,-1.06492 -1.52132,-0.91279 -0.76066,0.15211 -1.36918,0.76067 -1.52132,1.52133 0,0.76065 1.06493,1.36919 1.06493,2.12984 0,0.30427 -0.60853,0.60853 -0.91279,0.4564 -0.76065,-0.30426 -1.21704,-1.36919 -1.9777,-1.52132 -0.30427,-0.15211 0.30426,0.76066 0,1.06492 -0.30427,0.30427 -1.06493,0.60853 -1.67346,0.60853 -0.4564,0 -0.91279,-0.60853 -1.52132,-0.60853 -0.76066,-0.1521 -1.82556,-0.30426 -2.58622,0.15211 -0.30427,0.15212 0.45639,0.91277 0,1.06491 -0.76066,0.45639 -1.97773,0 -2.89052,0.30426 -0.30426,0 0.30427,0.60853 0,0.76066 -0.45639,0.15211 -0.91277,-0.4564 -1.21703,-0.30426 -0.91279,0.45639 -1.06493,1.67345 -1.97772,1.97772 -0.60852,0.30426 -1.52132,-0.15211 -2.12985,-0.4564 -0.91277,-0.4564 -1.82556,-1.06493 -2.43409,-1.82559 -0.4564,-0.45639 -0.60853,-1.0649 -0.76066,-1.67343 0,-0.60852 0.60853,-1.21705 0.4564,-1.82559 -0.15211,-0.45639 -1.06493,-0.60852 -1.21706,-1.06492 -0.30427,-0.76066 -0.4564,-1.82557 -0.4564,-2.58622 0.15211,-0.4564 0.76066,-0.60854 0.91279,-0.9128 0.30427,-0.45639 -0.1521,-0.91279 0.15211,-1.36919 0.4564,-0.60853 1.52133,-0.60853 1.67346,-1.21705 0.30426,-0.91279 -0.30427,-1.67344 -0.45639,-2.58623 -0.15212,-0.60852 -0.4564,-1.21705 -0.60854,-1.67345 -0.30426,-0.30427 -0.45639,-0.76067 -0.76065,-0.91279 -0.30427,-0.15211 -0.91281,0.15211 -1.21707,-0.15211 -0.60853,-0.60854 -0.91279,-1.36917 -0.91279,-2.12983 -0.15211,-0.60853 0.60853,-1.06493 0.4564,-1.67346 -0.15211,-0.30426 -0.76066,-0.60852 -1.21703,-0.60852 -0.4564,0.1521 -0.60854,0.76066 -1.06493,1.06492 -0.30426,0.15211 -0.60853,0.15211 -0.91279,0 -0.4564,-0.1521 -0.76066,-1.06492 -0.9128,-0.76066 -0.30426,0.4564 0.4564,0.91279 0.4564,1.36919 0.15211,0.4564 0.15211,0.91279 -0.15211,1.21706 -0.4564,0.6085 -1.06492,1.0649 -1.82559,1.36916 -0.76063,0.4564 -1.82556,0.4564 -2.58622,0.91279 -0.45639,0.30427 -0.45639,1.06493 -0.91279,1.3692 -0.60853,0.30426 -1.52133,0.30426 -2.12986,0.4564 -0.91277,0.1521 -1.67342,-0.30427 -2.43408,0 -0.76067,0.30426 -1.36919,0.76066 -1.82559,1.36919 -0.15211,0.45637 0.30426,0.91277 0.15211,1.36916 -0.15211,0.30426 -0.60853,0.15211 -0.76066,0 -0.4564,-0.30427 -0.60853,-1.06492 -1.06491,-1.21704 -0.45639,-0.30426 -1.06492,0 -1.52132,-0.1521 -0.91279,-0.15211 -1.82559,-0.4564 -2.58624,-0.91279 -0.60854,-0.30427 -0.76066,-1.52133 -1.52131,-1.52133 -0.76065,0 -1.52131,0.9128 -1.97771,1.67346 -0.30427,0.45639 -0.15211,1.36916 0.30426,1.67343 0.60854,0.4564 1.67345,-0.30427 2.28196,0.30426 0.4564,0.30426 0.30426,1.06493 0.15211,1.67345 -0.15211,0.4564 -0.45637,0.76067 -0.76064,1.21707 -0.1521,0.45639 -0.4564,0.91279 -0.4564,1.52131 0,0.76064 0.15212,1.36917 0.30427,2.12983 0.15211,0.4564 0.30427,0.76066 0.60853,1.06493 0.15211,0.30426 0.6085,0.30426 0.91277,0.30426 0.30427,0.15211 0.76066,0.60853 1.21706,0.4564 0.30426,0 0.60852,-0.60853 0.91279,-0.60853 0.60853,0.15211 1.36919,0.91279 0.91279,1.21706 -0.76066,0.76066 -2.12985,0 -2.89051,0.76066 -1.0649,0.76063 -0.76066,2.73835 -1.82556,3.49901 -0.4564,0.4564 -0.4564,-1.21705 -1.06493,-1.21705 -0.60852,0 -0.76066,1.06492 -1.21705,1.52132 -1.06493,0.91279 -2.12983,1.52132 -3.04263,2.28196 -0.45639,0.4564 -0.60852,1.67345 -1.21705,1.52132 -0.76066,0 -0.30426,-1.36919 -0.9128,-1.82558 -0.45639,-0.30427 -1.06492,-0.45638 -1.52132,0 -0.4564,0.45639 0,1.97771 -0.76063,1.97771 -1.06493,0.15211 -1.67345,-1.06492 -2.58625,-1.67345 -0.76066,-0.4564 -1.67346,-0.76064 -2.12985,-1.5213 -0.30426,-0.30426 0.15211,-0.91279 0,-1.36919 -0.60853,-1.21705 -1.06491,-2.89051 -2.28196,-3.34689 -0.91279,-0.30426 -1.06493,1.82557 -1.97772,1.9777 -0.60853,0.15211 -0.76066,-1.06493 -1.36919,-1.36919 -0.45637,-0.15211 -1.0649,-0.15211 -1.21703,0.30426 -0.15211,0.4564 1.0649,1.36919 0.45639,1.52133 -1.97772,0.76066 -4.10756,0.30426 -6.2374,0.30426 -0.76065,0 -1.97771,-0.60852 -2.28198,0.15211 -0.45639,1.21705 -0.1521,2.73835 0.4564,4.10754 0.15211,0.4564 1.06493,0 1.52132,0 0.4564,-0.1521 0.9128,-0.45639 1.21706,-0.1521 0.45637,0.30426 0.30427,1.06492 0.30427,1.52132 -0.15211,0.45639 -0.4564,1.06492 -0.9128,1.06492 -0.45639,0 -0.76066,-1.06492 -1.36919,-1.06492 -0.76066,0.15211 -1.82558,0.60853 -2.12985,1.36919 -0.4564,1.21706 -0.1521,2.58622 0,3.80328 0.15211,0.4564 0.4564,0.76066 0.91279,1.21705 0.30427,0.15211 0.9128,0.15211 1.06493,0.60854 0.4564,0.45639 0.30426,1.0649 0.60853,1.67343 0.1521,0.4564 0.60852,0.76066 0.60852,1.21705 0,0.76066 -0.45639,1.36919 -0.45639,2.12985 0,0.60853 0.30427,1.36919 0.15211,1.9777 -0.4564,3.34691 -1.06493,6.84592 -1.82559,10.19281 -0.30426,1.36919 -0.30426,3.04265 -1.21705,3.95544 -0.45637,0.4564 -1.21704,-1.21706 -1.82557,-1.06493 -0.91279,0.15211 -1.21706,1.36919 -2.12985,1.52133 -0.4564,0.1521 -0.91279,-0.76067 -1.36919,-0.60853 -0.45637,0 -0.60851,0.60853 -1.0649,0.76065 -0.4564,0.30427 -1.06492,-0.1521 -1.52132,0 -0.91279,0.4564 -1.52132,1.21704 -2.28198,1.82557 -0.76067,0.60853 -1.67344,0.91279 -2.28197,1.67345 -0.76066,0.76066 -1.21705,1.82559 -1.52131,2.73836 -0.30427,0.76066 -0.4564,1.52132 -0.60853,2.28198 0,0.60853 0.15211,1.21706 0,1.82559 -0.15212,0.76066 -0.15212,1.67342 -0.76066,2.28196 -0.30427,0.60853 -1.36917,0.30426 -1.67344,0.91279 -0.45639,0.76066 -0.30426,1.67345 -0.30426,2.43412 0,0.45639 0.30426,1.0649 0,1.36916 -0.30426,0.4564 -1.06493,0.15211 -1.21705,0.60853 -0.15212,0.30426 0.1521,0.76066 0.30426,1.06492 0.30426,0.30427 0.76066,0.30427 1.06493,0.60853 0.30426,0.30427 0.1521,0.9128 0.30426,1.21706 0.15211,0.45639 0.30426,0.91279 0.6085,1.21706 z m 117.14128,-44.57455 c 0.45639,-0.76066 0.91279,-1.67345 1.52131,-2.43411 0.4564,-0.4564 1.21704,-1.82556 1.67344,-1.36917 0.60852,0.76064 -0.15211,1.9777 -0.4564,2.73836 -0.30425,0.91279 -0.91277,1.82558 -1.67343,2.43411 -0.60853,0.6085 -1.67346,2.12983 -2.28199,1.36917 -0.76066,-0.76067 0.76067,-1.82556 1.21707,-2.73836 z m 5.02033,-2.12985 c -0.15211,0.60853 0.4564,1.21706 0.4564,1.82559 -0.15211,0.60853 -0.91279,0.91279 -0.91279,1.36918 -0.15211,0.76065 0,1.67344 0.45639,2.28197 0.30426,0.30426 1.06492,0 1.36919,0.30426 0.30426,0.30426 -0.30427,0.9128 0,1.06493 0.76066,0.30426 1.52133,0 2.12983,0.1521 0.45639,0 0.76066,0.4564 1.21706,0.30427 0.30426,0 0.1521,-0.60853 0.45639,-0.91279 0.60853,-0.30427 1.21706,-0.15211 1.67346,-0.4564 0.60853,-0.15211 0.91279,-0.76066 1.52132,-0.76066 0.30424,0 0.45637,0.60853 0.91277,0.60853 0.30426,0 0.76066,-0.30426 0.91279,-0.76066 0,-0.4564 -0.76066,-1.21704 -0.45639,-1.67343 0.45639,-0.76066 1.67345,-0.76066 2.28198,-1.52133 0.60853,-0.76066 1.97769,-1.82558 1.36919,-2.73838 -0.76066,-1.06489 -2.73838,-1.36916 -3.95544,-0.76063 -0.9128,0.60851 0,2.43409 -0.76066,3.34688 -0.30424,0.4564 -0.60851,-1.06492 -0.60851,-1.67345 0,-0.30427 0.76064,-0.15211 0.76064,-0.4564 0,-0.4564 -0.30427,-0.91279 -0.6085,-1.0649 -1.06493,-0.45639 -2.12985,-0.30427 -3.19478,-0.30427 -0.91279,-0.1521 -1.9777,-0.1521 -2.89049,0 -0.4564,0.15211 -0.76066,0.60851 -1.21705,0.91277 -0.30427,0.30427 -0.9128,0.4564 -0.9128,0.9128 z m 2.89052,-2.73836 c 0.91277,-0.1521 1.82556,0.15212 2.43408,-0.30426 0.4564,-0.30426 0.91279,-1.21705 0.60853,-1.52132 -0.76066,-0.60853 -1.97772,0.15211 -2.73838,-0.30426 -0.30423,-0.30427 0.9128,-1.36919 0.4564,-1.36919 -0.91277,0 -1.67343,0.60852 -2.28196,1.21705 -0.45639,0.30427 -0.91279,0.76067 -0.91279,1.36919 -0.15211,0.4564 0,1.06493 0.4564,1.21706 0.30426,0.15211 0.30426,-0.60853 0.45639,-0.91279 0.30426,-0.30427 0.30426,-0.76067 0.76066,-0.91279 0.15211,-0.15211 0.60853,0.1521 0.4564,0.45639 0,0.4564 -0.9128,0.76066 -0.76066,1.06492 0,0.4564 0.76066,0 1.06493,0 z m -4.10758,-0.1521 c -0.60852,0.1521 -0.30426,1.52129 0,1.97769 0.30427,0.4564 1.21706,0.15211 1.21706,-0.1521 0,-0.76065 -0.45639,-1.9777 -1.21706,-1.82557 z"
       inkscape:connector-curvature="0"
       style="fill:#6082bb;fill-opacity:0.28921569;stroke:none;stroke-width:0.30426306" />
    <text
       xml:space="preserve"
       style="font-style:italic;font-variant:normal;font-weight:normal;font-stretch:normal;font-size:123.47222137px;line-height:1.25;font-family:'Handel Gothic Italic';-inkscape-font-specification:'Handel Gothic Italic, Italic';font-variant-ligatures:normal;font-variant-caps:normal;font-variant-numeric:normal;font-feature-settings:normal;text-align:start;letter-spacing:0px;word-spacing:0px;writing-mode:lr-tb;text-anchor:start;fill:#415f92;fill-opacity:1;stroke:none;stroke-width:0.26458332;stroke-opacity:1;filter:url(#filter4847)"
       x="493.23587"
       y="-57.089619"
       id="text5140"
       transform="matrix(1,0,0.10510424,1,12.828938,42.763124)"><tspan
         sodipodi:role="line"
         id="tspan5138"
         x="493.23587"
         y="-57.089619"
         style="font-style:italic;font-variant:normal;font-weight:normal;font-stretch:normal;font-size:123.47222137px;font-family:'Handel Gothic Italic';-inkscape-font-specification:'Handel Gothic Italic, Italic';font-variant-ligatures:normal;font-variant-caps:normal;font-variant-numeric:normal;font-feature-settings:normal;text-align:start;writing-mode:lr-tb;text-anchor:start;fill:#415f92;fill-opacity:1;stroke:none;stroke-width:0.26458332;stroke-opacity:1">php</tspan></text>
    <text
       xml:space="preserve"
       style="font-style:italic;font-variant:normal;font-weight:normal;font-stretch:normal;font-size:123.47222137px;line-height:1.25;font-family:'Handel Gothic Italic';-inkscape-font-specification:'Handel Gothic Italic, Italic';font-variant-ligatures:normal;font-variant-caps:normal;font-variant-numeric:normal;font-feature-settings:normal;text-align:start;letter-spacing:0px;word-spacing:0px;writing-mode:lr-tb;text-anchor:start;fill:#415f92;fill-opacity:1;stroke:none;stroke-width:0.26458332;stroke-opacity:1;filter:url(#filter4847-5)"
       x="493.23587"
       y="-57.089619"
       id="text5140-1"
       transform="matrix(1.1592131,0,0.1218382,1.1592131,163.07422,52.51864)"><tspan
         sodipodi:role="line"
         id="tspan5138-3"
         x="493.23587"
         y="-57.089619"
         style="font-style:italic;font-variant:normal;font-weight:normal;font-stretch:normal;font-size:123.47222137px;font-family:'Handel Gothic Italic';-inkscape-font-specification:'Handel Gothic Italic, Italic';font-variant-ligatures:normal;font-variant-caps:normal;font-variant-numeric:normal;font-feature-settings:normal;text-align:start;writing-mode:lr-tb;text-anchor:start;fill:#415f92;fill-opacity:1;stroke:none;stroke-width:0.26458332;stroke-opacity:1">br</tspan></text>
    <ellipse
       style="opacity:1;fill:url(#linearGradient4903);fill-opacity:1;stroke:none;stroke-width:1.17675316;stroke-miterlimit:4;stroke-dasharray:none;stroke-opacity:1"
       id="path4895"
       cx="130.11867"
       cy="-658.40186"
       rx="139.90791"
       ry="189.60915"
       transform="matrix(0.23619083,0.97170669,-0.87335362,0.4870867,0,0)" />
  </g>
</svg>
