<?xml version="1.0" encoding="UTF-8" standalone="no"?>
<svg
   xmlns:dc="http://purl.org/dc/elements/1.1/"
   xmlns:cc="http://creativecommons.org/ns#"
   xmlns:rdf="http://www.w3.org/1999/02/22-rdf-syntax-ns#"
   xmlns:svg="http://www.w3.org/2000/svg"
   xmlns="http://www.w3.org/2000/svg"
   xmlns:xlink="http://www.w3.org/1999/xlink"
   xmlns:sodipodi="http://sodipodi.sourceforge.net/DTD/sodipodi-0.dtd"
   xmlns:inkscape="http://www.inkscape.org/namespaces/inkscape"
   height="800"
   id="svg3430"
   version="1.1"
   viewBox="0 0 800 799.99999"
   width="800"
   xml:space="preserve"
   sodipodi:docname="phpbr-logo[telegram].svg"
   inkscape:version="0.92.3 (2405546, 2018-03-11)"
   inkscape:export-filename="/home/william/Pictures/phpbr-logo.png"
   inkscape:export-xdpi="96"
   inkscape:export-ydpi="96"><sodipodi:namedview
   pagecolor="#ffffff"
   bordercolor="#666666"
   borderopacity="1"
   objecttolerance="10"
   gridtolerance="10"
   guidetolerance="10"
   inkscape:pageopacity="1"
   inkscape:pageshadow="2"
   inkscape:window-width="1340"
   inkscape:window-height="740"
   id="namedview49"
   showgrid="false"
   inkscape:zoom="0.51706137"
   inkscape:cx="601.84352"
   inkscape:cy="404.96349"
   inkscape:window-x="26"
   inkscape:window-y="28"
   inkscape:window-maximized="1"
   inkscape:current-layer="svg3430" />
  <title
   id="title3510">Official PHP Logo</title>
  <metadata
   id="metadata3436">
    <rdf:RDF>
      <cc:Work
   rdf:about="">
        <dc:format>image/svg+xml</dc:format>
        <dc:type
   rdf:resource="http://purl.org/dc/dcmitype/StillImage" />
        <dc:title>Official PHP Logo</dc:title>
        <dc:creator>
          <cc:Agent>
            <dc:title>Colin Viebrock</dc:title>
          </cc:Agent>
        </dc:creator>
        <dc:description />
        <dc:contributor>
          <cc:Agent>
            <dc:title />
          </cc:Agent>
        </dc:contributor>
        <cc:license
   rdf:resource="http://creativecommons.org/licenses/by-sa/4.0/" />
        <dc:rights>
          <cc:Agent>
            <dc:title>Copyright Colin Viebrock 1997 - All rights reserved.</dc:title>
          </cc:Agent>
        </dc:rights>
        <dc:date>1997</dc:date>
      </cc:Work>
      
    <cc:License
   rdf:about="http://creativecommons.org/licenses/by-sa/4.0/"><cc:permits
     rdf:resource="http://creativecommons.org/ns#Reproduction" /><cc:permits
     rdf:resource="http://creativecommons.org/ns#Distribution" /><cc:requires
     rdf:resource="http://creativecommons.org/ns#Notice" /><cc:requires
     rdf:resource="http://creativecommons.org/ns#Attribution" /><cc:permits
     rdf:resource="http://creativecommons.org/ns#DerivativeWorks" /><cc:requires
     rdf:resource="http://creativecommons.org/ns#ShareAlike" /></cc:License></rdf:RDF>
  </metadata>
  <defs
   id="defs3434"><linearGradient
   inkscape:collect="always"
   id="linearGradient1040"><stop
     style="stop-color:#029602;stop-opacity:1"
     offset="0"
     id="stop1036" /><stop
     style="stop-color:#ffff00;stop-opacity:1"
     offset="1"
     id="stop1038" /></linearGradient><linearGradient
   inkscape:collect="always"
   id="linearGradient4635"><stop
     style="stop-color:#2ca5e0;stop-opacity:1;"
     offset="0"
     id="stop4631" /><stop
     style="stop-color:#2ca5e0;stop-opacity:0;"
     offset="1"
     id="stop4633" /></linearGradient>
    <clipPath
   clipPathUnits="userSpaceOnUse"
   id="clipPath3444">
      <path
   d="M 11.52,162 C 11.52,81.677 135.307,16.561 288,16.561 v 0 c 152.693,0 276.481,65.116 276.481,145.439 v 0 c 0,80.322 -123.788,145.439 -276.481,145.439 v 0 C 135.307,307.439 11.52,242.322 11.52,162"
   id="path3446"
   inkscape:connector-curvature="0" />
    </clipPath>
    <radialGradient
   cx="0"
   cy="0"
   fx="0"
   fy="0"
   gradientTransform="matrix(363.05789,0,0,-363.05789,177.52002,256.30713)"
   gradientUnits="userSpaceOnUse"
   id="radialGradient3452"
   r="1"
   spreadMethod="pad">
      <stop
   id="stop3454"
   offset="0"
   style="stop-opacity:1;stop-color:#aeb2d5" />
      <stop
   id="stop3456"
   offset="0.3"
   style="stop-opacity:1;stop-color:#aeb2d5" />
      <stop
   id="stop3458"
   offset="0.75"
   style="stop-opacity:1;stop-color:#484c89" />
      <stop
   id="stop3460"
   offset="1"
   style="stop-opacity:1;stop-color:#484c89" />
    </radialGradient>
    <clipPath
   clipPathUnits="userSpaceOnUse"
   id="clipPath3468">
      <path
   d="M 0,324 H 576 V 0 H 0 Z"
   id="path3470"
   inkscape:connector-curvature="0" />
    </clipPath>
    <clipPath
   clipPathUnits="userSpaceOnUse"
   id="clipPath3480">
      <path
   d="M 0,324 H 576 V 0 H 0 Z"
   id="path3482"
   inkscape:connector-curvature="0" />
    </clipPath>
  
    
    
    
  <radialGradient
   inkscape:collect="always"
   xlink:href="#linearGradient4635"
   id="radialGradient4641"
   cx="355.60001"
   cy="191.79825"
   fx="355.60001"
   fy="191.79825"
   r="332.72501"
   gradientTransform="matrix(1,0,0,0.50770531,0,94.42126)"
   gradientUnits="userSpaceOnUse" /><radialGradient
   inkscape:collect="always"
   xlink:href="#linearGradient4635"
   id="radialGradient4665"
   cx="288.00049"
   cy="162"
   fx="288.00049"
   fy="162"
   r="276.4805"
   gradientTransform="matrix(1,0,0,0.5260371,0,76.78199)"
   gradientUnits="userSpaceOnUse" /><linearGradient
   inkscape:collect="always"
   xlink:href="#linearGradient1040"
   id="linearGradient1042"
   x1="343.96835"
   y1="566.97394"
   x2="529.60535"
   y2="440.98386"
   gradientUnits="userSpaceOnUse" /><filter
   style="color-interpolation-filters:sRGB;"
   inkscape:label="Drop Shadow"
   id="filter74"><feFlood
     flood-opacity="0.498039"
     flood-color="rgb(0,0,0)"
     result="flood"
     id="feFlood64" /><feComposite
     in="flood"
     in2="SourceGraphic"
     operator="in"
     result="composite1"
     id="feComposite66" /><feGaussianBlur
     in="composite1"
     stdDeviation="5"
     result="blur"
     id="feGaussianBlur68" /><feOffset
     dx="-12"
     dy="10"
     result="offset"
     id="feOffset70" /><feComposite
     in="SourceGraphic"
     in2="offset"
     operator="over"
     result="composite2"
     id="feComposite72" /></filter><linearGradient
   y2="180"
   x2="100.008"
   y1="40.008001"
   x1="160.008"
   id="b"
   gradientUnits="userSpaceOnUse"
   gradientTransform="translate(479.34937,190.33466)"><stop
     id="stop140"
     offset="0"
     stop-color="#37aee2" /><stop
     id="stop142"
     offset="1"
     stop-color="#1e96c8" /></linearGradient><linearGradient
   y2="174.70814"
   x2="146.52715"
   y1="131.02764"
   x1="123.64119"
   id="w"
   gradientTransform="matrix(1.0919081,0,0,0.91582798,479.34937,190.33466)"
   gradientUnits="userSpaceOnUse"><stop
     id="stop145"
     offset="0"
     stop-color="#eff7fc" /><stop
     id="stop147"
     offset="1"
     stop-color="#fff" /></linearGradient><linearGradient
   inkscape:collect="always"
   xlink:href="#linearGradient1040"
   id="linearGradient187"
   gradientUnits="userSpaceOnUse"
   x1="343.96835"
   y1="566.97394"
   x2="529.60535"
   y2="440.98386" /><linearGradient
   inkscape:collect="always"
   xlink:href="#linearGradient1040"
   id="linearGradient189"
   gradientUnits="userSpaceOnUse"
   x1="343.96835"
   y1="566.97394"
   x2="529.60535"
   y2="440.98386" /><linearGradient
   inkscape:collect="always"
   xlink:href="#radialGradient3452"
   id="linearGradient1023"
   x1="11.52"
   y1="162"
   x2="564.48102"
   y2="162"
   gradientUnits="userSpaceOnUse" /></defs>
  <g
   id="g3440"
   transform="matrix(1.25,0,0,-2.3208306,38.148141,784.05917)"
   style="opacity:1;fill:url(#linearGradient1023);fill-opacity:1.0;stroke:#b4b4b4;stroke-width:1.27072561;stroke-miterlimit:4;stroke-dasharray:none;stroke-opacity:1">
      <g
   id="g3442"
   clip-path="url(#clipPath3444)"
   style="fill:url(#linearGradient1023);fill-opacity:1.0;stroke:#b4b4b4;stroke-width:1.27072561;stroke-miterlimit:4;stroke-dasharray:none;stroke-opacity:1">
        <g
   id="g3448"
   style="fill:url(#linearGradient1023);fill-opacity:1.0;stroke:#b4b4b4;stroke-width:1.27072561;stroke-miterlimit:4;stroke-dasharray:none;stroke-opacity:1">
          <g
   id="g3450"
   style="fill:url(#linearGradient1023);fill-opacity:1.0;stroke:#b4b4b4;stroke-width:1.27072561;stroke-miterlimit:4;stroke-dasharray:none;stroke-opacity:1">
            <path
   inkscape:connector-curvature="0"
   style="fill:url(#linearGradient1023);fill-opacity:1.0;stroke:#b4b4b4;stroke-width:1.27072561;stroke-miterlimit:4;stroke-dasharray:none;stroke-opacity:1"
   id="path3462"
   d="M 11.52,162 C 11.52,81.677 135.307,16.561 288,16.561 v 0 c 152.693,0 276.481,65.116 276.481,145.439 v 0 c 0,80.322 -123.788,145.439 -276.481,145.439 v 0 C 135.307,307.439 11.52,242.322 11.52,162" />
          </g>
        </g>
      </g>
    </g><g
   id="g97"
   style="fill:#777bb3;fill-opacity:1;stroke:none;stroke-opacity:1"
   transform="matrix(0.98313141,0,0,1.8858654,48.812581,43.448657)"><g
     transform="matrix(1.25,0,0,-1.25,-4.4,394.29875)"
     id="g3464"
     style="fill:#777bb3;fill-opacity:1;stroke:none;stroke-opacity:1">
      <g
   clip-path="url(#clipPath3468)"
   id="g3466"
   style="fill:#777bb3;fill-opacity:1;stroke:none;stroke-opacity:1">
        <g
   id="g3472"
   transform="translate(288,27.3594)"
   style="fill:#777bb3;fill-opacity:1;stroke:none;stroke-opacity:1">
          <path
   d="M 0,0 C 146.729,0 265.68,60.281 265.68,134.641 265.68,209 146.729,269.282 0,269.282 -146.729,269.282 -265.68,209 -265.68,134.641 -265.68,60.281 -146.729,0 0,0"
   id="path3474"
   style="fill:#777bb3;fill-opacity:1;fill-rule:nonzero;stroke:none;stroke-opacity:1"
   inkscape:connector-curvature="0" />
        </g>
      </g>
    </g></g><g
   id="g3476"
   transform="matrix(0.65429641,0,0,-0.63974451,110.05548,377.05021)">
      <g
   id="g3478"
   clip-path="url(#clipPath3480)">
        <g
   transform="translate(161.7344,145.3066)"
   id="g3484">
          <path
   inkscape:connector-curvature="0"
   style="fill:#000000;fill-opacity:1;fill-rule:nonzero;stroke:none"
   id="path3486"
   d="m 0,0 c 12.065,0 21.072,2.225 26.771,6.611 5.638,4.341 9.532,11.862 11.573,22.353 1.903,9.806 1.178,16.653 -2.154,20.348 C 32.783,53.086 25.417,55 14.297,55 H -4.984 L -15.673,0 Z m -63.063,-67.75 c -0.895,0 -1.745,0.4 -2.314,1.092 -0.57,0.691 -0.801,1.601 -0.63,2.48 L -37.679,81.573 C -37.405,82.982 -36.17,84 -34.734,84 H 26.32 C 45.508,84 59.79,78.79 68.767,68.513 77.792,58.182 80.579,43.741 77.05,25.592 75.614,18.198 73.144,11.331 69.709,5.183 66.27,-0.972 61.725,-6.667 56.198,-11.747 49.582,-17.939 42.094,-22.429 33.962,-25.071 25.959,-27.678 15.681,-29 3.414,-29 h -24.722 l -7.06,-36.322 c -0.274,-1.41 -1.508,-2.428 -2.944,-2.428 z" />
        </g>
        <g
   transform="translate(159.2236,197.3071)"
   id="g3488">
          <path
   inkscape:connector-curvature="0"
   style="fill:#ffffff;fill-opacity:1;fill-rule:nonzero;stroke:none"
   id="path3490"
   d="m 0,0 h 16.808 c 13.421,0 18.083,-2.945 19.667,-4.7 2.628,-2.914 3.124,-9.058 1.435,-17.767 C 36.012,-32.217 32.494,-39.13 27.452,-43.012 22.29,-46.986 13.898,-49 2.511,-49 H -9.523 Z m 28.831,35 h -61.055 c -2.872,0 -5.341,-2.036 -5.889,-4.855 l -28.328,-145.751 c -0.342,-1.759 0.12,-3.578 1.259,-4.961 1.14,-1.383 2.838,-2.183 4.63,-2.183 h 31.75 c 2.873,0 5.342,2.036 5.89,4.855 L -16.324,-84 H 5.925 c 12.582,0 23.174,1.372 31.479,4.077 8.541,2.775 16.399,7.48 23.354,13.984 5.752,5.292 10.49,11.232 14.08,17.657 3.591,6.427 6.171,13.594 7.668,21.302 3.715,19.104 0.697,34.402 -8.969,45.466 C 63.965,29.444 48.923,35 28.831,35 M -16.802,-55 H 2.511 c 12.801,0 22.336,2.411 28.601,7.234 6.266,4.824 10.492,12.875 12.688,24.157 2.101,10.832 1.144,18.476 -2.871,22.929 C 36.909,3.773 28.87,6 16.808,6 H -4.946 L -16.802,-55 M 28.831,29 C 47.198,29 60.597,24.18 69.019,14.539 77.44,4.898 79.976,-8.559 76.616,-25.836 75.233,-32.953 72.894,-39.46 69.601,-45.355 66.304,-51.254 61.999,-56.648 56.679,-61.539 50.339,-67.472 43.296,-71.7 35.546,-74.218 27.796,-76.743 17.925,-78 5.925,-78 h -27.196 l -7.531,-38.75 h -31.75 L -32.224,29 h 61.055" />
        </g>
        <g
   transform="translate(311.583,116.3066)"
   id="g3492">
          <path
   inkscape:connector-curvature="0"
   style="fill:#000000;fill-opacity:1;fill-rule:nonzero;stroke:none"
   id="path3494"
   d="m 0,0 c -0.896,0 -1.745,0.4 -2.314,1.092 -0.571,0.691 -0.802,1.6 -0.631,2.48 L 9.586,68.061 C 10.778,74.194 10.484,78.596 8.759,80.456 7.703,81.593 4.531,83.5 -4.848,83.5 H -27.55 L -43.305,2.428 C -43.579,1.018 -44.814,0 -46.25,0 h -31.5 c -0.896,0 -1.745,0.4 -2.315,1.092 -0.57,0.691 -0.801,1.601 -0.63,2.48 l 28.328,145.751 c 0.274,1.409 1.509,2.427 2.945,2.427 h 31.5 c 0.896,0 1.745,-0.4 2.315,-1.091 0.57,-0.692 0.801,-1.601 0.63,-2.481 L -21.813,113 H 2.609 c 18.605,0 31.221,-3.28 38.569,-10.028 7.49,-6.884 9.827,-17.891 6.947,-32.719 L 34.945,2.428 C 34.671,1.018 33.437,0 32,0 Z" />
        </g>
        <g
   transform="translate(293.6611,271.0571)"
   id="g3496">
          <path
   inkscape:connector-curvature="0"
   style="fill:#ffffff;fill-opacity:1;fill-rule:nonzero;stroke:none"
   id="path3498"
   d="m 0,0 h -31.5 c -2.873,0 -5.342,-2.036 -5.89,-4.855 l -28.328,-145.751 c -0.342,-1.759 0.12,-3.578 1.26,-4.961 1.14,-1.383 2.838,-2.183 4.63,-2.183 h 31.5 c 2.872,0 5.342,2.036 5.89,4.855 l 15.283,78.645 h 20.229 c 9.363,0 11.328,-2 11.407,-2.086 0.568,-0.611 1.315,-3.441 0.082,-9.781 l -12.531,-64.489 c -0.342,-1.759 0.12,-3.578 1.26,-4.961 1.14,-1.383 2.838,-2.183 4.63,-2.183 h 32 c 2.872,0 5.342,2.036 5.89,4.855 l 13.179,67.825 c 3.093,15.921 0.447,27.864 -7.861,35.5 -7.928,7.281 -21.208,10.82 -40.599,10.82 H -0.253 L 5.89,-7.145 C 6.231,-5.386 5.77,-3.566 4.63,-2.184 3.49,-0.801 1.792,0 0,0 m 0,-6 -7.531,-38.75 h 28.062 c 17.657,0 29.836,-3.082 36.539,-9.238 6.703,-6.16 8.711,-16.141 6.032,-29.938 l -13.18,-67.824 h -32 l 12.531,64.488 c 1.426,7.336 0.902,12.34 -1.574,15.008 -2.477,2.668 -7.746,4.004 -15.805,4.004 h -25.176 l -16.226,-83.5 h -31.5 L -31.5,-6 H 0" />
        </g>
        <g
   transform="translate(409.5498,145.3066)"
   id="g3500">
          <path
   inkscape:connector-curvature="0"
   style="fill:#000000;fill-opacity:1;fill-rule:nonzero;stroke:none"
   id="path3502"
   d="m 0,0 c 12.065,0 21.072,2.225 26.771,6.611 5.638,4.34 9.532,11.861 11.574,22.353 1.903,9.806 1.178,16.653 -2.155,20.348 C 32.783,53.086 25.417,55 14.297,55 H -4.984 L -15.673,0 Z m -63.062,-67.75 c -0.895,0 -1.745,0.4 -2.314,1.092 -0.57,0.691 -0.802,1.601 -0.631,2.48 L -37.679,81.573 C -37.404,82.982 -36.17,84 -34.733,84 H 26.32 C 45.509,84 59.79,78.79 68.768,68.513 77.793,58.183 80.579,43.742 77.051,25.592 75.613,18.198 73.144,11.331 69.709,5.183 66.27,-0.972 61.725,-6.667 56.198,-11.747 49.582,-17.939 42.094,-22.429 33.962,-25.071 25.959,-27.678 15.681,-29 3.414,-29 h -24.723 l -7.057,-36.322 c -0.275,-1.41 -1.509,-2.428 -2.946,-2.428 z" />
        </g>
        <g
   transform="translate(407.0391,197.3071)"
   id="g3504">
          <path
   inkscape:connector-curvature="0"
   style="fill:#ffffff;fill-opacity:1;fill-rule:nonzero;stroke:none"
   id="path3506"
   d="M 0,0 H 16.808 C 30.229,0 34.891,-2.945 36.475,-4.7 39.104,-7.614 39.6,-13.758 37.91,-22.466 36.012,-32.217 32.493,-39.13 27.452,-43.012 22.29,-46.986 13.898,-49 2.511,-49 H -9.522 Z m 28.831,35 h -61.054 c -2.872,0 -5.341,-2.036 -5.889,-4.855 L -66.44,-115.606 c -0.342,-1.759 0.12,-3.578 1.259,-4.961 1.14,-1.383 2.838,-2.183 4.63,-2.183 h 31.75 c 2.872,0 5.342,2.036 5.89,4.855 L -16.324,-84 H 5.925 c 12.582,0 23.174,1.372 31.479,4.077 8.541,2.775 16.401,7.481 23.356,13.986 5.752,5.291 10.488,11.23 14.078,17.655 3.591,6.427 6.171,13.594 7.668,21.302 3.715,19.105 0.697,34.403 -8.969,45.467 C 63.965,29.444 48.924,35 28.831,35 M -16.801,-55 H 2.511 c 12.801,0 22.336,2.411 28.601,7.234 6.267,4.824 10.492,12.875 12.688,24.157 2.102,10.832 1.145,18.476 -2.871,22.929 C 36.909,3.773 28.87,6 16.808,6 H -4.946 L -16.801,-55 M 28.831,29 C 47.198,29 60.597,24.18 69.019,14.539 77.441,4.898 79.976,-8.559 76.616,-25.836 75.233,-32.953 72.894,-39.46 69.601,-45.355 66.304,-51.254 61.999,-56.648 56.679,-61.539 50.339,-67.472 43.296,-71.7 35.546,-74.218 27.796,-76.743 17.925,-78 5.925,-78 h -27.196 l -7.53,-38.75 h -31.75 L -32.223,29 h 61.054" />
        </g>
      </g>
    </g>
<g
   id="g886"
   transform="matrix(1.2641105,0,0,1.2641105,-119.94509,-223.78563)"
   style="opacity:1;fill:url(#linearGradient1042);fill-opacity:1;filter:url(#filter74)"><text
   id="text57"
   y="606.59943"
   x="237.88278"
   style="font-style:italic;font-variant:normal;font-weight:bold;font-stretch:normal;font-size:240px;line-height:1.25;font-family:sans-serif;-inkscape-font-specification:'sans-serif, Bold Italic';font-variant-ligatures:normal;font-variant-caps:normal;font-variant-numeric:normal;font-feature-settings:normal;text-align:start;letter-spacing:0px;word-spacing:0px;writing-mode:lr-tb;text-anchor:start;fill:url(#linearGradient187);fill-opacity:1;stroke:#ffffff;stroke-width:6.0999999;stroke-miterlimit:4;stroke-dasharray:none;stroke-opacity:1"
   xml:space="preserve"><tspan
     style="font-style:italic;font-variant:normal;font-weight:bold;font-stretch:normal;font-size:240px;font-family:sans-serif;-inkscape-font-specification:'sans-serif, Bold Italic';font-variant-ligatures:normal;font-variant-caps:normal;font-variant-numeric:normal;font-feature-settings:normal;text-align:start;writing-mode:lr-tb;text-anchor:start;fill:url(#linearGradient187);fill-opacity:1;stroke:#ffffff;stroke-width:6.0999999;stroke-miterlimit:4;stroke-dasharray:none;stroke-opacity:1"
     y="606.59943"
     x="237.88278"
     id="tspan55"
     sodipodi:role="line">B</tspan></text>

<text
   id="text57-0"
   y="608.98352"
   x="387.27026"
   style="font-style:italic;font-variant:normal;font-weight:bold;font-stretch:normal;font-size:240px;line-height:1.25;font-family:sans-serif;-inkscape-font-specification:'sans-serif, Bold Italic';font-variant-ligatures:normal;font-variant-caps:normal;font-variant-numeric:normal;font-feature-settings:normal;text-align:start;letter-spacing:0px;word-spacing:0px;writing-mode:lr-tb;text-anchor:start;fill:url(#linearGradient189);fill-opacity:1;stroke:#ffffff;stroke-width:6.0999999;stroke-miterlimit:4;stroke-dasharray:none;stroke-opacity:1"
   xml:space="preserve"><tspan
     style="font-style:italic;font-variant:normal;font-weight:bold;font-stretch:normal;font-size:240px;font-family:sans-serif;-inkscape-font-specification:'sans-serif, Bold Italic';font-variant-ligatures:normal;font-variant-caps:normal;font-variant-numeric:normal;font-feature-settings:normal;text-align:start;writing-mode:lr-tb;text-anchor:start;fill:url(#linearGradient189);fill-opacity:1;stroke:#ffffff;stroke-width:6.0999999;stroke-miterlimit:4;stroke-dasharray:none;stroke-opacity:1"
     y="608.98352"
     x="387.27026"
     id="tspan55-4"
     sodipodi:role="line">R</tspan></text>

</g></svg>